SplineFontDB: 3.2
FontName: GotoMono-BoldItalic
FullName: Goto Mono Bold Italic
FamilyName: Goto Mono
Weight: Bold
Copyright: Copyright 2015 Google LLC. All Rights Reserved.
Version: 2.006
ItalicAngle: -13
UnderlinePosition: -125
UnderlineWidth: 50
Ascent: 800
Descent: 200
InvalidEm: 0
sfntRevision: 0x00020189
LayerCount: 2
Layer: 0 1 "Back" 1
Layer: 1 1 "Fore" 0
XUID: [1021 328 1927437058 12104731]
StyleMap: 0x0021
FSType: 0
OS2Version: 3
OS2_WeightWidthSlopeOnly: 0
OS2_UseTypoMetrics: 0
CreationTime: 1604030168
ModificationTime: 1609843555
PfmFamily: 49
TTFWeight: 700
TTFWidth: 5
LineGap: 0
VLineGap: 0
Panose: 2 11 8 9 4 5 4 2 2 4
OS2TypoAscent: 1069
OS2TypoAOffset: 0
OS2TypoDescent: -293
OS2TypoDOffset: 0
OS2TypoLinegap: 0
OS2WinAscent: 1069
OS2WinAOffset: 0
OS2WinDescent: 293
OS2WinDOffset: 0
HheadAscent: 1069
HheadAOffset: 0
HheadDescent: -293
HheadDOffset: 0
OS2SubXSize: 650
OS2SubYSize: 600
OS2SubXOff: 0
OS2SubYOff: 75
OS2SupXSize: 650
OS2SupYSize: 600
OS2SupXOff: 0
OS2SupYOff: 350
OS2StrikeYSize: 50
OS2StrikeYPos: 328
OS2CapHeight: 714
OS2XHeight: 546
OS2Vendor: 'GOOG'
OS2CodePages: 0000019f.dfd70000
OS2UnicodeRanges: e00002ff.0200fcff.08000039.00100000
Lookup: 1 0 0 "'aalt' Access All Alternates lookup 0" { "'aalt' Access All Alternates lookup 0 subtable"  } ['aalt' ('DFLT' <'dflt' > 'cyrl' <'MKD ' 'SRB ' 'dflt' > 'grek' <'dflt' > 'latn' <'APPH' 'CAT ' 'IPPH' 'MAH ' 'MOL ' 'NAV ' 'ROM ' 'dflt' > ) ]
Lookup: 3 0 0 "'aalt' Access All Alternates lookup 1" { "'aalt' Access All Alternates lookup 1 subtable"  } ['aalt' ('DFLT' <'dflt' > 'cyrl' <'MKD ' 'SRB ' 'dflt' > 'grek' <'dflt' > 'latn' <'APPH' 'CAT ' 'IPPH' 'MAH ' 'MOL ' 'NAV ' 'ROM ' 'dflt' > ) ]
Lookup: 4 0 0 "'ccmp' Glyph Composition/Decomposition lookup 2" { "'ccmp' Glyph Composition/Decomposition lookup 2 subtable"  } ['ccmp' ('DFLT' <'dflt' > 'cyrl' <'MKD ' 'SRB ' 'dflt' > 'grek' <'dflt' > 'latn' <'APPH' 'CAT ' 'IPPH' 'MAH ' 'MOL ' 'NAV ' 'ROM ' 'dflt' > ) ]

StartChar: .notdef
Encoding: 1114112 -1 0
Width: 530
Flags: W
LayerCount: 2
Fore
SplineSet
60 0 m 1,0,-1
 224.83984375 714 l 1,1,-1
 635.83984375 714 l 1,2,-1
 471 0 l 1,3,-1
 60 0 l 1,0,-1
122.774414062 51 m 1,4,-1
 431.774414062 51 l 1,5,-1
 573.065429688 663 l 1,6,-1
 264.065429688 663 l 1,7,-1
 122.774414062 51 l 1,4,-1
EndSplineSet
Validated: 524289
EndChar

StartChar: exclam
Encoding: 33 33 4
Width: 530
Flags: W
LayerCount: 2
Fore
SplineSet
264.099609375 230 m 1,0,-1
 354.83984375 714 l 1,1,-1
 505.83984375 714 l 1,2,-1
 373.099609375 230 l 1,3,-1
 264.099609375 230 l 1,0,-1
263.4609375 -11 m 0,4,5
 225.4609375 -11 225.4609375 -11 209.923828125 10.5 c 0,6,7
 200.088007483 24.1115046361 200.088007483 24.1115046361 200.088007483 44.7371326318 c 0,8,9
 200.088007483 56.6906363166 200.088007483 56.6906363166 203.391601562 71 c 0,10,11
 222.323242188 153 222.323242188 153 301.323242188 153 c 0,12,13
 338.323242188 153 338.323242188 153 353.474609375 132 c 0,14,15
 362.888467927 118.952264627 362.888467927 118.952264627 362.888467927 98.5697796645 c 0,16,17
 362.888467927 86.147170718 362.888467927 86.147170718 359.391601562 71 c 0,18,19
 350.387695312 32 350.387695312 32 324.423828125 10.5 c 128,-1,20
 298.4609375 -11 298.4609375 -11 263.4609375 -11 c 0,4,5
EndSplineSet
Validated: 524289
Substitution2: "'smcp' Lowercase to Small Capitals lookup 35 subtable" exclam.sc
Substitution2: "'c2sc' Capitals to Small Capitals lookup 34 subtable" exclam.sc
Substitution2: "'aalt' Access All Alternates lookup 0 subtable" exclam.sc
EndChar

StartChar: quotedbl
Encoding: 34 34 5
Width: 530
Flags: W
LayerCount: 2
Fore
SplineSet
421.276367188 456 m 1,0,-1
 461.83984375 714 l 1,1,-1
 598.83984375 714 l 1,2,-1
 520.276367188 456 l 1,3,-1
 421.276367188 456 l 1,0,-1
220.276367188 456 m 1,4,-1
 260.83984375 714 l 1,5,-1
 396.83984375 714 l 1,6,-1
 318.276367188 456 l 1,7,-1
 220.276367188 456 l 1,4,-1
EndSplineSet
Validated: 524289
EndChar

StartChar: numbersign
Encoding: 35 35 6
Width: 530
Flags: W
LayerCount: 2
Fore
SplineSet
81 0 m 1,0,-1
 154.866210938 203 l 1,1,-1
 62.8662109375 203 l 1,2,-1
 84.1064453125 295 l 1,3,-1
 190.106445312 295 l 1,4,-1
 237.887695312 424 l 1,5,-1
 138.887695312 424 l 1,6,-1
 160.58984375 518 l 1,7,-1
 272.58984375 518 l 1,8,-1
 345.83984375 714 l 1,9,-1
 438.83984375 714 l 1,10,-1
 365.58984375 518 l 1,11,-1
 447.58984375 518 l 1,12,-1
 520.83984375 714 l 1,13,-1
 613.83984375 714 l 1,14,-1
 540.58984375 518 l 1,15,-1
 633.58984375 518 l 1,16,-1
 611.887695312 424 l 1,17,-1
 505.887695312 424 l 1,18,-1
 458.106445312 295 l 1,19,-1
 557.106445312 295 l 1,20,-1
 535.866210938 203 l 1,21,-1
 423.866210938 203 l 1,22,-1
 349 0 l 1,23,-1
 254 0 l 1,24,-1
 329.866210938 203 l 1,25,-1
 247.866210938 203 l 1,26,-1
 173 0 l 1,27,-1
 81 0 l 1,0,-1
283.106445312 295 m 1,28,-1
 365.106445312 295 l 1,29,-1
 412.887695312 424 l 1,30,-1
 330.887695312 424 l 1,31,-1
 283.106445312 295 l 1,28,-1
EndSplineSet
Validated: 524289
EndChar

StartChar: dollar
Encoding: 36 36 7
Width: 530
Flags: W
LayerCount: 2
Fore
SplineSet
248.234375 40 m 1,0,1
 155.927734375 43 155.927734375 43 91.23828125 79 c 1,2,-1
 117.788085938 194 l 1,3,4
 145.940429688 173 145.940429688 173 187.630859375 156.5 c 128,-1,5
 229.321289062 140 229.321289062 140 271.090820312 139 c 1,6,-1
 312.646484375 319 l 1,7,8
 229.727539062 354 229.727539062 354 197.654296875 397 c 0,9,10
 176.328198038 425.592375129 176.328198038 425.592375129 176.328198038 466.122633286 c 0,11,12
 176.328198038 486.545726954 176.328198038 486.545726954 181.743164062 510 c 0,13,14
 199.51953125 587 199.51953125 587 258.409179688 632 c 128,-1,15
 317.297851562 677 317.297851562 677 397.375976562 686 c 1,16,-1
 414.228515625 759 l 1,17,-1
 476.228515625 759 l 1,18,-1
 459.606445312 687 l 1,19,20
 541.452148438 682 541.452148438 682 603.91015625 645 c 1,21,-1
 550.515625 548 l 1,22,23
 499.2109375 577 499.2109375 577 435.827148438 584 c 1,24,-1
 395.65625 410 l 1,25,26
 473.268554688 378 473.268554688 378 508.1484375 338.5 c 0,27,28
 531.771838307 311.748241339 531.771838307 311.748241339 531.771838307 270.089359319 c 0,29,30
 531.771838307 250.237300669 531.771838307 250.237300669 526.407226562 227 c 0,31,32
 510.015625 156 510.015625 156 454.087890625 106.5 c 128,-1,33
 398.159179688 57 398.159179688 57 310.927734375 43 c 1,34,-1
 287.609375 -58 l 1,35,-1
 225.609375 -58 l 1,36,-1
 248.234375 40 l 1,0,1
373.595703125 583 m 1,37,38
 304.056640625 572 304.056640625 572 289.743164062 510 c 0,39,40
 287.762487262 501.421256039 287.762487262 501.421256039 287.762487262 493.876759201 c 0,41,42
 287.762487262 478.555797101 287.762487262 478.555797101 295.930664062 467.5 c 0,43,44
 308.12109375 451 308.12109375 451 339.658203125 436 c 1,45,-1
 373.595703125 583 l 1,37,38
334.475585938 145 m 1,46,47
 370.323242188 153 370.323242188 153 391.208984375 172 c 128,-1,48
 412.095703125 191 412.095703125 191 418.560546875 219 c 0,49,50
 420.626371497 227.948130841 420.626371497 227.948130841 420.626371497 235.797920865 c 0,51,52
 420.626371497 251.634008307 420.626371497 251.634008307 412.21875 263 c 0,53,54
 399.643554688 280 399.643554688 280 368.875 294 c 1,55,-1
 334.475585938 145 l 1,46,47
EndSplineSet
Validated: 524289
EndChar

StartChar: percent
Encoding: 37 37 8
Width: 530
Flags: W
LayerCount: 2
Fore
SplineSet
227.422851562 383 m 0,0,1
 162.422851562 383 162.422851562 383 135.581054688 427 c 0,2,3
 119.598782929 453.198691564 119.598782929 453.198691564 119.598782929 491.80595771 c 0,4,5
 119.598782929 518.038559854 119.598782929 518.038559854 126.977539062 550 c 0,6,7
 145.909179688 632 145.909179688 632 193.297851562 677 c 128,-1,8
 240.686523438 722 240.686523438 722 305.686523438 722 c 0,9,10
 372.686523438 722 372.686523438 722 398.913085938 677.5 c 0,11,12
 414.067364575 651.786931451 414.067364575 651.786931451 414.067364575 613.219560201 c 0,13,14
 414.067364575 585.040793494 414.067364575 585.040793494 405.977539062 550 c 0,15,16
 387.5078125 470 387.5078125 470 340.96484375 426.5 c 128,-1,17
 294.422851562 383 294.422851562 383 227.422851562 383 c 0,0,1
247.430664062 461 m 0,18,19
 294.430664062 461 294.430664062 461 314.977539062 550 c 0,20,21
 321.832456495 579.692508884 321.832456495 579.692508884 321.832456495 600.005814749 c 0,22,23
 321.832456495 644 321.832456495 644 289.678710938 644 c 0,24,25
 262.678710938 644 262.678710938 644 245.984375 621.5 c 128,-1,26
 229.290039062 599 229.290039062 599 217.977539062 550 c 0,27,28
 211.993233276 524.0786268 211.993233276 524.0786268 211.993233276 505.706889426 c 0,29,30
 211.993233276 461 211.993233276 461 247.430664062 461 c 0,18,19
55.2421875 118 m 1,31,-1
 535.59765625 596 l 1,32,-1
 634.59765625 596 l 1,33,-1
 156.2421875 118 l 1,34,-1
 55.2421875 118 l 1,31,-1
387.921875 -9 m 0,35,36
 322.921875 -9 322.921875 -9 296.080078125 35 c 0,37,38
 280.098152581 61.1981240387 280.098152581 61.1981240387 280.098152581 99.8042850662 c 0,39,40
 280.098152581 126.037540888 280.098152581 126.037540888 287.477539062 158 c 0,41,42
 306.408203125 240 306.408203125 240 353.797851562 285 c 128,-1,43
 401.186523438 330 401.186523438 330 466.186523438 330 c 0,44,45
 533.186523438 330 533.186523438 330 559.413085938 285.5 c 0,46,47
 574.567364575 259.786931451 574.567364575 259.786931451 574.567364575 221.219560201 c 0,48,49
 574.567364575 193.040793494 574.567364575 193.040793494 566.477539062 158 c 0,50,51
 548.0078125 78 548.0078125 78 501.46484375 34.5 c 128,-1,52
 454.921875 -9 454.921875 -9 387.921875 -9 c 0,35,36
407.9296875 69 m 0,53,54
 454.9296875 69 454.9296875 69 475.477539062 158 c 0,55,56
 482.332456495 187.692508884 482.332456495 187.692508884 482.332456495 208.005814749 c 0,57,58
 482.332456495 252 482.332456495 252 450.178710938 252 c 0,59,60
 423.178710938 252 423.178710938 252 406.484375 229.5 c 128,-1,61
 389.790039062 207 389.790039062 207 378.477539062 158 c 0,62,63
 372.492747258 132.07775363 372.492747258 132.07775363 372.492747258 113.705651719 c 0,64,65
 372.492747258 69 372.492747258 69 407.9296875 69 c 0,53,54
EndSplineSet
Validated: 524289
EndChar

StartChar: ampersand
Encoding: 38 38 9
Width: 530
Flags: W
LayerCount: 2
Fore
SplineSet
195.69140625 -10 m 0,0,1
 108.69140625 -10 108.69140625 -10 77.5810546875 41.5 c 0,2,3
 57.9684753883 73.9666158748 57.9684753883 73.9666158748 57.9684753883 117.362530091 c 0,4,5
 57.9684753883 142.803158332 57.9684753883 142.803158332 64.708984375 172 c 0,6,7
 81.1005859375 243 81.1005859375 243 124.990234375 294.5 c 128,-1,8
 168.880859375 346 168.880859375 346 228.807617188 389 c 1,9,10
 215.426757812 422 215.426757812 422 207.0078125 463.5 c 0,11,12
 203.651214084 480.045877075 203.651214084 480.045877075 203.651214084 498.73769211 c 0,13,14
 203.651214084 526.928270823 203.651214084 526.928270823 211.286132812 560 c 0,15,16
 228.6015625 635 228.6015625 635 278.759765625 679 c 128,-1,17
 328.91796875 723 328.91796875 723 400.91796875 723 c 0,18,19
 476.91796875 723 476.91796875 723 504.490234375 680 c 0,20,21
 522.059923463 652.600370111 522.059923463 652.600370111 522.059923463 615.050122077 c 0,22,23
 522.059923463 593.670352734 522.059923463 593.670352734 516.364257812 569 c 0,24,25
 502.049804688 507 502.049804688 507 460.661132812 462 c 128,-1,26
 419.272460938 417 419.272460938 417 362.344726562 374 c 1,27,-1
 414.100585938 243 l 1,28,29
 434.719726562 276 434.719726562 276 451.069335938 310 c 128,-1,30
 467.418945312 344 467.418945312 344 478.114257812 373 c 1,31,-1
 585.114257812 373 l 1,32,33
 562.799804688 311 562.799804688 311 530.486328125 249 c 128,-1,34
 498.171875 187 498.171875 187 456.166992188 135 c 1,35,-1
 509 0 l 1,36,-1
 372 0 l 1,37,-1
 356.696289062 42 l 1,38,39
 319.924804688 17 319.924804688 17 279.807617188 3.5 c 128,-1,40
 239.69140625 -10 239.69140625 -10 195.69140625 -10 c 0,0,1
323.1328125 568 m 0,41,42
 318.597899692 548.356384452 318.597899692 548.356384452 318.597899692 529.784634548 c 0,43,44
 318.597899692 519.993352414 318.597899692 519.993352414 319.858398438 510.5 c 0,45,46
 323.509765625 483 323.509765625 483 330.430664062 461 c 1,47,48
 356.509765625 483 356.509765625 483 379.243164062 510 c 128,-1,49
 401.9765625 537 401.9765625 537 410.056640625 572 c 0,50,51
 412.938128833 584.481950431 412.938128833 584.481950431 412.938128833 594.380497641 c 0,52,53
 412.938128833 606.686759159 412.938128833 606.686759159 408.484375 615 c 0,54,55
 400.447265625 630 400.447265625 630 381.447265625 630 c 0,56,57
 361.447265625 630 361.447265625 630 345.868164062 614.5 c 128,-1,58
 330.290039062 599 330.290039062 599 323.1328125 568 c 0,41,42
186.7109375 185 m 0,59,60
 183.274259994 170.113886206 183.274259994 170.113886206 183.274259994 157.493915125 c 0,61,62
 183.274259994 138.746469804 183.274259994 138.746469804 190.858398438 125 c 0,63,64
 203.548828125 102 203.548828125 102 236.548828125 102 c 0,65,66
 259.548828125 102 259.548828125 102 280.625976562 111 c 128,-1,67
 301.704101562 120 301.704101562 120 322.3984375 136 c 1,68,-1
 261.798828125 298 l 1,69,70
 235.48828125 275 235.48828125 275 215.139648438 247.5 c 128,-1,71
 194.791015625 220 194.791015625 220 186.7109375 185 c 0,59,60
EndSplineSet
Validated: 524289
Substitution2: "'smcp' Lowercase to Small Capitals lookup 35 subtable" ampersand.sc
Substitution2: "'c2sc' Capitals to Small Capitals lookup 34 subtable" ampersand.sc
Substitution2: "'aalt' Access All Alternates lookup 0 subtable" ampersand.sc
EndChar

StartChar: quotesingle
Encoding: 39 39 10
Width: 530
Flags: W
LayerCount: 2
Fore
SplineSet
320.276367188 456 m 1,0,-1
 360.83984375 714 l 1,1,-1
 497.83984375 714 l 1,2,-1
 419.276367188 456 l 1,3,-1
 320.276367188 456 l 1,0,-1
EndSplineSet
Validated: 524289
EndChar

StartChar: parenleft
Encoding: 40 40 11
Width: 530
Flags: W
LayerCount: 2
Fore
SplineSet
271.983398438 -169 m 1,0,1
 226.837890625 -83 226.837890625 -83 215.733398438 27 c 0,2,3
 212.751201969 56.5413429064 212.751201969 56.5413429064 212.751201969 87.5972733959 c 0,4,5
 212.751201969 172.181053825 212.751201969 172.181053825 234.873046875 268 c 0,6,7
 265.578125 401 265.578125 401 328.78125 514.5 c 128,-1,8
 391.985351562 628 391.985351562 628 475.83984375 714 c 1,9,-1
 589.83984375 714 l 1,10,11
 414.282226562 521 414.282226562 521 356.103515625 269 c 0,12,13
 334.519906317 175.50950786 334.519906317 175.50950786 334.519906317 88.8843547946 c 0,14,15
 334.519906317 63.3949678569 334.519906317 63.3949678569 336.388671875 38.5 c 0,16,17
 344.608398438 -71 344.608398438 -71 384.983398438 -169 c 1,18,-1
 271.983398438 -169 l 1,0,1
EndSplineSet
Validated: 524289
Substitution2: "'smcp' Lowercase to Small Capitals lookup 35 subtable" parenleft.sc
Substitution2: "'c2sc' Capitals to Small Capitals lookup 34 subtable" parenleft.sc
Substitution2: "'sups' Superscript lookup 23 subtable" uni207D
Substitution2: "'subs' Subscript lookup 22 subtable" uni208D
AlternateSubs2: "'aalt' Access All Alternates lookup 1 subtable" uni208D uni207D parenleft.sc
EndChar

StartChar: asterisk
Encoding: 42 42 13
Width: 530
Flags: W
LayerCount: 2
Fore
SplineSet
415.958007812 355 m 1,0,-1
 377.432617188 487 l 1,1,-1
 276.958007812 355 l 1,2,-1
 197.502929688 418 l 1,3,-1
 319.052734375 533 l 1,4,-1
 187.515625 548 l 1,5,-1
 237.680664062 657 l 1,6,-1
 364.522460938 613 l 1,7,-1
 382.459960938 760 l 1,8,-1
 499.459960938 760 l 1,9,-1
 448.291015625 612 l 1,10,-1
 595.680664062 657 l 1,11,-1
 595.515625 548 l 1,12,-1
 456.052734375 533 l 1,13,-1
 526.502929688 418 l 1,14,-1
 415.958007812 355 l 1,0,-1
EndSplineSet
Validated: 524289
EndChar

StartChar: plus
Encoding: 43 43 14
Width: 530
Flags: W
LayerCount: 2
Fore
SplineSet
240.780273438 116 m 1,0,-1
 283.72265625 302 l 1,1,-1
 125.72265625 302 l 1,2,-1
 149.270507812 404 l 1,3,-1
 307.270507812 404 l 1,4,-1
 350.905273438 593 l 1,5,-1
 453.905273438 593 l 1,6,-1
 410.270507812 404 l 1,7,-1
 567.270507812 404 l 1,8,-1
 543.72265625 302 l 1,9,-1
 386.72265625 302 l 1,10,-1
 343.780273438 116 l 1,11,-1
 240.780273438 116 l 1,0,-1
EndSplineSet
Validated: 524289
Substitution2: "'sups' Superscript lookup 23 subtable" uni207A
Substitution2: "'subs' Subscript lookup 22 subtable" uni208A
AlternateSubs2: "'aalt' Access All Alternates lookup 1 subtable" uni208A uni207A
EndChar

StartChar: comma
Encoding: 44 44 15
Width: 530
Flags: W
LayerCount: 2
Fore
SplineSet
141.447265625 -141 m 1,0,1
 159.682617188 -101 159.682617188 -101 180.110351562 -51.5 c 128,-1,2
 200.538085938 -2 200.538085938 -2 218.735351562 46.5 c 128,-1,3
 236.932617188 95 236.932617188 95 249.474609375 132 c 1,4,-1
 375.474609375 132 l 1,5,-1
 378.934570312 121 l 1,6,7
 351.697265625 55 351.697265625 55 316.767578125 -14 c 128,-1,8
 281.837890625 -83 281.837890625 -83 242.447265625 -141 c 1,9,-1
 141.447265625 -141 l 1,0,1
EndSplineSet
Validated: 524289
EndChar

StartChar: hyphen
Encoding: 45 45 16
Width: 530
Flags: W
LayerCount: 2
Fore
SplineSet
180.55859375 206 m 1,0,-1
 209.186523438 330 l 1,1,-1
 474.186523438 330 l 1,2,-1
 445.55859375 206 l 1,3,-1
 180.55859375 206 l 1,0,-1
EndSplineSet
Validated: 524289
EndChar

StartChar: period
Encoding: 46 46 17
Width: 530
Flags: W
LayerCount: 2
Fore
SplineSet
262.4609375 -11 m 0,0,1
 225.4609375 -11 225.4609375 -11 209.423828125 10.5 c 0,2,3
 199.153973715 24.269022269 199.153973715 24.269022269 199.153973715 45.2154475652 c 0,4,5
 199.153973715 56.9763659764 199.153973715 56.9763659764 202.391601562 71 c 0,6,7
 221.323242188 153 221.323242188 153 300.323242188 153 c 0,8,9
 337.323242188 153 337.323242188 153 352.974609375 132 c 0,10,11
 362.818209497 118.79248911 362.818209497 118.79248911 362.818209497 98.0694940165 c 0,12,13
 362.818209497 85.8428364007 362.818209497 85.8428364007 359.391601562 71 c 0,14,15
 350.387695312 32 350.387695312 32 324.423828125 10.5 c 128,-1,16
 298.4609375 -11 298.4609375 -11 262.4609375 -11 c 0,0,1
EndSplineSet
Validated: 524289
EndChar

StartChar: slash
Encoding: 47 47 18
Width: 530
Flags: W
LayerCount: 2
Fore
SplineSet
70.845703125 -5 m 1,0,-1
 509.994140625 719 l 1,1,-1
 623.994140625 719 l 1,2,-1
 184.845703125 -5 l 1,3,-1
 70.845703125 -5 l 1,0,-1
EndSplineSet
Validated: 524289
Substitution2: "'frac' Diagonal Fractions lookup 26 subtable" fraction
Substitution2: "'aalt' Access All Alternates lookup 0 subtable" fraction
EndChar

StartChar: zero
Encoding: 48 48 19
Width: 530
Flags: W
LayerCount: 2
Fore
SplineSet
270.69140625 -10 m 0,0,1
 165.69140625 -10 165.69140625 -10 133.5078125 78 c 0,2,3
 119.969884391 115.016924923 119.969884391 115.016924923 119.969884391 170.436004287 c 0,4,5
 119.969884391 246.764199832 119.969884391 246.764199832 145.650390625 358 c 0,6,7
 188.361328125 543 188.361328125 543 260.254882812 633.5 c 128,-1,8
 332.1484375 724 332.1484375 724 439.1484375 724 c 0,9,10
 545.1484375 724 545.1484375 724 576.177734375 631 c 0,11,12
 589.358548264 591.494893048 589.358548264 591.494893048 589.358548264 535.930338842 c 0,13,14
 589.358548264 460.688930481 589.358548264 460.688930481 565.189453125 356 c 0,15,16
 540.024414062 247 540.024414062 247 501.592773438 165 c 128,-1,17
 463.162109375 83 463.162109375 83 406.426757812 36.5 c 128,-1,18
 349.69140625 -10 349.69140625 -10 270.69140625 -10 c 0,0,1
275.189453125 356 m 0,19,20
 269.416992188 331 269.416992188 331 264.569335938 310 c 1,21,-1
 459.439453125 552 l 1,22,23
 454.598632812 609 454.598632812 609 412.598632812 609 c 0,24,25
 368.598632812 609 368.598632812 609 336.438476562 545.5 c 128,-1,26
 304.278320312 482 304.278320312 482 275.189453125 356 c 0,19,20
296.010742188 104 m 0,27,28
 341.010742188 104 341.010742188 104 372.208984375 165.5 c 128,-1,29
 403.407226562 227 403.407226562 227 432.958007812 355 c 0,30,31
 440.115234375 386 440.115234375 386 444.88671875 411 c 1,32,-1
 247.5546875 167 l 1,33,34
 252.010742188 104 252.010742188 104 296.010742188 104 c 0,27,28
EndSplineSet
Validated: 524289
Substitution2: "'zero' Slashed Zero lookup 37 subtable" zero.slash
Substitution2: "'onum' Oldstyle Figures lookup 33 subtable" zero.osf
Substitution2: "'frac' Diagonal Fractions lookup 27 subtable" zero.numr
Substitution2: "'dnom' Denominators lookup 25 subtable" zero.dnom
Substitution2: "'numr' Numerators lookup 24 subtable" zero.numr
Substitution2: "'sups' Superscript lookup 23 subtable" uni2070
Substitution2: "'subs' Subscript lookup 22 subtable" uni2080
AlternateSubs2: "'aalt' Access All Alternates lookup 1 subtable" uni2070 zero.osf zero.dnom zero.numr uni2080
EndChar

StartChar: one
Encoding: 49 49 20
Width: 530
Flags: W
LayerCount: 2
Fore
SplineSet
86 0 m 1,0,-1
 108.625 98 l 1,1,-1
 245.625976562 111 l 1,2,-1
 316.733398438 419 l 2,3,4
 328.27734375 469 328.27734375 469 337.819335938 506 c 128,-1,5
 347.361328125 543 347.361328125 543 359.2109375 577 c 1,6,7
 339.209960938 564 339.209960938 564 320.516601562 554.5 c 128,-1,8
 301.823242188 545 301.823242188 545 283.9765625 537 c 2,9,-1
 199.741210938 497 l 1,10,-1
 165.982421875 602 l 1,11,-1
 395.83984375 714 l 1,12,-1
 517.83984375 714 l 1,13,-1
 378.625976562 111 l 1,14,-1
 507.625 98 l 1,15,-1
 485 0 l 1,16,-1
 86 0 l 1,0,-1
EndSplineSet
Validated: 524289
Substitution2: "'onum' Oldstyle Figures lookup 33 subtable" one.osf
Substitution2: "'frac' Diagonal Fractions lookup 27 subtable" one.numr
Substitution2: "'dnom' Denominators lookup 25 subtable" one.dnom
Substitution2: "'numr' Numerators lookup 24 subtable" one.numr
Substitution2: "'sups' Superscript lookup 23 subtable" uni00B9
Substitution2: "'subs' Subscript lookup 22 subtable" uni2081
AlternateSubs2: "'aalt' Access All Alternates lookup 1 subtable" uni00B9 one.osf one.dnom one.numr uni2081
EndChar

StartChar: two
Encoding: 50 50 21
Width: 530
Flags: W
LayerCount: 2
Fore
SplineSet
61 0 m 1,0,-1
 82.9326171875 95 l 1,1,-1
 274.3359375 283 l 2,2,3
 330.264648438 339 330.264648438 339 365.883789062 378.5 c 128,-1,4
 401.502929688 418 401.502929688 418 421.390625 450 c 128,-1,5
 441.278320312 482 441.278320312 482 448.666015625 514 c 0,6,7
 453.184021118 533.569299378 453.184021118 533.569299378 453.184021118 549.247490164 c 0,8,9
 453.184021118 570.422779017 453.184021118 570.422779017 444.942382812 584.5 c 0,10,11
 430.598632812 609 430.598632812 609 390.598632812 609 c 0,12,13
 359.598632812 609 359.598632812 609 327.520507812 593.5 c 128,-1,14
 295.44140625 578 295.44140625 578 253.130859375 542 c 1,15,-1
 205.447265625 630 l 1,16,17
 264.990234375 680 264.990234375 680 317.069335938 702 c 128,-1,18
 369.1484375 724 369.1484375 724 429.1484375 724 c 0,19,20
 522.1484375 724 522.1484375 724 564.912109375 671 c 0,21,22
 593.382649529 635.715280417 593.382649529 635.715280417 593.382649529 582.701668901 c 0,23,24
 593.382649529 556.085303374 593.382649529 556.085303374 586.206054688 525 c 0,25,26
 568.66015625 449 568.66015625 449 515.038085938 383.5 c 128,-1,27
 461.416015625 318 461.416015625 318 373.715820312 237 c 2,28,-1
 248.934570312 121 l 1,29,-1
 247.549804688 115 l 1,30,-1
 504.549804688 115 l 1,31,-1
 478 0 l 1,32,-1
 61 0 l 1,0,-1
EndSplineSet
Validated: 524289
Substitution2: "'onum' Oldstyle Figures lookup 33 subtable" two.osf
Substitution2: "'frac' Diagonal Fractions lookup 27 subtable" two.numr
Substitution2: "'dnom' Denominators lookup 25 subtable" two.dnom
Substitution2: "'numr' Numerators lookup 24 subtable" two.numr
Substitution2: "'sups' Superscript lookup 23 subtable" uni00B2
Substitution2: "'subs' Subscript lookup 22 subtable" uni2082
AlternateSubs2: "'aalt' Access All Alternates lookup 1 subtable" uni00B2 two.osf two.dnom two.numr uni2082
EndChar

StartChar: three
Encoding: 51 51 22
Width: 530
Flags: W
LayerCount: 2
Fore
SplineSet
232.69140625 -10 m 0,0,1
 142.69140625 -10 142.69140625 -10 71.771484375 25 c 1,2,-1
 99.9375 147 l 1,3,4
 169.779296875 103 169.779296875 103 247.779296875 103 c 0,5,6
 305.779296875 103 305.779296875 103 339.627929688 130.5 c 128,-1,7
 373.477539062 158 373.477539062 158 385.020507812 208 c 0,8,9
 388.898364807 224.796959138 388.898364807 224.796959138 388.898364807 238.836398272 c 0,10,11
 388.898364807 269.931897371 388.898364807 269.931897371 369.875 287.5 c 0,12,13
 342.26171875 313 342.26171875 313 267.26171875 313 c 2,14,-1
 226.26171875 313 l 1,15,-1
 251.426757812 422 l 1,16,-1
 293.426757812 422 l 2,17,18
 360.426757812 422 360.426757812 422 400.390625 450 c 128,-1,19
 440.35546875 478 440.35546875 478 451.66796875 527 c 0,20,21
 455.002882807 541.445024706 455.002882807 541.445024706 455.002882807 553.626493074 c 0,22,23
 455.002882807 574.333668099 455.002882807 574.333668099 445.366210938 588.5 c 0,24,25
 430.060546875 611 430.060546875 611 387.060546875 611 c 0,26,27
 356.060546875 611 356.060546875 611 323.290039062 599 c 128,-1,28
 290.51953125 587 290.51953125 587 249.748046875 562 c 1,29,-1
 216.680664062 657 l 1,30,31
 265.068359375 689 265.068359375 689 318.108398438 706.5 c 128,-1,32
 371.1484375 724 371.1484375 724 428.1484375 724 c 0,33,34
 516.1484375 724 516.1484375 724 560.490234375 680 c 0,35,36
 591.118094315 649.608226722 591.118094315 649.608226722 591.118094315 599.178377469 c 0,37,38
 591.118094315 576.597897683 591.118094315 576.597897683 584.977539062 550 c 0,39,40
 569.509765625 483 569.509765625 483 525.8515625 439 c 128,-1,41
 482.193359375 395 482.193359375 395 418.575195312 375 c 1,42,-1
 417.8828125 372 l 1,43,44
 526.943712159 350.310981811 526.943712159 350.310981811 526.943712159 253.12349905 c 0,45,46
 526.943712159 229.325236323 526.943712159 229.325236323 520.404296875 201 c 0,47,48
 497.086914062 100 497.086914062 100 420.388671875 45 c 128,-1,49
 343.69140625 -10 343.69140625 -10 232.69140625 -10 c 0,0,1
EndSplineSet
Validated: 524289
Substitution2: "'onum' Oldstyle Figures lookup 33 subtable" three.osf
Substitution2: "'frac' Diagonal Fractions lookup 27 subtable" three.numr
Substitution2: "'dnom' Denominators lookup 25 subtable" three.dnom
Substitution2: "'numr' Numerators lookup 24 subtable" three.numr
Substitution2: "'sups' Superscript lookup 23 subtable" uni00B3
Substitution2: "'subs' Subscript lookup 22 subtable" uni2083
AlternateSubs2: "'aalt' Access All Alternates lookup 1 subtable" uni00B3 three.osf three.dnom three.numr uni2083
EndChar

StartChar: four
Encoding: 52 52 23
Width: 530
Flags: W
LayerCount: 2
Fore
SplineSet
291 0 m 1,0,-1
 324.9375 147 l 1,1,-1
 66.9375 147 l 1,2,-1
 90.716796875 250 l 1,3,-1
 454.301757812 716 l 1,4,-1
 584.301757812 716 l 1,5,-1
 477.87109375 255 l 1,6,-1
 555.87109375 255 l 1,7,-1
 530.9375 147 l 1,8,-1
 452.9375 147 l 1,9,-1
 419 0 l 1,10,-1
 291 0 l 1,0,-1
203.87109375 255 m 1,11,-1
 348.87109375 255 l 1,12,-1
 386.96484375 420 l 2,13,14
 392.966796875 446 392.966796875 446 402.778320312 482 c 128,-1,15
 412.58984375 518 412.58984375 518 418.899414062 541 c 1,16,-1
 414.899414062 541 l 1,17,18
 402.051757812 520 402.051757812 520 388.665039062 501 c 128,-1,19
 375.278320312 482 375.278320312 482 360.661132812 462 c 2,20,-1
 203.87109375 255 l 1,11,-1
EndSplineSet
Validated: 524289
Substitution2: "'onum' Oldstyle Figures lookup 33 subtable" four.osf
Substitution2: "'frac' Diagonal Fractions lookup 27 subtable" four.numr
Substitution2: "'dnom' Denominators lookup 25 subtable" four.dnom
Substitution2: "'numr' Numerators lookup 24 subtable" four.numr
Substitution2: "'sups' Superscript lookup 23 subtable" uni2074
Substitution2: "'subs' Subscript lookup 22 subtable" uni2084
AlternateSubs2: "'aalt' Access All Alternates lookup 1 subtable" uni2074 four.osf four.dnom four.numr uni2084
EndChar

StartChar: five
Encoding: 53 53 24
Width: 530
Flags: W
LayerCount: 2
Fore
SplineSet
222.69140625 -10 m 0,0,1
 131.69140625 -10 131.69140625 -10 76.771484375 25 c 1,2,-1
 104.70703125 146 l 1,3,4
 135.3203125 127 135.3203125 127 171.665039062 115.5 c 128,-1,5
 208.010742188 104 208.010742188 104 244.010742188 104 c 0,6,7
 298.010742188 104 298.010742188 104 333.244140625 137.5 c 128,-1,8
 368.478515625 171 368.478515625 171 381.407226562 227 c 0,9,10
 386.625013849 249.601582833 386.625013849 249.601582833 386.625013849 267.733389634 c 0,11,12
 386.625013849 297.735751846 386.625013849 297.735751846 372.338867188 315.5 c 0,13,14
 349.418945312 344 349.418945312 344 299.418945312 344 c 0,15,16
 251.418945312 344 251.418945312 344 203.494140625 327 c 1,17,-1
 163.112304688 360 l 1,18,-1
 267.83984375 714 l 1,19,-1
 591.83984375 714 l 1,20,-1
 565.059570312 598 l 1,21,-1
 355.059570312 598 l 1,22,-1
 308.736328125 445 l 1,23,24
 331.890625 450 331.890625 450 350.352539062 452 c 128,-1,25
 368.814453125 454 368.814453125 454 383.814453125 454 c 0,26,27
 438.814453125 454 438.814453125 454 473.96484375 426.5 c 128,-1,28
 509.116210938 399 509.116210938 399 521.688476562 349.5 c 0,29,30
 527.325286051 327.306540364 527.325286051 327.306540364 527.325286051 301.595227902 c 0,31,32
 527.325286051 269.960367765 527.325286051 269.960367765 518.791992188 233 c 0,33,34
 492.01171875 117 492.01171875 117 413.8515625 53.5 c 128,-1,35
 335.69140625 -10 335.69140625 -10 222.69140625 -10 c 0,0,1
EndSplineSet
Validated: 524289
Substitution2: "'onum' Oldstyle Figures lookup 33 subtable" five.osf
Substitution2: "'frac' Diagonal Fractions lookup 27 subtable" five.numr
Substitution2: "'dnom' Denominators lookup 25 subtable" five.dnom
Substitution2: "'numr' Numerators lookup 24 subtable" five.numr
Substitution2: "'sups' Superscript lookup 23 subtable" uni2075
Substitution2: "'subs' Subscript lookup 22 subtable" uni2085
AlternateSubs2: "'aalt' Access All Alternates lookup 1 subtable" uni2075 five.osf five.dnom five.numr uni2085
EndChar

StartChar: six
Encoding: 54 54 25
Width: 530
Flags: W
LayerCount: 2
Fore
SplineSet
271.69140625 -10 m 0,0,1
 170.69140625 -10 170.69140625 -10 131.853515625 73 c 0,2,3
 111.57727857 116.332108117 111.57727857 116.332108117 111.57727857 179.016035534 c 0,4,5
 111.57727857 236.399333132 111.57727857 236.399333132 128.569335938 310 c 0,6,7
 156.965820312 433 156.965820312 433 206.936523438 526 c 128,-1,8
 256.907226562 619 256.907226562 619 332.912109375 671 c 128,-1,9
 408.91796875 723 408.91796875 723 515.91796875 723 c 0,10,11
 564.91796875 723 564.91796875 723 602.0703125 715 c 1,12,-1
 575.982421875 602 l 1,13,14
 539.522460938 613 539.522460938 613 496.522460938 613 c 0,15,16
 413.522460938 613 413.522460938 613 357.862304688 556 c 128,-1,17
 302.203125 499 302.203125 499 270.19140625 382 c 1,18,-1
 275.19140625 382 l 1,19,20
 302.426757812 422 302.426757812 422 338.389648438 443.5 c 128,-1,21
 374.353515625 465 374.353515625 465 418.353515625 465 c 0,22,23
 499.353515625 465 499.353515625 465 526.693359375 401.5 c 0,24,25
 541.381921152 367.384089121 541.381921152 367.384089121 541.381921152 322.155282974 c 0,26,27
 541.381921152 283.199639218 541.381921152 283.199639218 530.485351562 236 c 0,28,29
 504.858398438 125 504.858398438 125 437.275390625 57.5 c 128,-1,30
 369.69140625 -10 369.69140625 -10 271.69140625 -10 c 0,0,1
295.241210938 105 m 0,31,32
 330.241210938 105 330.241210938 105 357.013671875 136.5 c 128,-1,33
 383.786132812 168 383.786132812 168 398.791992188 233 c 0,34,35
 406.600973112 266.823812223 406.600973112 266.823812223 406.600973112 291.192663509 c 0,36,37
 406.600973112 354 406.600973112 354 354.727539062 354 c 0,38,39
 317.727539062 354 317.727539062 354 288.5703125 323 c 128,-1,40
 259.413085938 292 259.413085938 292 248.793945312 246 c 0,41,42
 241.372693112 213.856063785 241.372693112 213.856063785 241.372693112 184.502493484 c 0,43,44
 241.372693112 180.981168695 241.372693112 180.981168695 241.479492188 177.5 c 0,45,46
 242.475585938 145 242.475585938 145 255.858398438 125 c 128,-1,47
 269.241210938 105 269.241210938 105 295.241210938 105 c 0,31,32
EndSplineSet
Validated: 524289
Substitution2: "'onum' Oldstyle Figures lookup 33 subtable" six.osf
Substitution2: "'frac' Diagonal Fractions lookup 27 subtable" six.numr
Substitution2: "'dnom' Denominators lookup 25 subtable" six.dnom
Substitution2: "'numr' Numerators lookup 24 subtable" six.numr
Substitution2: "'sups' Superscript lookup 23 subtable" uni2076
Substitution2: "'subs' Subscript lookup 22 subtable" uni2086
AlternateSubs2: "'aalt' Access All Alternates lookup 1 subtable" uni2076 six.osf six.dnom six.numr uni2086
EndChar

StartChar: seven
Encoding: 55 55 26
Width: 530
Flags: W
LayerCount: 2
Fore
SplineSet
119 0 m 1,0,-1
 485.059570312 598 l 1,1,-1
 198.059570312 598 l 1,2,-1
 224.83984375 714 l 1,3,-1
 648.83984375 714 l 1,4,-1
 628.061523438 624 l 1,5,-1
 260 0 l 1,6,-1
 119 0 l 1,0,-1
EndSplineSet
Validated: 524289
Substitution2: "'onum' Oldstyle Figures lookup 33 subtable" seven.osf
Substitution2: "'frac' Diagonal Fractions lookup 27 subtable" seven.numr
Substitution2: "'dnom' Denominators lookup 25 subtable" seven.dnom
Substitution2: "'numr' Numerators lookup 24 subtable" seven.numr
Substitution2: "'sups' Superscript lookup 23 subtable" uni2077
Substitution2: "'subs' Subscript lookup 22 subtable" uni2087
AlternateSubs2: "'aalt' Access All Alternates lookup 1 subtable" uni2077 seven.osf seven.dnom seven.numr uni2087
EndChar

StartChar: eight
Encoding: 56 56 27
Width: 530
Flags: W
LayerCount: 2
Fore
SplineSet
268.69140625 -10 m 0,0,1
 170.69140625 -10 170.69140625 -10 124.619140625 39.5 c 0,2,3
 93.1924251711 73.2648343069 93.1924251711 73.2648343069 93.1924251711 127.269556607 c 0,4,5
 93.1924251711 152.436961425 93.1924251711 152.436961425 100.017578125 182 c 0,6,7
 113.870117188 242 113.870117188 242 153.220703125 289 c 128,-1,8
 192.571289062 336 192.571289062 336 262.114257812 373 c 1,9,10
 219.88671875 411 219.88671875 411 206.66015625 455.5 c 0,11,12
 199.790176565 478.615353636 199.790176565 478.615353636 199.790176565 504.024213838 c 0,13,14
 199.790176565 527.530645904 199.790176565 527.530645904 205.669921875 553 c 0,15,16
 224.370117188 634 224.370117188 634 288.259765625 679 c 128,-1,17
 352.1484375 724 352.1484375 724 438.1484375 724 c 0,18,19
 526.1484375 724 526.1484375 724 568.375 679.5 c 0,20,21
 597.53024802 648.775061476 597.53024802 648.775061476 597.53024802 600.173178489 c 0,22,23
 597.53024802 578.383259349 597.53024802 578.383259349 591.669921875 553 c 0,24,25
 578.510742188 496 578.510742188 496 542.352539062 452 c 128,-1,26
 506.194335938 408 506.194335938 408 441.806640625 376 c 1,27,28
 496.87890625 333 496.87890625 333 517.490234375 288 c 0,29,30
 529.983957655 260.72159352 529.983957655 260.72159352 529.983957655 228.666175198 c 0,31,32
 529.983957655 207.841164982 529.983957655 207.841164982 524.7109375 185 c 0,33,34
 503.470703125 93 503.470703125 93 433.081054688 41.5 c 128,-1,35
 362.69140625 -10 362.69140625 -10 268.69140625 -10 c 0,0,1
371.889648438 437 m 1,36,37
 414.661132812 462 414.661132812 462 435.817382812 486.5 c 128,-1,38
 456.973632812 511 456.973632812 511 464.361328125 543 c 0,39,40
 467.132792596 555.004392515 467.132792596 555.004392515 467.132792596 565.263563443 c 0,41,42
 467.132792596 584.061407362 467.132792596 584.061407362 457.828125 597 c 0,43,44
 443.4453125 617 443.4453125 617 413.4453125 617 c 256,45,46
 383.4453125 617 383.4453125 617 360.828125 597 c 128,-1,47
 338.2109375 577 338.2109375 577 330.361328125 543 c 256,48,49
 327.131641385 529.010851761 327.131641385 529.010851761 327.131641385 516.545290387 c 0,50,51
 327.131641385 498.713861589 327.131641385 498.713861589 333.740234375 484 c 0,52,53
 344.96875 459 344.96875 459 371.889648438 437 c 1,36,37
291.39453125 97 m 0,54,55
 335.39453125 97 335.39453125 97 362.434570312 121 c 128,-1,56
 389.475585938 145 389.475585938 145 398.94140625 186 c 0,57,58
 401.957342541 199.063655445 401.957342541 199.063655445 401.957342541 210.943043988 c 0,59,60
 401.957342541 232.709473642 401.957342541 232.709473642 391.83203125 250.5 c 0,61,62
 376.181640625 278 376.181640625 278 337.03125 312 c 1,63,64
 288.797851562 285 288.797851562 285 263.37109375 255 c 128,-1,65
 237.9453125 225 237.9453125 225 228.94140625 186 c 0,66,67
 225.417219721 170.735433071 225.417219721 170.735433071 225.417219721 157.827272483 c 0,68,69
 225.417219721 136.064643749 225.417219721 136.064643749 235.434570312 121 c 0,70,71
 251.39453125 97 251.39453125 97 291.39453125 97 c 0,54,55
EndSplineSet
Validated: 524289
Substitution2: "'onum' Oldstyle Figures lookup 33 subtable" eight.osf
Substitution2: "'frac' Diagonal Fractions lookup 27 subtable" eight.numr
Substitution2: "'dnom' Denominators lookup 25 subtable" eight.dnom
Substitution2: "'numr' Numerators lookup 24 subtable" eight.numr
Substitution2: "'sups' Superscript lookup 23 subtable" uni2078
Substitution2: "'subs' Subscript lookup 22 subtable" uni2088
AlternateSubs2: "'aalt' Access All Alternates lookup 1 subtable" uni2078 eight.osf eight.dnom eight.numr uni2088
EndChar

StartChar: nine
Encoding: 57 57 28
Width: 530
Flags: W
LayerCount: 2
Fore
SplineSet
184.69140625 -10 m 0,0,1
 136.69140625 -10 136.69140625 -10 98.76953125 -1 c 1,2,-1
 124.857421875 112 l 1,3,4
 160.086914062 100 160.086914062 100 205.086914062 100 c 0,5,6
 266.086914062 100 266.086914062 100 309.666992188 128.5 c 128,-1,7
 353.24609375 157 353.24609375 157 383.250976562 209 c 128,-1,8
 413.256835938 261 413.256835938 261 432.416992188 331 c 1,9,-1
 427.416992188 331 l 1,10,11
 399.413085938 292 399.413085938 292 363.450195312 270.5 c 128,-1,12
 327.486328125 249 327.486328125 249 284.486328125 249 c 0,13,14
 203.486328125 249 203.486328125 249 175.53125 312 c 0,15,16
 160.425017648 346.042451584 160.425017648 346.042451584 160.425017648 391.764303619 c 0,17,18
 160.425017648 430.656706557 160.425017648 430.656706557 171.35546875 478 c 0,19,20
 196.750976562 588 196.750976562 588 265.44921875 656 c 128,-1,21
 334.1484375 724 334.1484375 724 433.1484375 724 c 0,22,23
 533.1484375 724 533.1484375 724 571.717773438 642 c 0,24,25
 591.975497466 598.930152144 591.975497466 598.930152144 591.975497466 536.824638938 c 0,26,27
 591.975497466 480.688450899 591.975497466 480.688450899 575.424804688 409 c 0,28,29
 546.104492188 282 546.104492188 282 495.403320312 188 c 128,-1,30
 444.701171875 94 444.701171875 94 368.196289062 42 c 128,-1,31
 291.69140625 -10 291.69140625 -10 184.69140625 -10 c 0,0,1
348.112304688 360 m 0,32,33
 387.112304688 360 387.112304688 360 415.961914062 394 c 128,-1,34
 444.811523438 428 444.811523438 428 454.27734375 469 c 0,35,36
 461.265226566 499.269916315 461.265226566 499.269916315 461.265226566 532.084601861 c 0,37,38
 461.265226566 562.939635093 461.265226566 562.939635093 449.672851562 585.5 c 0,39,40
 437.598632812 609 437.598632812 609 407.598632812 609 c 0,41,42
 373.598632812 609 373.598632812 609 346.2109375 577 c 128,-1,43
 318.823242188 545 318.823242188 545 303.81640625 480 c 0,44,45
 296.118455701 446.656414978 296.118455701 446.656414978 296.118455701 422.577785474 c 0,46,47
 296.118455701 360 296.118455701 360 348.112304688 360 c 0,32,33
EndSplineSet
Validated: 524289
Substitution2: "'onum' Oldstyle Figures lookup 33 subtable" nine.osf
Substitution2: "'frac' Diagonal Fractions lookup 27 subtable" nine.numr
Substitution2: "'dnom' Denominators lookup 25 subtable" nine.dnom
Substitution2: "'numr' Numerators lookup 24 subtable" nine.numr
Substitution2: "'sups' Superscript lookup 23 subtable" uni2079
Substitution2: "'subs' Subscript lookup 22 subtable" uni2089
AlternateSubs2: "'aalt' Access All Alternates lookup 1 subtable" uni2079 nine.osf nine.dnom nine.numr uni2089
EndChar

StartChar: colon
Encoding: 58 58 29
Width: 530
Flags: W
LayerCount: 2
Fore
SplineSet
355.577148438 388 m 0,0,1
 316.577148438 388 316.577148438 388 301.040039062 409.5 c 0,2,3
 291.20421842 423.111504636 291.20421842 423.111504636 291.20421842 443.737132632 c 0,4,5
 291.20421842 455.690636317 291.20421842 455.690636317 294.5078125 470 c 0,6,7
 313.669921875 553 313.669921875 553 393.669921875 553 c 0,8,9
 430.669921875 553 430.669921875 553 445.590820312 531 c 0,10,11
 454.896359609 517.279521613 454.896359609 517.279521613 454.896359609 496.946902809 c 0,12,13
 454.896359609 484.677333769 454.896359609 484.677333769 451.5078125 470 c 256,14,15
 442.50390625 431 442.50390625 431 416.540039062 409.5 c 128,-1,16
 390.577148438 388 390.577148438 388 355.577148438 388 c 0,0,1
263.4609375 -11 m 0,17,18
 225.4609375 -11 225.4609375 -11 209.423828125 10.5 c 0,19,20
 199.153973715 24.269022269 199.153973715 24.269022269 199.153973715 45.2154475652 c 0,21,22
 199.153973715 56.9763659764 199.153973715 56.9763659764 202.391601562 71 c 0,23,24
 221.323242188 153 221.323242188 153 301.323242188 153 c 0,25,26
 338.323242188 153 338.323242188 153 353.474609375 132 c 0,27,28
 362.888467927 118.952264627 362.888467927 118.952264627 362.888467927 98.5697796645 c 0,29,30
 362.888467927 86.147170718 362.888467927 86.147170718 359.391601562 71 c 0,31,32
 350.387695312 32 350.387695312 32 324.423828125 10.5 c 128,-1,33
 298.4609375 -11 298.4609375 -11 263.4609375 -11 c 0,17,18
EndSplineSet
Validated: 524289
EndChar

StartChar: semicolon
Encoding: 59 59 30
Width: 530
Flags: W
LayerCount: 2
Fore
SplineSet
368.577148438 388 m 0,0,1
 330.577148438 388 330.577148438 388 315.040039062 409.5 c 0,2,3
 305.20421842 423.111504636 305.20421842 423.111504636 305.20421842 443.737132632 c 0,4,5
 305.20421842 455.690636317 305.20421842 455.690636317 308.5078125 470 c 0,6,7
 327.669921875 553 327.669921875 553 406.669921875 553 c 0,8,9
 443.669921875 553 443.669921875 553 458.590820312 531 c 0,10,11
 467.896359609 517.279521613 467.896359609 517.279521613 467.896359609 496.946902809 c 0,12,13
 467.896359609 484.677333769 467.896359609 484.677333769 464.5078125 470 c 256,14,15
 455.50390625 431 455.50390625 431 429.540039062 409.5 c 128,-1,16
 403.577148438 388 403.577148438 388 368.577148438 388 c 0,0,1
141.447265625 -141 m 1,17,18
 159.913085938 -100 159.913085938 -100 179.725585938 -51 c 128,-1,19
 199.538085938 -2 199.538085938 -2 217.620117188 46 c 128,-1,20
 235.701171875 94 235.701171875 94 249.474609375 132 c 1,21,-1
 375.474609375 132 l 1,22,-1
 378.934570312 121 l 1,23,24
 351.697265625 55 351.697265625 55 316.267578125 -14 c 128,-1,25
 280.837890625 -83 280.837890625 -83 242.447265625 -141 c 1,26,-1
 141.447265625 -141 l 1,17,18
EndSplineSet
Validated: 524289
EndChar

StartChar: less
Encoding: 60 60 31
Width: 530
Flags: W
LayerCount: 2
Fore
SplineSet
492.2421875 118 m 1,0,-1
 127.5703125 323 l 1,1,-1
 143.26953125 391 l 1,2,-1
 603.290039062 599 l 1,3,-1
 576.970703125 485 l 1,4,-1
 280.419921875 357 l 1,5,-1
 518.330078125 231 l 1,6,-1
 492.2421875 118 l 1,0,-1
EndSplineSet
Validated: 524289
EndChar

StartChar: equal
Encoding: 61 61 32
Width: 530
Flags: W
LayerCount: 2
Fore
SplineSet
146.0390625 390 m 1,0,-1
 173.743164062 510 l 1,1,-1
 591.743164062 510 l 1,2,-1
 564.0390625 390 l 1,3,-1
 146.0390625 390 l 1,0,-1
96.40234375 175 m 1,4,-1
 124.106445312 295 l 1,5,-1
 542.106445312 295 l 1,6,-1
 514.40234375 175 l 1,7,-1
 96.40234375 175 l 1,4,-1
EndSplineSet
Validated: 524289
Substitution2: "'sups' Superscript lookup 23 subtable" uni207C
Substitution2: "'subs' Subscript lookup 22 subtable" uni208C
AlternateSubs2: "'aalt' Access All Alternates lookup 1 subtable" uni208C uni207C
EndChar

StartChar: greater
Encoding: 62 62 33
Width: 530
Flags: W
LayerCount: 2
Fore
SplineSet
86.2421875 118 m 1,0,-1
 112.330078125 231 l 1,1,-1
 408.419921875 357 l 1,2,-1
 170.970703125 485 l 1,3,-1
 197.290039062 599 l 1,4,-1
 561.26953125 391 l 1,5,-1
 545.5703125 323 l 1,6,-1
 86.2421875 118 l 1,0,-1
EndSplineSet
Validated: 524289
EndChar

StartChar: question
Encoding: 63 63 34
Width: 530
Flags: W
LayerCount: 2
Fore
SplineSet
248.411132812 266 m 2,0,1
 259.954101562 316 259.954101562 316 283.918945312 350.5 c 128,-1,2
 307.883789062 385 307.883789062 385 353.96484375 420 c 0,3,4
 396.583007812 453 396.583007812 453 418.201171875 479.5 c 128,-1,5
 439.819335938 506 439.819335938 506 447.899414062 541 c 0,6,7
 450.89595857 553.979171568 450.89595857 553.979171568 450.89595857 564.5517875 c 0,8,9
 450.89595857 611 450.89595857 611 393.060546875 611 c 0,10,11
 363.060546875 611 363.060546875 611 330.405273438 599.5 c 128,-1,12
 297.750976562 588 297.750976562 588 256.90234375 567 c 1,13,-1
 234.52734375 665 l 1,14,15
 337.1484375 724 337.1484375 724 429.1484375 724 c 0,16,17
 516.1484375 724 516.1484375 724 555.64453125 678.5 c 0,18,19
 582.342303642 647.743067743 582.342303642 647.743067743 582.342303642 600.30766951 c 0,20,21
 582.342303642 577.569924284 582.342303642 577.569924284 576.208007812 551 c 0,22,23
 566.28125 508 566.28125 508 548.624023438 477 c 128,-1,24
 530.966796875 446 530.966796875 446 503.733398438 419 c 128,-1,25
 476.5 392 476.5 392 437.57421875 362 c 0,26,27
 394.956054688 329 394.956054688 329 378.607421875 308 c 128,-1,28
 362.258789062 287 362.258789062 287 354.640625 254 c 2,29,-1
 349.099609375 230 l 1,30,-1
 240.099609375 230 l 1,31,-1
 248.411132812 266 l 2,0,1
240.4609375 -11 m 0,32,33
 203.4609375 -11 203.4609375 -11 186.923828125 10.5 c 0,34,35
 176.217357092 24.4203724238 176.217357092 24.4203724238 176.217357092 45.6768042253 c 0,36,37
 176.217357092 57.2509081176 176.217357092 57.2509081176 179.391601562 71 c 0,38,39
 198.323242188 153 198.323242188 153 278.323242188 153 c 0,40,41
 314.323242188 153 314.323242188 153 329.974609375 132 c 0,42,43
 339.818209497 118.79248911 339.818209497 118.79248911 339.818209497 98.0694940165 c 0,44,45
 339.818209497 85.8428364007 339.818209497 85.8428364007 336.391601562 71 c 0,46,47
 327.387695312 32 327.387695312 32 301.923828125 10.5 c 128,-1,48
 276.4609375 -11 276.4609375 -11 240.4609375 -11 c 0,32,33
EndSplineSet
Validated: 524289
Substitution2: "'smcp' Lowercase to Small Capitals lookup 35 subtable" question.sc
Substitution2: "'c2sc' Capitals to Small Capitals lookup 34 subtable" question.sc
Substitution2: "'aalt' Access All Alternates lookup 0 subtable" question.sc
EndChar

StartChar: at
Encoding: 64 64 35
Width: 530
Flags: W
LayerCount: 2
Fore
SplineSet
252.453125 -89 m 0,0,1
 164.453125 -89 164.453125 -89 113.841796875 -44 c 128,-1,2
 63.23046875 1 63.23046875 1 50.892578125 84 c 0,3,4
 46.9781382527 110.333391929 46.9781382527 110.333391929 46.9781382527 139.88790753 c 0,5,6
 46.9781382527 203.486024962 46.9781382527 203.486024962 65.1044921875 282 c 0,7,8
 93.732421875 406 93.732421875 406 150.357421875 504 c 128,-1,9
 206.982421875 602 206.982421875 602 284.911132812 658 c 128,-1,10
 362.83984375 714 362.83984375 714 454.83984375 714 c 0,11,12
 528.83984375 714 528.83984375 714 572.681640625 670 c 128,-1,13
 616.5234375 626 616.5234375 626 627.400390625 547.5 c 0,14,15
 630.791503401 523.026018195 630.791503401 523.026018195 630.791503401 496.073415345 c 0,16,17
 630.791503401 436.575871239 630.791503401 436.575871239 614.266601562 365 c 0,18,19
 597.182617188 291 597.182617188 291 569.291992188 233 c 128,-1,20
 541.40234375 175 541.40234375 175 506.16796875 141.5 c 128,-1,21
 470.93359375 108 470.93359375 108 431.93359375 108 c 0,22,23
 397.93359375 108 397.93359375 108 384.358398438 125 c 128,-1,24
 370.783203125 142 370.783203125 142 367.092773438 165 c 1,25,-1
 365.092773438 165 l 1,26,27
 348.013671875 143 348.013671875 143 324.473632812 125.5 c 128,-1,28
 300.93359375 108 300.93359375 108 270.93359375 108 c 0,29,30
 216.93359375 108 216.93359375 108 200.708007812 159 c 0,31,32
 193.548583822 181.503386005 193.548583822 181.503386005 193.548583822 211.405192041 c 0,33,34
 193.548583822 249.270614792 193.548583822 249.270614792 205.029296875 299 c 0,35,36
 227.885742188 398 227.885742188 398 284.96875 459 c 128,-1,37
 342.051757812 520 342.051757812 520 415.051757812 520 c 0,38,39
 444.051757812 520 444.051757812 520 468.588867188 511.5 c 128,-1,40
 493.126953125 503 493.126953125 503 514.048828125 494 c 1,41,-1
 457.336914062 296 l 2,42,43
 454.720703125 289 454.720703125 289 452.989257812 281.5 c 128,-1,44
 451.2578125 274 451.2578125 274 449.1796875 265 c 0,45,46
 440.680357784 228.182433058 440.680357784 228.182433058 440.680357784 210.718106838 c 0,47,48
 440.680357784 190 440.680357784 190 452.865234375 190 c 0,49,50
 466.865234375 190 466.865234375 190 486.5625 238.5 c 128,-1,51
 506.258789062 287 506.258789062 287 523.8046875 363 c 0,52,53
 541.24212023 438.52778828 541.24212023 438.52778828 541.24212023 494.815726397 c 0,54,55
 541.24212023 535.411758034 541.24212023 535.411758034 532.171875 566 c 0,56,57
 510.524414062 639 510.524414062 639 437.524414062 639 c 0,58,59
 377.524414062 639 377.524414062 639 322.366210938 595 c 128,-1,60
 267.208007812 551 267.208007812 551 224.584960938 472.5 c 128,-1,61
 181.961914062 394 181.961914062 394 157.720703125 289 c 0,62,63
 139.297483999 209.199111903 139.297483999 209.199111903 139.297483999 149.173251464 c 0,64,65
 139.297483999 101.635170604 139.297483999 101.635170604 150.852539062 66.5 c 0,66,67
 176.999023438 -13 176.999023438 -13 269.999023438 -13 c 0,68,69
 305.999023438 -13 305.999023438 -13 345.422851562 -2.5 c 128,-1,70
 384.846679688 8 384.846679688 8 428.233398438 27 c 1,71,-1
 410.6875 -49 l 1,72,73
 371.0703125 -69 371.0703125 -69 333.26171875 -79 c 128,-1,74
 295.453125 -89 295.453125 -89 252.453125 -89 c 0,0,1
302.865234375 190 m 0,75,76
 322.865234375 190 322.865234375 190 339.483398438 223 c 128,-1,77
 356.102539062 256 356.102539062 256 376.262695312 326 c 2,78,-1
 406.735351562 432 l 1,79,80
 398.120117188 438 398.120117188 438 386.120117188 438 c 0,81,82
 358.120117188 438 358.120117188 438 332.500976562 398.5 c 128,-1,83
 306.881835938 359 306.881835938 359 292.567382812 297 c 0,84,85
 282.346709798 252.728060849 282.346709798 252.728060849 282.346709798 226.773921662 c 0,86,87
 282.346709798 190 282.346709798 190 302.865234375 190 c 0,75,76
EndSplineSet
Validated: 524289
EndChar

StartChar: A
Encoding: 65 65 36
Width: 530
GlyphClass: 2
Flags: W
AnchorPoint: "Anchor-2" 674.84 714 basechar 0
AnchorPoint: "Anchor-1" 429.84 714 basechar 0
AnchorPoint: "Anchor-0" 265 0 basechar 0
LayerCount: 2
Fore
SplineSet
10 0 m 1,0,-1
 337.532226562 717 l 1,1,-1
 521.532226562 717 l 1,2,-1
 520 0 l 1,3,-1
 386 0 l 1,4,-1
 391.6328125 176 l 1,5,-1
 220.6328125 176 l 1,6,-1
 145 0 l 1,7,-1
 10 0 l 1,0,-1
348.969726562 472 m 2,8,-1
 271.875 294 l 1,9,-1
 394.875 294 l 1,10,-1
 398.969726562 472 l 2,11,12
 399.895507812 502 399.895507812 502 401.70703125 538 c 128,-1,13
 403.518554688 574 403.518554688 574 405.674804688 605 c 1,14,15
 392.518554688 574 392.518554688 574 376.9765625 537 c 128,-1,16
 361.434570312 500 361.434570312 500 348.969726562 472 c 2,8,-1
EndSplineSet
Validated: 1572865
Substitution2: "'c2sc' Capitals to Small Capitals lookup 34 subtable" a.sc
Substitution2: "Single Substitution lookup 32 subtable" ordfeminine
AlternateSubs2: "'aalt' Access All Alternates lookup 1 subtable" ordfeminine a.sc
EndChar

StartChar: B
Encoding: 66 66 37
Width: 530
GlyphClass: 2
Flags: W
AnchorPoint: "Anchor-2" 674.84 714 basechar 0
AnchorPoint: "Anchor-1" 429.84 714 basechar 0
AnchorPoint: "Anchor-0" 265 0 basechar 0
LayerCount: 2
Fore
SplineSet
63 0 m 1,0,-1
 227.83984375 714 l 1,1,-1
 421.83984375 714 l 2,2,3
 532.83984375 714 532.83984375 714 579.796875 670.5 c 0,4,5
 612.239105134 640.446204578 612.239105134 640.446204578 612.239105134 587.719160686 c 0,6,7
 612.239105134 564.12884176 612.239105134 564.12884176 605.745117188 536 c 0,8,9
 591.200195312 473 591.200195312 473 555.235351562 432 c 128,-1,10
 519.26953125 391 519.26953125 391 469.499023438 379 c 1,11,-1
 468.344726562 374 l 1,12,13
 550.60149965 354.82208529 550.60149965 354.82208529 550.60149965 267.381898793 c 0,14,15
 550.60149965 240.836561033 550.60149965 240.836561033 543.020507812 208 c 0,16,17
 519.93359375 108 519.93359375 108 450.966796875 54 c 128,-1,18
 382 0 382 0 285 0 c 2,19,-1
 63 0 l 1,0,-1
356.2734375 430 m 2,20,21
 445.2734375 430 445.2734375 430 464.897460938 515 c 0,22,23
 468.42169007 530.265245899 468.42169007 530.265245899 468.42169007 542.820867003 c 0,24,25
 468.42169007 601 468.42169007 601 392.751953125 601 c 2,26,-1
 329.751953125 601 l 1,27,-1
 290.2734375 430 l 1,28,-1
 356.2734375 430 l 2,20,21
295.473632812 119 m 2,29,30
 340.473632812 119 340.473632812 119 368.245117188 144 c 128,-1,31
 396.016601562 169 396.016601562 169 406.63671875 215 c 0,32,33
 410.707039328 232.630851297 410.707039328 232.630851297 410.707039328 246.954820494 c 0,34,35
 410.707039328 309 410.707039328 309 334.337890625 309 c 2,36,-1
 262.337890625 309 l 1,37,-1
 218.473632812 119 l 1,38,-1
 295.473632812 119 l 2,29,30
EndSplineSet
Validated: 1572865
Substitution2: "'c2sc' Capitals to Small Capitals lookup 34 subtable" b.sc
Substitution2: "'aalt' Access All Alternates lookup 0 subtable" b.sc
EndChar

StartChar: C
Encoding: 67 67 38
Width: 530
GlyphClass: 2
Flags: W
AnchorPoint: "Anchor-2" 674.84 714 basechar 0
AnchorPoint: "Anchor-1" 486.84 714 basechar 0
AnchorPoint: "Anchor-0" 310 0 basechar 0
LayerCount: 2
Fore
SplineSet
320.999023438 -13 m 0,0,1
 181.999023438 -13 181.999023438 -13 131.892578125 84 c 0,2,3
 103.867948319 138.253341182 103.867948319 138.253341182 103.867948319 215.656161818 c 0,4,5
 103.867948319 276.642488063 103.867948319 276.642488063 121.265625 352 c 0,6,7
 146.661132812 462 146.661132812 462 200.553710938 546 c 128,-1,8
 254.447265625 630 254.447265625 630 331.913085938 677.5 c 128,-1,9
 409.379882812 725 409.379882812 725 504.379882812 725 c 0,10,11
 550.379882812 725 550.379882812 725 588.83984375 714 c 128,-1,12
 627.30078125 703 627.30078125 703 661.221679688 681 c 1,13,-1
 593.594726562 570 l 1,14,15
 568.2890625 586 568.2890625 586 540.250976562 594.5 c 128,-1,16
 512.213867188 603 512.213867188 603 481.213867188 603 c 0,17,18
 425.213867188 603 425.213867188 603 380.826171875 571 c 128,-1,19
 336.4375 539 336.4375 539 305.778320312 482 c 128,-1,20
 275.119140625 425 275.119140625 425 258.49609375 353 c 0,21,22
 244.695338746 293.221724524 244.695338746 293.221724524 244.695338746 248.205835107 c 0,23,24
 244.695338746 200.596864502 244.695338746 200.596864502 260.131835938 169.5 c 0,25,26
 290.165039062 109 290.165039062 109 370.165039062 109 c 0,27,28
 404.165039062 109 404.165039062 109 437.857421875 118.5 c 128,-1,29
 471.55078125 128 471.55078125 128 510.70703125 146 c 1,30,-1
 482.079101562 22 l 1,31,32
 406.857078758 -13.027027027 406.857078758 -13.027027027 325.522336816 -13.027027027 c 0,33,34
 323.263038429 -13.027027027 323.263038429 -13.027027027 320.999023438 -13 c 0,0,1
EndSplineSet
Validated: 1572865
Substitution2: "'c2sc' Capitals to Small Capitals lookup 34 subtable" c.sc
Substitution2: "'aalt' Access All Alternates lookup 0 subtable" c.sc
EndChar

StartChar: D
Encoding: 68 68 39
Width: 530
GlyphClass: 2
Flags: W
AnchorPoint: "Anchor-3" 351.42 357 basechar 0
AnchorPoint: "Anchor-2" 694.84 714 basechar 0
AnchorPoint: "Anchor-1" 424.84 714 basechar 0
AnchorPoint: "Anchor-0" 223 0 basechar 0
LayerCount: 2
Fore
SplineSet
38 0 m 1,0,-1
 202.83984375 714 l 1,1,-1
 397.83984375 714 l 2,2,3
 527.83984375 714 527.83984375 714 579.408203125 625.5 c 0,4,5
 608.765125743 575.118570705 608.765125743 575.118570705 608.765125743 498.648569462 c 0,6,7
 608.765125743 440.791394905 608.765125743 440.791394905 591.959960938 368 c 0,8,9
 550.865234375 190 550.865234375 190 454.432617188 95 c 128,-1,10
 358 0 358 0 223 0 c 2,11,-1
 38 0 l 1,0,-1
242.704101562 120 m 2,12,13
 322.704101562 120 322.704101562 120 373.940429688 179.5 c 128,-1,14
 425.177734375 239 425.177734375 239 453.8046875 363 c 0,15,16
 468.743823332 427.70735811 468.743823332 427.70735811 468.743823332 473.539995587 c 0,17,18
 468.743823332 513.412435504 468.743823332 513.412435504 457.4375 539 c 0,19,20
 433.135742188 594 433.135742188 594 360.135742188 594 c 2,21,-1
 308.135742188 594 l 1,22,-1
 198.704101562 120 l 1,23,-1
 242.704101562 120 l 2,12,13
EndSplineSet
Validated: 524289
Substitution2: "'c2sc' Capitals to Small Capitals lookup 34 subtable" d.sc
Substitution2: "'aalt' Access All Alternates lookup 0 subtable" d.sc
EndChar

StartChar: E
Encoding: 69 69 40
Width: 530
GlyphClass: 2
Flags: W
AnchorPoint: "Anchor-2" 674.84 714 basechar 0
AnchorPoint: "Anchor-1" 434.84 714 basechar 0
AnchorPoint: "Anchor-0" 269 0 basechar 0
LayerCount: 2
Fore
SplineSet
63 0 m 1,0,-1
 227.83984375 714 l 1,1,-1
 638.83984375 714 l 1,2,-1
 610.905273438 593 l 1,3,-1
 330.905273438 593 l 1,4,-1
 292.119140625 425 l 1,5,-1
 555.119140625 425 l 1,6,-1
 527.18359375 304 l 1,7,-1
 264.18359375 304 l 1,8,-1
 221.934570312 121 l 1,9,-1
 501.934570312 121 l 1,10,-1
 474 0 l 1,11,-1
 63 0 l 1,0,-1
EndSplineSet
Validated: 1572865
Substitution2: "'c2sc' Capitals to Small Capitals lookup 34 subtable" e.sc
Substitution2: "'aalt' Access All Alternates lookup 0 subtable" e.sc
EndChar

StartChar: F
Encoding: 70 70 41
Width: 530
GlyphClass: 2
Flags: W
AnchorPoint: "Anchor-2" 674.84 714 basechar 0
AnchorPoint: "Anchor-1" 439.84 714 basechar 0
AnchorPoint: "Anchor-0" 275 0 basechar 0
LayerCount: 2
Fore
SplineSet
63 0 m 1,0,-1
 227.83984375 714 l 1,1,-1
 638.83984375 714 l 1,2,-1
 610.905273438 593 l 1,3,-1
 330.905273438 593 l 1,4,-1
 285.654296875 397 l 1,5,-1
 549.654296875 397 l 1,6,-1
 521.950195312 277 l 1,7,-1
 257.950195312 277 l 1,8,-1
 194 0 l 1,9,-1
 63 0 l 1,0,-1
EndSplineSet
Validated: 1572865
Substitution2: "'c2sc' Capitals to Small Capitals lookup 34 subtable" f.sc
Substitution2: "'aalt' Access All Alternates lookup 0 subtable" f.sc
EndChar

StartChar: G
Encoding: 71 71 42
Width: 530
GlyphClass: 2
Flags: W
AnchorPoint: "Anchor-2" 674.84 714 basechar 0
AnchorPoint: "Anchor-1" 459.84 714 basechar 0
AnchorPoint: "Anchor-0" 300 0 basechar 0
LayerCount: 2
Fore
SplineSet
308.69140625 -10 m 0,0,1
 205.69140625 -10 205.69140625 -10 152.580078125 35 c 128,-1,2
 99.4697265625 80 99.4697265625 80 88.9384765625 160 c 0,3,4
 85.8117262258 183.754371472 85.8117262258 183.754371472 85.8117262258 209.977424911 c 0,5,6
 85.8117262258 272.068401487 85.8117262258 272.068401487 103.341796875 348 c 0,7,8
 144.8984375 528 144.8984375 528 242.5234375 626 c 128,-1,9
 340.1484375 724 340.1484375 724 479.1484375 724 c 0,10,11
 573.1484375 724 573.1484375 724 646.759765625 679 c 1,12,-1
 577.90234375 567 l 1,13,14
 551.51953125 587 551.51953125 587 522.866210938 595 c 128,-1,15
 494.213867188 603 494.213867188 603 466.213867188 603 c 0,16,17
 380.213867188 603 380.213867188 603 323.822265625 538.5 c 128,-1,18
 267.431640625 474 267.431640625 474 239.49609375 353 c 0,19,20
 224.956961166 290.021693035 224.956961166 290.021693035 224.956961166 239.185020198 c 0,21,22
 224.956961166 233.517044528 224.956961166 233.517044528 225.137695312 228 c 0,23,24
 226.940429688 173 226.940429688 173 251.783203125 142 c 128,-1,25
 276.625976562 111 276.625976562 111 326.625976562 111 c 0,26,27
 344.625976562 111 344.625976562 111 363.319335938 114 c 128,-1,28
 382.01171875 117 382.01171875 117 399.704101562 120 c 1,29,-1
 437.797851562 285 l 1,30,-1
 349.797851562 285 l 1,31,-1
 376.80859375 402 l 1,32,-1
 584.80859375 402 l 1,33,-1
 498.463867188 28 l 1,34,35
 445.846679688 8 445.846679688 8 401.26953125 -1 c 128,-1,36
 356.69140625 -10 356.69140625 -10 308.69140625 -10 c 0,0,1
EndSplineSet
Validated: 1572865
Substitution2: "'c2sc' Capitals to Small Capitals lookup 34 subtable" g.sc
Substitution2: "'aalt' Access All Alternates lookup 0 subtable" g.sc
EndChar

StartChar: H
Encoding: 72 72 43
Width: 530
GlyphClass: 2
Flags: W
AnchorPoint: "Anchor-3" 350.652 371 basechar 0
AnchorPoint: "Anchor-2" 694.84 714 basechar 0
AnchorPoint: "Anchor-1" 429.84 714 basechar 0
AnchorPoint: "Anchor-0" 265 0 basechar 0
LayerCount: 2
Fore
SplineSet
38 0 m 1,0,-1
 202.83984375 714 l 1,1,-1
 335.83984375 714 l 1,2,-1
 270.735351562 432 l 1,3,-1
 458.735351562 432 l 1,4,-1
 523.83984375 714 l 1,5,-1
 656.83984375 714 l 1,6,-1
 492 0 l 1,7,-1
 359 0 l 1,8,-1
 430.107421875 308 l 1,9,-1
 242.107421875 308 l 1,10,-1
 171 0 l 1,11,-1
 38 0 l 1,0,-1
EndSplineSet
Validated: 524289
Substitution2: "'c2sc' Capitals to Small Capitals lookup 34 subtable" h.sc
Substitution2: "'aalt' Access All Alternates lookup 0 subtable" h.sc
EndChar

StartChar: I
Encoding: 73 73 44
Width: 530
GlyphClass: 2
Flags: W
AnchorPoint: "Anchor-2" 674.84 714 basechar 0
AnchorPoint: "Anchor-1" 429.84 714 basechar 0
AnchorPoint: "Anchor-0" 265 0 basechar 0
LayerCount: 2
Fore
SplineSet
69 0 m 1,0,-1
 91.85546875 99 l 1,1,-1
 227.087890625 113 l 1,2,-1
 339.982421875 602 l 1,3,-1
 210.984375 615 l 1,4,-1
 233.83984375 714 l 1,5,-1
 625.83984375 714 l 1,6,-1
 602.984375 615 l 1,7,-1
 467.982421875 602 l 1,8,-1
 355.087890625 113 l 1,9,-1
 483.85546875 99 l 1,10,-1
 461 0 l 1,11,-1
 69 0 l 1,0,-1
EndSplineSet
Validated: 1572865
Substitution2: "'c2sc' Capitals to Small Capitals lookup 34 subtable" i.sc
Substitution2: "'aalt' Access All Alternates lookup 0 subtable" i.sc
EndChar

StartChar: J
Encoding: 74 74 45
Width: 530
GlyphClass: 2
Flags: W
AnchorPoint: "Anchor-2" 674.84 714 basechar 0
AnchorPoint: "Anchor-1" 532.84 714 basechar 0
AnchorPoint: "Anchor-0" 265 0 basechar 0
LayerCount: 2
Fore
SplineSet
196.69140625 -10 m 0,0,1
 163.69140625 -10 163.69140625 -10 127.345703125 -5 c 128,-1,2
 91 0 91 0 59.7705078125 12 c 1,3,-1
 87.244140625 131 l 1,4,5
 120.2421875 118 120.2421875 118 150.587890625 113 c 128,-1,6
 180.93359375 108 180.93359375 108 206.93359375 108 c 0,7,8
 276.93359375 108 276.93359375 108 310.283203125 142 c 128,-1,9
 343.6328125 176 343.6328125 176 360.716796875 250 c 2,10,-1
 467.83984375 714 l 1,11,-1
 598.83984375 714 l 1,12,-1
 488.25390625 235 l 2,13,14
 461.2421875 118 461.2421875 118 390.466796875 54 c 128,-1,15
 319.69140625 -10 319.69140625 -10 196.69140625 -10 c 0,0,1
EndSplineSet
Validated: 1572865
Substitution2: "'c2sc' Capitals to Small Capitals lookup 34 subtable" j.sc
Substitution2: "'aalt' Access All Alternates lookup 0 subtable" j.sc
EndChar

StartChar: K
Encoding: 75 75 46
Width: 530
GlyphClass: 2
Flags: W
AnchorPoint: "Anchor-2" 674.84 714 basechar 0
AnchorPoint: "Anchor-1" 429.84 714 basechar 0
AnchorPoint: "Anchor-0" 272 0 basechar 0
LayerCount: 2
Fore
SplineSet
38 0 m 1,0,-1
 202.83984375 714 l 1,1,-1
 334.83984375 714 l 1,2,-1
 256.806640625 376 l 1,3,4
 274.80859375 402 274.80859375 402 291.887695312 424 c 128,-1,5
 308.966796875 446 308.966796875 446 332.662109375 475 c 2,6,-1
 528.83984375 714 l 1,7,-1
 679.83984375 714 l 1,8,-1
 414.731445312 393 l 1,9,-1
 515 0 l 1,10,-1
 360 0 l 1,11,-1
 288.413085938 292 l 1,12,-1
 225.408203125 240 l 1,13,-1
 170 0 l 1,14,-1
 38 0 l 1,0,-1
EndSplineSet
Validated: 1572865
Substitution2: "'c2sc' Capitals to Small Capitals lookup 34 subtable" k.sc
Substitution2: "'aalt' Access All Alternates lookup 0 subtable" k.sc
EndChar

StartChar: L
Encoding: 76 76 47
Width: 530
GlyphClass: 2
Flags: W
AnchorPoint: "Anchor-3" 347.42 357 basechar 0
AnchorPoint: "Anchor-2" 559.84 714 basechar 0
AnchorPoint: "Anchor-1" 302.84 714 basechar 0
AnchorPoint: "Anchor-0" 288 0 basechar 0
LayerCount: 2
Fore
SplineSet
73 0 m 1,0,-1
 237.83984375 714 l 1,1,-1
 370.83984375 714 l 1,2,-1
 233.704101562 120 l 1,3,-1
 501.704101562 120 l 1,4,-1
 474 0 l 1,5,-1
 73 0 l 1,0,-1
EndSplineSet
Validated: 524289
Substitution2: "'c2sc' Capitals to Small Capitals lookup 34 subtable" l.sc
Substitution2: "'aalt' Access All Alternates lookup 0 subtable" l.sc
EndChar

StartChar: M
Encoding: 77 77 48
Width: 530
GlyphClass: 2
Flags: W
AnchorPoint: "Anchor-2" 694.84 714 basechar 0
AnchorPoint: "Anchor-1" 432.84 714 basechar 0
AnchorPoint: "Anchor-0" 265 0 basechar 0
LayerCount: 2
Fore
SplineSet
26 0 m 1,0,-1
 190.83984375 714 l 1,1,-1
 384.83984375 714 l 1,2,-1
 332.03125 312 l 1,3,-1
 339.03125 312 l 1,4,-1
 475.83984375 714 l 1,5,-1
 668.83984375 714 l 1,6,-1
 504 0 l 1,7,-1
 381 0 l 1,8,-1
 422.787109375 181 l 2,9,10
 432.021484375 221 432.021484375 221 446.295898438 272 c 128,-1,11
 460.5703125 323 460.5703125 323 475.69140625 375.5 c 128,-1,12
 490.811523438 428 490.811523438 428 504.662109375 475 c 128,-1,13
 518.513671875 522 518.513671875 522 528.516601562 554.5 c 128,-1,14
 538.51953125 587 538.51953125 587 541.828125 597 c 1,15,-1
 534.828125 597 l 1,16,-1
 370.6328125 176 l 1,17,-1
 237.6328125 176 l 1,18,-1
 267.828125 597 l 1,19,-1
 260.828125 597 l 1,20,21
 259.2890625 586 259.2890625 586 254.28515625 553.5 c 128,-1,22
 249.282226562 521 249.282226562 521 241.931640625 474 c 128,-1,23
 234.581054688 427 234.581054688 427 225.844726562 374 c 128,-1,24
 217.108398438 321 217.108398438 321 207.103515625 269 c 128,-1,25
 197.098632812 217 197.098632812 217 187.170898438 174 c 2,26,-1
 147 0 l 1,27,-1
 26 0 l 1,0,-1
EndSplineSet
Validated: 1572865
Substitution2: "'c2sc' Capitals to Small Capitals lookup 34 subtable" m.sc
Substitution2: "'aalt' Access All Alternates lookup 0 subtable" m.sc
EndChar

StartChar: N
Encoding: 78 78 49
Width: 530
GlyphClass: 2
Flags: W
AnchorPoint: "Anchor-2" 694.84 714 basechar 0
AnchorPoint: "Anchor-1" 434.84 714 basechar 0
AnchorPoint: "Anchor-0" 265 0 basechar 0
LayerCount: 2
Fore
SplineSet
38 0 m 1,0,-1
 202.83984375 714 l 1,1,-1
 398.83984375 714 l 1,2,-1
 406.3984375 136 l 1,3,-1
 412.3984375 136 l 1,4,5
 415.862304688 164 415.862304688 164 421.904296875 201 c 128,-1,6
 427.946289062 238 427.946289062 238 434.334960938 276.5 c 128,-1,7
 440.723632812 315 440.723632812 315 446.688476562 349.5 c 128,-1,8
 452.653320312 384 452.653320312 384 457.732421875 406 c 2,9,-1
 528.83984375 714 l 1,10,-1
 656.83984375 714 l 1,11,-1
 492 0 l 1,12,-1
 301 0 l 1,13,-1
 292.365234375 582 l 1,14,-1
 286.365234375 582 l 1,15,16
 280.130859375 542 280.130859375 542 273.087890625 498.5 c 128,-1,17
 266.044921875 455 266.044921875 455 258.65625 416.5 c 128,-1,18
 251.268554688 378 251.268554688 378 245.727539062 354 c 2,19,-1
 164 0 l 1,20,-1
 38 0 l 1,0,-1
EndSplineSet
Validated: 1572865
Substitution2: "'c2sc' Capitals to Small Capitals lookup 34 subtable" n.sc
Substitution2: "'aalt' Access All Alternates lookup 0 subtable" n.sc
EndChar

StartChar: O
Encoding: 79 79 50
Width: 530
GlyphClass: 2
Flags: W
AnchorPoint: "Anchor-3" 347.42 357 basechar 0
AnchorPoint: "Anchor-2" 694.84 714 basechar 0
AnchorPoint: "Anchor-1" 429.84 714 basechar 0
AnchorPoint: "Anchor-0" 265 0 basechar 0
LayerCount: 2
Fore
SplineSet
262.921875 -9 m 0,0,1
 179.921875 -9 179.921875 -9 136.811523438 36 c 128,-1,2
 93.7001953125 81 93.7001953125 81 86.7470703125 163.5 c 0,3,4
 85.283860228 180.861234261 85.283860228 180.861234261 85.283860228 199.573150599 c 0,5,6
 85.283860228 269.779629958 85.283860228 269.779629958 105.881835938 359 c 0,7,8
 146.9765625 537 146.9765625 537 229.29296875 631.5 c 128,-1,9
 311.610351562 726 311.610351562 726 432.610351562 726 c 0,10,11
 556.610351562 726 556.610351562 726 592.870117188 627.5 c 0,12,13
 610.228799144 580.343704468 610.228799144 580.343704468 610.228799144 516.570704037 c 0,14,15
 610.228799144 447.13475598 610.228799144 447.13475598 589.650390625 358 c 0,16,17
 563.5625 245 563.5625 245 518.631835938 163 c 128,-1,18
 473.700195312 81 473.700195312 81 409.311523438 36 c 128,-1,19
 344.921875 -9 344.921875 -9 262.921875 -9 c 0,0,1
290.857421875 112 m 0,20,21
 345.857421875 112 345.857421875 112 385.055664062 173.5 c 128,-1,22
 424.25390625 235 424.25390625 235 452.650390625 358 c 0,23,24
 473.649879705 448.956097801 473.649879705 448.956097801 473.649879705 506.290675943 c 0,25,26
 473.649879705 527.750400118 473.649879705 527.750400118 470.708007812 544.5 c 0,27,28
 459.90625 606 459.90625 606 404.90625 606 c 256,29,30
 349.90625 606 349.90625 606 310.24609375 542.5 c 128,-1,31
 270.5859375 479 270.5859375 479 242.650390625 358 c 256,32,33
 222.117760058 269.061875273 222.117760058 269.061875273 222.117760058 211.729133836 c 0,34,35
 222.117760058 191.060885988 222.117760058 191.060885988 224.786132812 174.5 c 0,36,37
 234.857421875 112 234.857421875 112 290.857421875 112 c 0,20,21
EndSplineSet
Validated: 524289
Substitution2: "'c2sc' Capitals to Small Capitals lookup 34 subtable" o.sc
Substitution2: "Single Substitution lookup 32 subtable" ordmasculine
AlternateSubs2: "'aalt' Access All Alternates lookup 1 subtable" ordmasculine o.sc
EndChar

StartChar: P
Encoding: 80 80 51
Width: 530
GlyphClass: 2
Flags: W
AnchorPoint: "Anchor-2" 694.84 714 basechar 0
AnchorPoint: "Anchor-1" 429.84 714 basechar 0
AnchorPoint: "Anchor-0" 265 0 basechar 0
LayerCount: 2
Fore
SplineSet
63 0 m 1,0,-1
 227.83984375 714 l 1,1,-1
 436.83984375 714 l 2,2,3
 548.83984375 714 548.83984375 714 591.180664062 657 c 0,4,5
 617.920059929 621.002097566 617.920059929 621.002097566 617.920059929 565.061920899 c 0,6,7
 617.920059929 532.424990168 617.920059929 532.424990168 608.818359375 493 c 0,8,9
 583.883789062 385 583.883789062 385 512.877929688 320 c 128,-1,10
 441.87109375 255 441.87109375 255 323.87109375 255 c 2,11,-1
 252.87109375 255 l 1,12,-1
 194 0 l 1,13,-1
 63 0 l 1,0,-1
334.575195312 375 m 2,14,15
 387.575195312 375 387.575195312 375 423.693359375 401.5 c 128,-1,16
 459.811523438 428 459.811523438 428 474.125 490 c 0,17,18
 478.896035683 510.664148907 478.896035683 510.664148907 478.896035683 527.154875 c 0,19,20
 478.896035683 553.758070317 478.896035683 553.758070317 466.479492188 569.5 c 0,21,22
 446.366210938 595 446.366210938 595 398.366210938 595 c 2,23,-1
 331.366210938 595 l 1,24,-1
 280.575195312 375 l 1,25,-1
 334.575195312 375 l 2,14,15
EndSplineSet
Validated: 1572865
Substitution2: "'c2sc' Capitals to Small Capitals lookup 34 subtable" p.sc
Substitution2: "'aalt' Access All Alternates lookup 0 subtable" p.sc
EndChar

StartChar: Q
Encoding: 81 81 52
Width: 530
GlyphClass: 2
Flags: W
AnchorPoint: "Anchor-3" 347.42 357 basechar 0
AnchorPoint: "Anchor-2" 694.84 714 basechar 0
AnchorPoint: "Anchor-1" 429.84 714 basechar 0
AnchorPoint: "Anchor-0" 214.209 -220 basechar 0
LayerCount: 2
Fore
SplineSet
262.921875 -9 m 0,0,1
 179.921875 -9 179.921875 -9 136.811523438 36 c 128,-1,2
 93.7001953125 81 93.7001953125 81 86.7470703125 163.5 c 0,3,4
 85.283860228 180.861234261 85.283860228 180.861234261 85.283860228 199.573150599 c 0,5,6
 85.283860228 269.779629958 85.283860228 269.779629958 105.881835938 359 c 0,7,8
 146.9765625 537 146.9765625 537 229.29296875 631.5 c 128,-1,9
 311.610351562 726 311.610351562 726 432.610351562 726 c 0,10,11
 556.610351562 726 556.610351562 726 592.870117188 627.5 c 0,12,13
 610.228799144 580.343704468 610.228799144 580.343704468 610.228799144 516.570704037 c 0,14,15
 610.228799144 447.13475598 610.228799144 447.13475598 589.650390625 358 c 0,16,17
 564.254882812 248 564.254882812 248 520.439453125 166.5 c 128,-1,18
 476.624023438 85 476.624023438 85 415.465820312 41 c 1,19,-1
 459.443359375 -180 l 1,20,-1
 312.443359375 -180 l 1,21,-1
 289.383789062 -7 l 1,22,23
 275.921875 -9 275.921875 -9 262.921875 -9 c 0,0,1
290.857421875 112 m 0,24,25
 345.857421875 112 345.857421875 112 385.055664062 173.5 c 128,-1,26
 424.25390625 235 424.25390625 235 452.650390625 358 c 0,27,28
 473.649879705 448.956097801 473.649879705 448.956097801 473.649879705 506.290675943 c 0,29,30
 473.649879705 527.750400118 473.649879705 527.750400118 470.708007812 544.5 c 0,31,32
 459.90625 606 459.90625 606 404.90625 606 c 256,33,34
 349.90625 606 349.90625 606 310.24609375 542.5 c 128,-1,35
 270.5859375 479 270.5859375 479 242.650390625 358 c 256,36,37
 222.117760058 269.061875273 222.117760058 269.061875273 222.117760058 211.729133836 c 0,38,39
 222.117760058 191.060885988 222.117760058 191.060885988 224.786132812 174.5 c 0,40,41
 234.857421875 112 234.857421875 112 290.857421875 112 c 0,24,25
EndSplineSet
Validated: 524289
Substitution2: "'c2sc' Capitals to Small Capitals lookup 34 subtable" q.sc
Substitution2: "'aalt' Access All Alternates lookup 0 subtable" q.sc
EndChar

StartChar: R
Encoding: 82 82 53
Width: 530
GlyphClass: 2
Flags: W
AnchorPoint: "Anchor-2" 674.84 714 basechar 0
AnchorPoint: "Anchor-1" 429.84 714 basechar 0
AnchorPoint: "Anchor-0" 282 0 basechar 0
LayerCount: 2
Fore
SplineSet
63 0 m 1,0,-1
 227.83984375 714 l 1,1,-1
 411.83984375 714 l 2,2,3
 530.83984375 714 530.83984375 714 579.603515625 661 c 0,4,5
 612.487993737 625.25940931 612.487993737 625.25940931 612.487993737 567.236119681 c 0,6,7
 612.487993737 539.216221691 612.487993737 539.216221691 604.819335938 506 c 0,8,9
 572.498046875 366 572.498046875 366 444.645507812 306 c 1,10,-1
 519 0 l 1,11,-1
 374 0 l 1,12,-1
 320.02734375 273 l 1,13,-1
 259.02734375 273 l 1,14,-1
 196 0 l 1,15,-1
 63 0 l 1,0,-1
334.5 392 m 2,16,17
 441.5 392 441.5 392 465.279296875 495 c 0,18,19
 469.45173955 513.072313895 469.45173955 513.072313895 469.45173955 527.910879973 c 0,20,21
 469.45173955 596 469.45173955 596 381.59765625 596 c 2,22,-1
 333.59765625 596 l 1,23,-1
 286.5 392 l 1,24,-1
 334.5 392 l 2,16,17
EndSplineSet
Validated: 1572865
Substitution2: "'c2sc' Capitals to Small Capitals lookup 34 subtable" r.sc
Substitution2: "'aalt' Access All Alternates lookup 0 subtable" r.sc
EndChar

StartChar: S
Encoding: 83 83 54
Width: 530
GlyphClass: 2
Flags: W
AnchorPoint: "Anchor-2" 674.84 714 basechar 0
AnchorPoint: "Anchor-1" 440.84 714 basechar 0
AnchorPoint: "Anchor-0" 265 0 basechar 0
LayerCount: 2
Fore
SplineSet
234.69140625 -10 m 0,0,1
 186.69140625 -10 186.69140625 -10 143.5 0 c 128,-1,2
 100.30859375 10 100.30859375 10 62.3876953125 32 c 1,3,-1
 93.0927734375 165 l 1,4,5
 135.321289062 140 135.321289062 140 175.973632812 125.5 c 128,-1,6
 216.625976562 111 216.625976562 111 263.625976562 111 c 0,7,8
 369.625976562 111 369.625976562 111 388.327148438 192 c 0,9,10
 391.161403523 204.276976342 391.161403523 204.276976342 391.161403523 214.795504289 c 0,11,12
 391.161403523 229.980034622 391.161403523 229.980034622 385.254882812 241.5 c 0,13,14
 375.256835938 261 375.256835938 261 350.681640625 278 c 128,-1,15
 326.106445312 295 326.106445312 295 289.185546875 317 c 0,16,17
 254.264648438 339 254.264648438 339 223.651367188 364.5 c 128,-1,18
 193.0390625 390 193.0390625 390 178.811523438 428 c 0,19,20
 171.603240101 447.25375626 171.603240101 447.25375626 171.603240101 472.155405085 c 0,21,22
 171.603240101 496.40066778 171.603240101 496.40066778 178.436523438 526 c 0,23,24
 199.4453125 617 199.4453125 617 272.296875 670.5 c 128,-1,25
 345.1484375 724 345.1484375 724 455.1484375 724 c 0,26,27
 498.1484375 724 498.1484375 724 541.955078125 714.5 c 128,-1,28
 585.76171875 705 585.76171875 705 628.221679688 681 c 1,29,-1
 557.671875 566 l 1,30,31
 520.51953125 587 520.51953125 587 489.366210938 595 c 128,-1,32
 458.213867188 603 458.213867188 603 429.213867188 603 c 0,33,34
 333.213867188 603 333.213867188 603 315.8984375 528 c 0,35,36
 313.249827351 516.527840286 313.249827351 516.527840286 313.249827351 506.698855019 c 0,37,38
 313.249827351 491.681553286 313.249827351 491.681553286 319.432617188 480.5 c 0,39,40
 329.661132812 462 329.661132812 462 354.466796875 446 c 128,-1,41
 379.2734375 430 379.2734375 430 416.962890625 407 c 0,42,43
 461.729492188 380 461.729492188 380 491.112304688 353.5 c 128,-1,44
 520.494140625 327 520.494140625 327 530.797851562 291.5 c 0,45,46
 535.508667891 275.27107703 535.508667891 275.27107703 535.508667891 255.384852759 c 0,47,48
 535.508667891 231.770903735 535.508667891 231.770903735 528.866210938 203 c 0,49,50
 506.010742188 104 506.010742188 104 427.850585938 47 c 128,-1,51
 349.69140625 -10 349.69140625 -10 234.69140625 -10 c 0,0,1
EndSplineSet
Validated: 1572865
Substitution2: "'c2sc' Capitals to Small Capitals lookup 34 subtable" s.sc
Substitution2: "'aalt' Access All Alternates lookup 0 subtable" s.sc
EndChar

StartChar: T
Encoding: 84 84 55
Width: 530
GlyphClass: 2
Flags: W
AnchorPoint: "Anchor-3" 347.42 357 basechar 0
AnchorPoint: "Anchor-2" 674.84 714 basechar 0
AnchorPoint: "Anchor-1" 429.84 714 basechar 0
AnchorPoint: "Anchor-0" 265 0 basechar 0
LayerCount: 2
Fore
SplineSet
198 0 m 1,0,-1
 334.905273438 593 l 1,1,-1
 163.905273438 593 l 1,2,-1
 191.83984375 714 l 1,3,-1
 668.83984375 714 l 1,4,-1
 640.905273438 593 l 1,5,-1
 467.905273438 593 l 1,6,-1
 331 0 l 1,7,-1
 198 0 l 1,0,-1
EndSplineSet
Validated: 524289
Substitution2: "'c2sc' Capitals to Small Capitals lookup 34 subtable" t.sc
Substitution2: "'aalt' Access All Alternates lookup 0 subtable" t.sc
EndChar

StartChar: U
Encoding: 85 85 56
Width: 530
GlyphClass: 2
Flags: W
AnchorPoint: "Anchor-2" 674.84 714 basechar 0
AnchorPoint: "Anchor-1" 429.84 714 basechar 0
AnchorPoint: "Anchor-0" 265 0 basechar 0
LayerCount: 2
Fore
SplineSet
259.69140625 -10 m 0,0,1
 150.69140625 -10 150.69140625 -10 107.04296875 50 c 0,2,3
 79.5417949229 87.8044998308 79.5417949229 87.8044998308 79.5417949229 145.855719267 c 0,4,5
 79.5417949229 179.938324687 79.5417949229 179.938324687 89.021484375 221 c 2,6,-1
 202.83984375 714 l 1,7,-1
 335.83984375 714 l 1,8,-1
 227.100585938 243 l 2,9,10
 218.620151348 206.266231041 218.620151348 206.266231041 218.620151348 180.334708601 c 0,11,12
 218.620151348 155.439167316 218.620151348 155.439167316 226.436523438 140.5 c 0,13,14
 242.395507812 110 242.395507812 110 289.395507812 110 c 0,15,16
 339.395507812 110 339.395507812 110 369.052734375 141 c 128,-1,17
 398.708984375 172 398.708984375 172 415.33203125 244 c 2,18,-1
 523.83984375 714 l 1,19,-1
 656.83984375 714 l 1,20,-1
 541.8671875 216 l 2,21,22
 517.625976562 111 517.625976562 111 445.659179688 50.5 c 128,-1,23
 373.69140625 -10 373.69140625 -10 259.69140625 -10 c 0,0,1
EndSplineSet
Validated: 1572865
Substitution2: "'c2sc' Capitals to Small Capitals lookup 34 subtable" u.sc
Substitution2: "'aalt' Access All Alternates lookup 0 subtable" u.sc
EndChar

StartChar: V
Encoding: 86 86 57
Width: 530
GlyphClass: 2
Flags: W
AnchorPoint: "Anchor-2" 674.84 714 basechar 0
AnchorPoint: "Anchor-1" 429.84 714 basechar 0
AnchorPoint: "Anchor-0" 265 0 basechar 0
LayerCount: 2
Fore
SplineSet
190 0 m 1,0,-1
 174.83984375 714 l 1,1,-1
 314.83984375 714 l 1,2,-1
 305.64453125 293 l 2,3,4
 305.795898438 272 305.795898438 272 303.870117188 242 c 128,-1,5
 301.944335938 212 301.944335938 212 300.017578125 182 c 128,-1,6
 298.091796875 152 298.091796875 152 296.244140625 131 c 1,7,-1
 299.244140625 131 l 1,8,9
 307.091796875 152 307.091796875 152 318.517578125 182 c 128,-1,10
 329.944335938 212 329.944335938 212 342.254882812 241.5 c 128,-1,11
 354.565429688 271 354.565429688 271 363.64453125 293 c 2,12,-1
 544.83984375 714 l 1,13,-1
 684.83984375 714 l 1,14,-1
 340 0 l 1,15,-1
 190 0 l 1,0,-1
EndSplineSet
Validated: 1572897
Substitution2: "'c2sc' Capitals to Small Capitals lookup 34 subtable" v.sc
Substitution2: "'aalt' Access All Alternates lookup 0 subtable" v.sc
EndChar

StartChar: W
Encoding: 87 87 58
Width: 530
GlyphClass: 2
Flags: W
AnchorPoint: "Anchor-2" 674.84 714 basechar 0
AnchorPoint: "Anchor-1" 429.84 714 basechar 0
AnchorPoint: "Anchor-0" 265 0 basechar 0
LayerCount: 2
Fore
SplineSet
46 0 m 1,0,-1
 174.83984375 714 l 1,1,-1
 292.83984375 714 l 1,2,3
 267.440429688 565 267.440429688 565 246.314453125 460.5 c 128,-1,4
 225.189453125 356 225.189453125 356 216.416015625 318 c 0,5,6
 203.487304688 262 203.487304688 262 191.944335938 212 c 128,-1,7
 180.400390625 162 180.400390625 162 169.704101562 120 c 1,8,-1
 176.704101562 120 l 1,9,10
 187.323242188 153 187.323242188 153 200.7109375 191.5 c 128,-1,11
 214.099609375 230 214.099609375 230 226.564453125 264.5 c 128,-1,12
 239.029296875 299 239.029296875 299 246.646484375 319 c 2,13,-1
 330.823242188 545 l 1,14,-1
 452.823242188 545 l 1,15,-1
 429.646484375 319 l 2,16,17
 425.950195312 277 425.950195312 277 420.252929688 222 c 128,-1,18
 414.5546875 167 414.5546875 167 408.704101562 120 c 1,19,-1
 415.704101562 120 l 1,20,21
 422.784179688 155 422.784179688 155 431.172851562 193.5 c 128,-1,22
 439.561523438 232 439.561523438 232 447.256835938 267.5 c 128,-1,23
 454.953125 303 454.953125 303 460.724609375 328 c 0,24,25
 472.729492188 380 472.729492188 380 487.158203125 436 c 128,-1,26
 501.586914062 492 501.586914062 492 520.170898438 559.5 c 128,-1,27
 538.75390625 627 538.75390625 627 562.83984375 714 c 1,28,-1
 684.83984375 714 l 1,29,-1
 484 0 l 1,30,-1
 309 0 l 1,31,-1
 336.5625 245 l 2,32,33
 340.412109375 279 340.412109375 279 347.724609375 321.5 c 128,-1,34
 355.036132812 364 355.036132812 364 361.040039062 403 c 1,35,-1
 355.040039062 403 l 1,36,37
 344.266601562 365 344.266601562 365 330.33984375 322 c 128,-1,38
 316.412109375 279 316.412109375 279 304.5625 245 c 2,39,-1
 219 0 l 1,40,-1
 46 0 l 1,0,-1
EndSplineSet
Validated: 1572865
Substitution2: "'c2sc' Capitals to Small Capitals lookup 34 subtable" w.sc
Substitution2: "'aalt' Access All Alternates lookup 0 subtable" w.sc
EndChar

StartChar: X
Encoding: 88 88 59
Width: 530
GlyphClass: 2
Flags: W
AnchorPoint: "Anchor-2" 674.84 714 basechar 0
AnchorPoint: "Anchor-1" 429.84 714 basechar 0
AnchorPoint: "Anchor-0" 265 0 basechar 0
LayerCount: 2
Fore
SplineSet
13 0 m 1,0,-1
 269.728515625 367 l 1,1,-1
 189.83984375 714 l 1,2,-1
 333.83984375 714 l 1,3,-1
 373.739257812 471 l 1,4,-1
 521.83984375 714 l 1,5,-1
 666.83984375 714 l 1,6,-1
 426.498046875 366 l 1,7,-1
 517 0 l 1,8,-1
 372 0 l 1,9,-1
 323.487304688 262 l 1,10,-1
 156 0 l 1,11,-1
 13 0 l 1,0,-1
EndSplineSet
Validated: 1572865
Substitution2: "'c2sc' Capitals to Small Capitals lookup 34 subtable" x.sc
Substitution2: "'aalt' Access All Alternates lookup 0 subtable" x.sc
EndChar

StartChar: Y
Encoding: 89 89 60
Width: 530
GlyphClass: 2
Flags: W
AnchorPoint: "Anchor-2" 674.84 714 basechar 0
AnchorPoint: "Anchor-1" 429.84 714 basechar 0
AnchorPoint: "Anchor-0" 265 0 basechar 0
LayerCount: 2
Fore
SplineSet
199 0 m 1,0,-1
 262.950195312 277 l 1,1,-1
 177.83984375 714 l 1,2,-1
 325.83984375 714 l 1,3,-1
 362.118164062 412 l 1,4,-1
 532.83984375 714 l 1,5,-1
 681.83984375 714 l 1,6,-1
 395.950195312 277 l 1,7,-1
 332 0 l 1,8,-1
 199 0 l 1,0,-1
EndSplineSet
Validated: 1572865
Substitution2: "'c2sc' Capitals to Small Capitals lookup 34 subtable" y.sc
Substitution2: "'aalt' Access All Alternates lookup 0 subtable" y.sc
EndChar

StartChar: Z
Encoding: 90 90 61
Width: 530
GlyphClass: 2
Flags: W
AnchorPoint: "Anchor-2" 674.84 714 basechar 0
AnchorPoint: "Anchor-1" 438.84 714 basechar 0
AnchorPoint: "Anchor-0" 282 0 basechar 0
LayerCount: 2
Fore
SplineSet
63 0 m 1,0,-1
 85.39453125 97 l 1,1,-1
 457.135742188 594 l 1,2,-1
 213.135742188 594 l 1,3,-1
 240.83984375 714 l 1,4,-1
 633.83984375 714 l 1,5,-1
 611.4453125 617 l 1,6,-1
 239.934570312 121 l 1,7,-1
 505.934570312 121 l 1,8,-1
 478 0 l 1,9,-1
 63 0 l 1,0,-1
EndSplineSet
Validated: 1572865
Substitution2: "'c2sc' Capitals to Small Capitals lookup 34 subtable" z.sc
Substitution2: "'aalt' Access All Alternates lookup 0 subtable" z.sc
EndChar

StartChar: bracketleft
Encoding: 91 91 62
Width: 530
Flags: W
LayerCount: 2
Fore
SplineSet
154.368164062 -163 m 1,0,-1
 359.379882812 725 l 1,1,-1
 590.379882812 725 l 1,2,-1
 567.75390625 627 l 1,3,-1
 454.75390625 627 l 1,4,-1
 294.993164062 -65 l 1,5,-1
 407.993164062 -65 l 1,6,-1
 385.368164062 -163 l 1,7,-1
 154.368164062 -163 l 1,0,-1
EndSplineSet
Validated: 524289
Substitution2: "'smcp' Lowercase to Small Capitals lookup 35 subtable" bracketleft.sc
Substitution2: "'c2sc' Capitals to Small Capitals lookup 34 subtable" bracketleft.sc
Substitution2: "'aalt' Access All Alternates lookup 0 subtable" bracketleft.sc
EndChar

StartChar: backslash
Encoding: 92 92 63
Width: 530
Flags: W
LayerCount: 2
Fore
SplineSet
456.845703125 -5 m 1,0,-1
 342.845703125 -5 l 1,1,-1
 237.994140625 719 l 1,2,-1
 351.994140625 719 l 1,3,-1
 456.845703125 -5 l 1,0,-1
EndSplineSet
Validated: 524289
EndChar

StartChar: asciicircum
Encoding: 94 94 65
Width: 530
Flags: W
LayerCount: 2
Fore
SplineSet
85.6435546875 280 m 1,0,-1
 394.0703125 715 l 1,1,-1
 461.0703125 715 l 1,2,-1
 572.643554688 280 l 1,3,-1
 457.643554688 280 l 1,4,-1
 390.439453125 552 l 1,5,-1
 200.643554688 280 l 1,6,-1
 85.6435546875 280 l 1,0,-1
EndSplineSet
Validated: 524289
EndChar

StartChar: underscore
Encoding: 95 95 66
Width: 530
Flags: W
LayerCount: 2
Fore
SplineSet
-43.865234375 -190 m 1,0,-1
 -16.1611328125 -70 l 1,1,-1
 513.838867188 -70 l 1,2,-1
 486.134765625 -190 l 1,3,-1
 -43.865234375 -190 l 1,0,-1
EndSplineSet
Validated: 524289
EndChar

StartChar: grave
Encoding: 96 96 67
Width: 530
Flags: W
LayerCount: 2
Fore
SplineSet
403.90625 606 m 1,0,1
 392.676757812 618 392.676757812 618 376.678710938 637.5 c 128,-1,2
 360.680664062 657 360.680664062 657 344.375 679.5 c 128,-1,3
 328.069335938 702 328.069335938 702 314.802734375 722.5 c 128,-1,4
 301.53515625 743 301.53515625 743 293.767578125 757 c 1,5,-1
 295.844726562 766 l 1,6,-1
 441.844726562 766 l 1,7,8
 446.997070312 745 446.997070312 745 456.416992188 716.5 c 128,-1,9
 465.836914062 688 465.836914062 688 476.719726562 661.5 c 128,-1,10
 487.6015625 635 487.6015625 635 495.907226562 619 c 1,11,-1
 492.90625 606 l 1,12,-1
 403.90625 606 l 1,0,1
EndSplineSet
Validated: 524289
EndChar

StartChar: a
Encoding: 97 97 68
Width: 530
GlyphClass: 2
Flags: W
AnchorPoint: "Anchor-2" 636.054 546 basechar 0
AnchorPoint: "Anchor-1" 404.054 546 basechar 0
AnchorPoint: "Anchor-0" 271 0 basechar 0
LayerCount: 2
Fore
SplineSet
200.69140625 -10 m 0,0,1
 128.69140625 -10 128.69140625 -10 98.580078125 35 c 0,2,3
 79.7382688232 63.1591338055 79.7382688232 63.1591338055 79.7382688232 104.24020092 c 0,4,5
 79.7382688232 128.809165263 79.7382688232 128.809165263 86.4775390625 158 c 0,6,7
 126.186523438 330 126.186523438 330 327.571289062 336 c 2,8,-1
 425.264648438 339 l 1,9,-1
 430.112304688 360 l 2,10,11
 433.118664266 373.021782724 433.118664266 373.021782724 433.118664266 383.923980131 c 0,12,13
 433.118664266 440 433.118664266 440 353.58203125 440 c 0,14,15
 326.58203125 440 326.58203125 440 293.965820312 433 c 128,-1,16
 261.349609375 426 261.349609375 426 216.962890625 407 c 1,17,-1
 193.049804688 507 l 1,18,19
 246.052734375 533 246.052734375 533 292.708007812 544.5 c 128,-1,20
 339.362304688 556 339.362304688 556 390.362304688 556 c 0,21,22
 567.800361368 556 567.800361368 556 567.800361368 424.689527119 c 0,23,24
 567.800361368 397.632388664 567.800361368 397.632388664 560.266601562 365 c 2,25,-1
 476 0 l 1,26,-1
 380 0 l 1,27,-1
 369.622070312 72 l 1,28,-1
 366.622070312 72 l 1,29,30
 322.002929688 26 322.002929688 26 282.846679688 8 c 128,-1,31
 243.69140625 -10 243.69140625 -10 200.69140625 -10 c 0,0,1
276.703125 107 m 0,32,33
 315.703125 107 315.703125 107 349.821289062 133.5 c 128,-1,34
 383.938476562 160 383.938476562 160 395.250976562 209 c 2,35,-1
 405.640625 254 l 1,36,-1
 345.178710938 252 l 2,37,38
 242.486328125 249 242.486328125 249 224.248046875 170 c 0,39,40
 221.741107977 159.141953441 221.741107977 159.141953441 221.741107977 150.23262052 c 0,41,42
 221.741107977 132.064524291 221.741107977 132.064524291 232.166015625 122 c 0,43,44
 247.703125 107 247.703125 107 276.703125 107 c 0,32,33
EndSplineSet
Validated: 1572865
Substitution2: "'smcp' Lowercase to Small Capitals lookup 35 subtable" a.sc
Substitution2: "Single Substitution lookup 32 subtable" ordfeminine
AlternateSubs2: "'aalt' Access All Alternates lookup 1 subtable" ordfeminine a.sc
EndChar

StartChar: b
Encoding: 98 98 69
Width: 530
GlyphClass: 2
Flags: W
AnchorPoint: "Anchor-2" 685.69 761 basechar 0
AnchorPoint: "Anchor-1" 440.69 761 basechar 0
AnchorPoint: "Anchor-0" 265 0 basechar 0
LayerCount: 2
Fore
SplineSet
320.69140625 -10 m 0,0,1
 231.69140625 -10 231.69140625 -10 194.083007812 61 c 1,2,-1
 184.083007812 61 l 1,3,-1
 148 0 l 1,4,-1
 48 0 l 1,5,-1
 223.690429688 761 l 1,6,-1
 355.690429688 761 l 1,7,-1
 314.365234375 582 l 2,8,9
 305.823242188 545 305.823242188 545 283.662109375 475 c 1,10,-1
 289.662109375 475 l 1,11,12
 321.666015625 514 321.666015625 514 364.514648438 535 c 128,-1,13
 407.362304688 556 407.362304688 556 454.362304688 556 c 0,14,15
 514.362304688 556 514.362304688 556 543.3203125 519 c 128,-1,16
 572.278320312 482 572.278320312 482 575.502929688 418 c 0,17,18
 575.987376667 408.385003867 575.987376667 408.385003867 575.987376667 398.431452496 c 0,19,20
 575.987376667 342.131489149 575.987376667 342.131489149 560.48828125 275 c 0,21,22
 541.557617188 193 541.557617188 193 508.166992188 128.5 c 128,-1,23
 474.775390625 64 474.775390625 64 427.233398438 27 c 128,-1,24
 379.69140625 -10 379.69140625 -10 320.69140625 -10 c 0,0,1
293.93359375 108 m 0,25,26
 337.93359375 108 337.93359375 108 370.361328125 151 c 128,-1,27
 402.788085938 194 402.788085938 194 421.48828125 275 c 0,28,29
 432.788856585 323.947008652 432.788856585 323.947008652 432.788856585 358.285421841 c 0,30,31
 432.788856585 439 432.788856585 439 370.3515625 439 c 0,32,33
 328.3515625 439 328.3515625 439 295.616210938 399 c 128,-1,34
 262.881835938 359 262.881835938 359 243.2578125 274 c 0,35,36
 231.704485826 223.956610092 231.704485826 223.956610092 231.704485826 189.489163962 c 0,37,38
 231.704485826 164.724004694 231.704485826 164.724004694 237.668945312 148 c 0,39,40
 251.93359375 108 251.93359375 108 293.93359375 108 c 0,25,26
EndSplineSet
Validated: 1572865
Substitution2: "'smcp' Lowercase to Small Capitals lookup 35 subtable" b.sc
Substitution2: "'aalt' Access All Alternates lookup 0 subtable" b.sc
EndChar

StartChar: c
Encoding: 99 99 70
Width: 530
GlyphClass: 2
Flags: W
AnchorPoint: "Anchor-2" 636.054 546 basechar 0
AnchorPoint: "Anchor-1" 422.054 546 basechar 0
AnchorPoint: "Anchor-0" 305 0 basechar 0
LayerCount: 2
Fore
SplineSet
302.69140625 -10 m 0,0,1
 108.404427602 -10 108.404427602 -10 108.404427602 164.194721033 c 0,2,3
 108.404427602 209.663237084 108.404427602 209.663237084 121.641601562 267 c 0,4,5
 155.118164062 412 155.118164062 412 236.740234375 484 c 128,-1,6
 318.362304688 556 318.362304688 556 440.362304688 556 c 0,7,8
 481.362304688 556 481.362304688 556 520.900390625 547.5 c 128,-1,9
 560.4375 539 560.4375 539 595.051757812 520 c 1,10,-1
 527.88671875 411 l 1,11,12
 498.581054688 427 498.581054688 427 475.350585938 432.5 c 128,-1,13
 452.120117188 438 452.120117188 438 426.120117188 438 c 0,14,15
 297.120117188 438 297.120117188 438 259.2578125 274 c 0,16,17
 250.597038879 236.486824176 250.597038879 236.486824176 250.597038879 207.89787101 c 0,18,19
 250.597038879 170.183748768 250.597038879 170.183748768 265.668945312 148 c 0,20,21
 292.165039062 109 292.165039062 109 350.165039062 109 c 0,22,23
 377.165039062 109 377.165039062 109 412.7421875 118 c 128,-1,24
 448.3203125 127 448.3203125 127 492.629882812 150 c 1,25,-1
 464.002929688 26 l 1,26,27
 417.923828125 4 417.923828125 4 377.307617188 -3 c 128,-1,28
 336.69140625 -10 336.69140625 -10 302.69140625 -10 c 0,0,1
EndSplineSet
Validated: 1572865
Substitution2: "'smcp' Lowercase to Small Capitals lookup 35 subtable" c.sc
Substitution2: "'aalt' Access All Alternates lookup 0 subtable" c.sc
EndChar

StartChar: d
Encoding: 100 100 71
Width: 530
GlyphClass: 2
Flags: W
AnchorPoint: "Anchor-3" 328.027 273 basechar 0
AnchorPoint: "Anchor-2" 685.69 761 basechar 0
AnchorPoint: "Anchor-1" 440.69 761 basechar 0
AnchorPoint: "Anchor-0" 265 0 basechar 0
LayerCount: 2
Fore
SplineSet
202.69140625 -10 m 0,0,1
 141.69140625 -10 141.69140625 -10 112.233398438 27 c 128,-1,2
 82.775390625 64 82.775390625 64 79.935546875 127.5 c 0,3,4
 79.5570919176 135.962398607 79.5570919176 135.962398607 79.5570919176 144.717834882 c 0,5,6
 79.5570919176 201.661289583 79.5570919176 201.661289583 95.5654296875 271 c 0,7,8
 114.958007812 355 114.958007812 355 148.733398438 419 c 128,-1,9
 182.509765625 483 182.509765625 483 230.435546875 519.5 c 128,-1,10
 278.362304688 556 278.362304688 556 341.362304688 556 c 0,11,12
 435.362304688 556 435.362304688 556 466.893554688 476 c 1,13,-1
 470.893554688 476 l 1,14,15
 470.895507812 502 470.895507812 502 474.860351562 530 c 128,-1,16
 478.82421875 558 478.82421875 558 484.595703125 583 c 2,17,-1
 525.690429688 761 l 1,18,-1
 657.690429688 761 l 1,19,-1
 482 0 l 1,20,-1
 385 0 l 1,21,-1
 371.391601562 71 l 1,22,-1
 365.391601562 71 l 1,23,24
 291.69140625 -10 291.69140625 -10 202.69140625 -10 c 0,0,1
292.93359375 108 m 0,25,26
 342.93359375 108 342.93359375 108 373.70703125 146 c 128,-1,27
 404.479492188 184 404.479492188 184 420.640625 254 c 2,28,-1
 424.333984375 270 l 2,29,30
 436.688228818 323.509628243 436.688228818 323.509628243 436.688228818 361.67858953 c 0,31,32
 436.688228818 397.051825313 436.688228818 397.051825313 422.387695312 417.5 c 0,33,34
 407.3515625 439 407.3515625 439 370.3515625 439 c 0,35,36
 319.3515625 439 319.3515625 439 286.423828125 396 c 128,-1,37
 253.49609375 353 253.49609375 353 234.565429688 271 c 0,38,39
 223.291538313 222.166987851 223.291538313 222.166987851 223.291538313 188.649213139 c 0,40,41
 223.291538313 163.138709677 223.291538313 163.138709677 229.822265625 146.5 c 0,42,43
 244.93359375 108 244.93359375 108 292.93359375 108 c 0,25,26
EndSplineSet
Validated: 524289
Substitution2: "'smcp' Lowercase to Small Capitals lookup 35 subtable" d.sc
Substitution2: "'aalt' Access All Alternates lookup 0 subtable" d.sc
EndChar

StartChar: e
Encoding: 101 101 72
Width: 530
GlyphClass: 2
Flags: W
AnchorPoint: "Anchor-2" 636.054 546 basechar 0
AnchorPoint: "Anchor-1" 400.054 546 basechar 0
AnchorPoint: "Anchor-0" 275 0 basechar 0
LayerCount: 2
Fore
SplineSet
296.69140625 -10 m 0,0,1
 170.69140625 -10 170.69140625 -10 121.16015625 63.5 c 0,2,3
 91.0173145337 108.229314648 91.0173145337 108.229314648 91.0173145337 176.84606462 c 0,4,5
 91.0173145337 220.981570359 91.0173145337 220.981570359 103.48828125 275 c 0,6,7
 133.962890625 407 133.962890625 407 212.163085938 481.5 c 128,-1,8
 290.362304688 556 290.362304688 556 402.362304688 556 c 0,9,10
 503.362304688 556 503.362304688 556 546.93359375 493.5 c 0,11,12
 573.396784451 455.539532794 573.396784451 455.539532794 573.396784451 395.629798211 c 0,13,14
 573.396784451 356.901168014 573.396784451 356.901168014 562.337890625 309 c 2,15,-1
 545.0234375 234 l 1,16,-1
 232.0234375 234 l 1,17,18
 228.933240336 217.066594375 228.933240336 217.066594375 228.933240336 202.371015697 c 0,19,20
 228.933240336 163.260177742 228.933240336 163.260177742 250.821289062 140 c 0,21,22
 280.93359375 108 280.93359375 108 343.93359375 108 c 0,23,24
 389.93359375 108 389.93359375 108 429.473632812 119 c 128,-1,25
 469.012695312 130 469.012695312 130 500.475585938 145 c 1,26,-1
 473.463867188 28 l 1,27,28
 442.000976562 13 442.000976562 13 397.346679688 1.5 c 128,-1,29
 352.69140625 -10 352.69140625 -10 296.69140625 -10 c 0,0,1
435.416992188 331 m 1,30,31
 440.396382027 354.340589957 440.396382027 354.340589957 440.396382027 372.818541857 c 0,32,33
 440.396382027 399.465552961 440.396382027 399.465552961 430.041015625 416 c 0,34,35
 412.505859375 444 412.505859375 444 375.505859375 444 c 0,36,37
 336.505859375 444 336.505859375 444 304.15625 416.5 c 128,-1,38
 271.807617188 389 271.807617188 389 255.416992188 331 c 1,39,-1
 435.416992188 331 l 1,30,31
EndSplineSet
Validated: 1572865
Substitution2: "'smcp' Lowercase to Small Capitals lookup 35 subtable" e.sc
Substitution2: "'aalt' Access All Alternates lookup 0 subtable" e.sc
EndChar

StartChar: f
Encoding: 102 102 73
Width: 530
GlyphClass: 2
Flags: W
AnchorPoint: "Anchor-2" 692.614 765 basechar 0
AnchorPoint: "Anchor-1" 513.383 764 basechar 0
AnchorPoint: "Anchor-0" 265 0 basechar 0
LayerCount: 2
Fore
SplineSet
179 0 m 1,0,-1
 278.2734375 430 l 1,1,-1
 147.2734375 430 l 1,2,-1
 165.973632812 511 l 1,3,-1
 305.053710938 546 l 1,4,-1
 313.365234375 582 l 2,5,6
 335.297851562 677 335.297851562 677 386.956054688 721 c 128,-1,7
 438.614257812 765 438.614257812 765 534.614257812 765 c 0,8,9
 573.614257812 765 573.614257812 765 607.228515625 759 c 128,-1,10
 640.84375 753 640.84375 753 674.303710938 742 c 1,11,-1
 610.447265625 630 l 1,12,13
 589.293945312 638 589.293945312 638 568.6015625 641.5 c 128,-1,14
 547.91015625 645 547.91015625 645 532.91015625 645 c 0,15,16
 493.91015625 645 493.91015625 645 473.5234375 626 c 128,-1,17
 453.13671875 607 453.13671875 607 444.826171875 571 c 2,18,-1
 439.053710938 546 l 1,19,-1
 594.053710938 546 l 1,20,-1
 567.2734375 430 l 1,21,-1
 412.2734375 430 l 1,22,-1
 313 0 l 1,23,-1
 179 0 l 1,0,-1
EndSplineSet
Validated: 1572865
Substitution2: "'smcp' Lowercase to Small Capitals lookup 35 subtable" f.sc
Substitution2: "'aalt' Access All Alternates lookup 0 subtable" f.sc
EndChar

StartChar: g
Encoding: 103 103 74
Width: 530
GlyphClass: 2
Flags: W
AnchorPoint: "Anchor-2" 636.054 546 basechar 0
AnchorPoint: "Anchor-1" 391.054 546 basechar 0
AnchorPoint: "Anchor-0" 208.438 -245 basechar 0
LayerCount: 2
Fore
SplineSet
173.4375 -245 m 0,0,1
 133.4375 -245 133.4375 -245 93.5537109375 -238 c 128,-1,2
 53.669921875 -231 53.669921875 -231 13.8251953125 -213 c 1,3,-1
 43.607421875 -84 l 1,4,5
 85.7587890625 -105 85.7587890625 -105 124.334960938 -115.5 c 128,-1,6
 162.91015625 -126 162.91015625 -126 200.91015625 -126 c 0,7,8
 314.91015625 -126 314.91015625 -126 342.153320312 -8 c 2,9,-1
 345.154296875 5 l 2,10,11
 348.6171875 20 348.6171875 20 353.2734375 38 c 128,-1,12
 357.928710938 56 357.928710938 56 361.9296875 69 c 1,13,-1
 357.9296875 69 l 1,14,15
 324.463867188 28 324.463867188 28 288.578125 9 c 128,-1,16
 252.69140625 -10 252.69140625 -10 211.69140625 -10 c 0,17,18
 125.69140625 -10 125.69140625 -10 95.390625 64.5 c 0,19,20
 80.3413679279 101.502537258 80.3413679279 101.502537258 80.3413679279 152.936403587 c 0,21,22
 80.3413679279 205.058220878 80.3413679279 205.058220878 95.7958984375 272 c 0,23,24
 126.962890625 407 126.962890625 407 193.163085938 481.5 c 128,-1,25
 259.362304688 556 259.362304688 556 342.362304688 556 c 0,26,27
 426.362304688 556 426.362304688 556 455.662109375 475 c 1,28,-1
 459.662109375 475 l 1,29,-1
 492.053710938 546 l 1,30,-1
 608.053710938 546 l 1,31,-1
 481.76953125 -1 l 2,32,33
 454.526367188 -119 454.526367188 -119 379.982421875 -182 c 128,-1,34
 305.4375 -245 305.4375 -245 173.4375 -245 c 0,0,1
288.93359375 108 m 0,35,36
 328.93359375 108 328.93359375 108 360.3984375 142.5 c 128,-1,37
 391.86328125 177 391.86328125 177 409.178710938 252 c 2,38,-1
 413.333984375 270 l 2,39,40
 426.40017993 326.594306265 426.40017993 326.594306265 426.40017993 363.375096613 c 0,41,42
 426.40017993 384.435643265 426.40017993 384.435643265 422.116210938 399 c 0,43,44
 410.3515625 439 410.3515625 439 365.3515625 439 c 0,45,46
 273.3515625 439 273.3515625 439 235.02734375 273 c 0,47,48
 224.100303378 225.669463855 224.100303378 225.669463855 224.100303378 191.655039038 c 0,49,50
 224.100303378 167.458240518 224.100303378 167.458240518 229.629882812 150 c 0,51,52
 242.93359375 108 242.93359375 108 288.93359375 108 c 0,35,36
EndSplineSet
Validated: 1572865
Substitution2: "'smcp' Lowercase to Small Capitals lookup 35 subtable" g.sc
Substitution2: "'aalt' Access All Alternates lookup 0 subtable" g.sc
EndChar

StartChar: h
Encoding: 104 104 75
Width: 530
GlyphClass: 2
Flags: W
AnchorPoint: "Anchor-3" 328.027 273 basechar 0
AnchorPoint: "Anchor-2" 685.46 760 basechar 0
AnchorPoint: "Anchor-1" 292.46 760 basechar 0
AnchorPoint: "Anchor-0" 265 0 basechar 0
LayerCount: 2
Fore
SplineSet
48 0 m 1,0,-1
 223.459960938 760 l 1,1,-1
 356.459960938 760 l 1,2,-1
 318.828125 597 l 2,3,4
 311.90234375 567 311.90234375 567 303.360351562 536.5 c 128,-1,5
 294.819335938 506 294.819335938 506 284.662109375 475 c 1,6,-1
 292.662109375 475 l 1,7,8
 353.362304688 556 353.362304688 556 454.362304688 556 c 0,9,10
 534.362304688 556 534.362304688 556 563.088867188 505 c 0,11,12
 579.085896918 476.598542219 579.085896918 476.598542219 579.085896918 433.310942724 c 0,13,14
 579.085896918 398.867758425 579.085896918 398.867758425 568.958007812 355 c 2,15,-1
 487 0 l 1,16,-1
 354 0 l 1,17,-1
 428.33984375 322 l 2,18,19
 436.094415816 355.589061224 436.094415816 355.589061224 436.094415816 379.454838617 c 0,20,21
 436.094415816 397.509877551 436.094415816 397.509877551 431.65625 410 c 0,22,23
 421.3515625 439 421.3515625 439 378.3515625 439 c 0,24,25
 323.3515625 439 323.3515625 439 292.346679688 393.5 c 128,-1,26
 261.341796875 348 261.341796875 348 240.564453125 258 c 2,27,-1
 181 0 l 1,28,-1
 48 0 l 1,0,-1
EndSplineSet
Validated: 524289
Substitution2: "'smcp' Lowercase to Small Capitals lookup 35 subtable" h.sc
Substitution2: "'subs' Subscript lookup 22 subtable" uni2095
AlternateSubs2: "'aalt' Access All Alternates lookup 1 subtable" h.sc uni2095
EndChar

StartChar: i
Encoding: 105 105 76
Width: 530
GlyphClass: 2
Flags: W
AnchorPoint: "Anchor-3" 339.413 292 basechar 0
AnchorPoint: "Anchor-2" 630.461 773 basechar 0
AnchorPoint: "Anchor-1" 455.461 773 basechar 0
AnchorPoint: "Anchor-0" 277 0 basechar 0
LayerCount: 2
Fore
SplineSet
415.752929688 614 m 0,0,1
 377.752929688 614 377.752929688 614 360.370117188 634 c 0,2,3
 348.91925858 647.175660671 348.91925858 647.175660671 348.91925858 668.597227961 c 0,4,5
 348.91925858 679.692538308 348.91925858 679.692538308 351.991210938 693 c 0,6,7
 370.4609375 773 370.4609375 773 452.4609375 773 c 0,8,9
 518.574537185 773 518.574537185 773 518.574537185 720.369358786 c 0,10,11
 518.574537185 708.518834875 518.574537185 708.518834875 515.22265625 694 c 0,12,13
 506.44921875 656 506.44921875 656 482.1015625 635 c 128,-1,14
 457.752929688 614 457.752929688 614 415.752929688 614 c 0,0,1
57 0 m 1,15,-1
 78.701171875 94 l 1,16,-1
 234.625976562 111 l 1,17,-1
 309.658203125 436 l 1,18,-1
 180.428710938 448 l 1,19,-1
 203.053710938 546 l 1,20,-1
 468.053710938 546 l 1,21,-1
 367.625976562 111 l 1,22,-1
 498.701171875 94 l 1,23,-1
 477 0 l 1,24,-1
 57 0 l 1,15,-1
EndSplineSet
Validated: 524289
Substitution2: "'smcp' Lowercase to Small Capitals lookup 35 subtable" i.sc
Substitution2: "Single Substitution lookup 5 subtable" dotlessi
Substitution2: "Single Substitution lookup 4 subtable" dotlessi
AlternateSubs2: "'aalt' Access All Alternates lookup 1 subtable" dotlessi i.sc
EndChar

StartChar: j
Encoding: 106 106 77
Width: 530
GlyphClass: 2
Flags: W
AnchorPoint: "Anchor-2" 628.461 773 basechar 0
AnchorPoint: "Anchor-1" 481.461 773 basechar 0
AnchorPoint: "Anchor-0" 121.438 -245 basechar 0
LayerCount: 2
Fore
SplineSet
445.752929688 614 m 0,0,1
 407.752929688 614 407.752929688 614 390.870117188 634 c 0,2,3
 379.859919577 647.043839131 379.859919577 647.043839131 379.859919577 668.169410877 c 0,4,5
 379.859919577 679.435486305 379.859919577 679.435486305 382.991210938 693 c 0,6,7
 401.4609375 773 401.4609375 773 483.4609375 773 c 0,8,9
 549.574537185 773 549.574537185 773 549.574537185 720.369358786 c 0,10,11
 549.574537185 708.518834875 549.574537185 708.518834875 546.22265625 694 c 0,12,13
 537.44921875 656 537.44921875 656 513.1015625 635 c 128,-1,14
 488.752929688 614 488.752929688 614 445.752929688 614 c 0,0,1
117.4375 -245 m 0,15,16
 85.4375 -245 85.4375 -245 51.20703125 -239.5 c 128,-1,17
 16.9765625 -234 16.9765625 -234 -14.71484375 -224 c 1,18,-1
 12.06640625 -108 l 1,19,20
 39.98828125 -117 39.98828125 -117 69.44921875 -121.5 c 128,-1,21
 98.91015625 -126 98.91015625 -126 119.91015625 -126 c 0,22,23
 170.91015625 -126 170.91015625 -126 201.682617188 -101 c 128,-1,24
 232.454101562 -76 232.454101562 -76 246.537109375 -15 c 2,25,-1
 350.658203125 436 l 1,26,-1
 201.428710938 448 l 1,27,-1
 224.053710938 546 l 1,28,-1
 509.053710938 546 l 1,29,-1
 374.688476562 -36 l 2,30,31
 349.986328125 -143 349.986328125 -143 288.711914062 -194 c 128,-1,32
 227.4375 -245 227.4375 -245 117.4375 -245 c 0,15,16
EndSplineSet
Validated: 1572865
Substitution2: "'smcp' Lowercase to Small Capitals lookup 35 subtable" j.sc
Substitution2: "Single Substitution lookup 5 subtable" uni0237
Substitution2: "Single Substitution lookup 4 subtable" uni0237
AlternateSubs2: "'aalt' Access All Alternates lookup 1 subtable" uni0237 j.sc
EndChar

StartChar: k
Encoding: 107 107 78
Width: 530
GlyphClass: 2
Flags: W
AnchorPoint: "Anchor-2" 615.547 860 basechar 0
AnchorPoint: "Anchor-1" 473.46 760 basechar 0
AnchorPoint: "Anchor-0" 281 0 basechar 0
LayerCount: 2
Fore
SplineSet
50 0 m 1,0,-1
 225.459960938 760 l 1,1,-1
 359.459960938 760 l 1,2,-1
 281.1953125 421 l 2,3,4
 273.807617188 389 273.807617188 389 264.997070312 359.5 c 128,-1,5
 256.186523438 330 256.186523438 330 245.029296875 299 c 1,6,-1
 248.029296875 299 l 1,7,8
 265.416015625 318 265.416015625 318 284.533203125 338 c 128,-1,9
 303.650390625 358 303.650390625 358 326.19140625 382 c 2,10,-1
 480.053710938 546 l 1,11,-1
 636.053710938 546 l 1,12,-1
 423.032226562 325 l 1,13,-1
 519 0 l 1,14,-1
 368 0 l 1,15,-1
 304.869140625 229 l 1,16,-1
 221.400390625 162 l 1,17,-1
 184 0 l 1,18,-1
 50 0 l 1,0,-1
EndSplineSet
Validated: 1572865
Substitution2: "'smcp' Lowercase to Small Capitals lookup 35 subtable" k.sc
Substitution2: "'subs' Subscript lookup 22 subtable" uni2096
AlternateSubs2: "'aalt' Access All Alternates lookup 1 subtable" k.sc uni2096
EndChar

StartChar: l
Encoding: 108 108 79
Width: 530
GlyphClass: 2
Flags: W
AnchorPoint: "Anchor-3" 360.883 372 basechar 0
AnchorPoint: "Anchor-2" 623.46 760 basechar 0
AnchorPoint: "Anchor-1" 440.46 760 basechar 0
AnchorPoint: "Anchor-0" 275 0 basechar 0
LayerCount: 2
Fore
SplineSet
57 0 m 1,0,-1
 78.701171875 94 l 1,1,-1
 231.625976562 111 l 1,2,-1
 356.064453125 650 l 1,3,-1
 239.7578125 666 l 1,4,-1
 261.459960938 760 l 1,5,-1
 515.459960938 760 l 1,6,-1
 365.625976562 111 l 1,7,-1
 498.701171875 94 l 1,8,-1
 477 0 l 1,9,-1
 57 0 l 1,0,-1
EndSplineSet
Validated: 524289
Substitution2: "'smcp' Lowercase to Small Capitals lookup 35 subtable" l.sc
Substitution2: "'subs' Subscript lookup 22 subtable" uni2097
AlternateSubs2: "'aalt' Access All Alternates lookup 1 subtable" l.sc uni2097
EndChar

StartChar: m
Encoding: 109 109 80
Width: 530
GlyphClass: 2
Flags: W
AnchorPoint: "Anchor-2" 636.054 546 basechar 0
AnchorPoint: "Anchor-1" 421.054 546 basechar 0
AnchorPoint: "Anchor-0" 273 0 basechar 0
LayerCount: 2
Fore
SplineSet
20 0 m 1,0,-1
 146.053710938 546 l 1,1,-1
 240.053710938 546 l 1,2,-1
 240.278320312 482 l 1,3,-1
 248.278320312 482 l 1,4,5
 270.051757812 520 270.051757812 520 295.70703125 538 c 128,-1,6
 321.362304688 556 321.362304688 556 358.362304688 556 c 0,7,8
 398.362304688 556 398.362304688 556 411.66796875 533.5 c 0,9,10
 423.716996588 513.124983384 423.716996588 513.124983384 423.716996588 484.959660853 c 0,11,12
 423.716996588 482.022198591 423.716996588 482.022198591 423.5859375 479 c 1,13,-1
 428.5859375 479 l 1,14,15
 449.204101562 512 449.204101562 512 476.283203125 534 c 128,-1,16
 503.362304688 556 503.362304688 556 545.362304688 556 c 0,17,18
 600.362304688 556 600.362304688 556 610.8203125 519 c 0,19,20
 614.484224747 506.037229692 614.484224747 506.037229692 614.484224747 487.305598566 c 0,21,22
 614.484224747 452.57100795 614.484224747 452.57100795 601.885742188 398 c 2,23,-1
 510 0 l 1,24,-1
 395 0 l 1,25,-1
 483.422851562 383 l 2,26,27
 488.986606171 407.099552016 488.986606171 407.099552016 488.986606171 421.840697077 c 0,28,29
 488.986606171 426.673220508 488.986606171 426.673220508 488.388671875 430.5 c 0,30,31
 485.966796875 446 485.966796875 446 466.966796875 446 c 0,32,33
 441.966796875 446 441.966796875 446 429.349609375 426 c 128,-1,34
 416.732421875 406 416.732421875 406 405.881835938 359 c 2,35,-1
 323 0 l 1,36,-1
 207 0 l 1,37,-1
 295.422851562 383 l 2,38,39
 301.582683658 409.680855218 301.582683658 409.680855218 301.582683658 424.353555864 c 0,40,41
 301.582683658 428.37860002 301.582683658 428.37860002 301.119140625 431.5 c 0,42,43
 298.966796875 446 298.966796875 446 279.966796875 446 c 0,44,45
 252.966796875 446 252.966796875 446 240.041992188 422.5 c 128,-1,46
 227.116210938 399 227.116210938 399 216.265625 352 c 2,47,-1
 135 0 l 1,48,-1
 20 0 l 1,0,-1
EndSplineSet
Validated: 1572865
Substitution2: "'smcp' Lowercase to Small Capitals lookup 35 subtable" m.sc
Substitution2: "'subs' Subscript lookup 22 subtable" uni2098
AlternateSubs2: "'aalt' Access All Alternates lookup 1 subtable" m.sc uni2098
EndChar

StartChar: n
Encoding: 110 110 81
Width: 530
GlyphClass: 2
Flags: W
AnchorPoint: "Anchor-2" 636.054 546 basechar 0
AnchorPoint: "Anchor-1" 399.054 546 basechar 0
AnchorPoint: "Anchor-0" 270 0 basechar 0
LayerCount: 2
Fore
SplineSet
48 0 m 1,0,-1
 174.053710938 546 l 1,1,-1
 279.053710938 546 l 1,2,-1
 285.047851562 481 l 1,3,-1
 291.047851562 481 l 1,4,5
 320.127929688 516 320.127929688 516 359.245117188 536 c 128,-1,6
 398.362304688 556 398.362304688 556 452.362304688 556 c 0,7,8
 580.942437301 556 580.942437301 556 580.942437301 438.392685271 c 0,9,10
 580.942437301 406.910152982 580.942437301 406.910152982 571.728515625 367 c 2,11,-1
 487 0 l 1,12,-1
 354 0 l 1,13,-1
 430.186523438 330 l 2,14,15
 437.041563572 359.691842449 437.041563572 359.691842449 437.041563572 381.25949621 c 0,16,17
 437.041563572 401.822064588 437.041563572 401.822064588 430.810546875 415 c 0,18,19
 418.043945312 442 418.043945312 442 378.043945312 442 c 0,20,21
 326.043945312 442 326.043945312 442 295.078125 401 c 128,-1,22
 264.112304688 360 264.112304688 360 245.412109375 279 c 2,23,-1
 181 0 l 1,24,-1
 48 0 l 1,0,-1
EndSplineSet
Validated: 1572865
Substitution2: "'smcp' Lowercase to Small Capitals lookup 35 subtable" n.sc
Substitution2: "'sups' Superscript lookup 23 subtable" uni207F
Substitution2: "'subs' Subscript lookup 22 subtable" uni2099
AlternateSubs2: "'aalt' Access All Alternates lookup 1 subtable" uni207F n.sc uni2099
EndChar

StartChar: o
Encoding: 111 111 82
Width: 530
GlyphClass: 2
Flags: W
AnchorPoint: "Anchor-3" 328.027 273 basechar 0
AnchorPoint: "Anchor-2" 636.054 546 basechar 0
AnchorPoint: "Anchor-1" 391.054 546 basechar 0
AnchorPoint: "Anchor-0" 265 0 basechar 0
LayerCount: 2
Fore
SplineSet
266.921875 -9 m 0,0,1
 186.921875 -9 186.921875 -9 143.580078125 28.5 c 128,-1,2
 100.237304688 66 100.237304688 66 89.0126953125 130 c 0,3,4
 84.802413677 154.006004634 84.802413677 154.006004634 84.802413677 180.403830653 c 0,5,6
 84.802413677 224.382599615 84.802413677 224.382599615 96.48828125 275 c 0,7,8
 114.958007812 355 114.958007812 355 155.618164062 418.5 c 128,-1,9
 196.278320312 482 196.278320312 482 256.435546875 519.5 c 128,-1,10
 316.59375 557 316.59375 557 394.59375 557 c 0,11,12
 500.59375 557 500.59375 557 546.009765625 483 c 0,13,14
 572.620989469 439.639240985 572.620989469 439.639240985 572.620989469 373.961078307 c 0,15,16
 572.620989469 327.552087796 572.620989469 327.552087796 559.333984375 270 c 0,17,18
 540.633789062 189 540.633789062 189 502.08984375 126 c 128,-1,19
 463.544921875 63 463.544921875 63 404.733398438 27 c 128,-1,20
 345.921875 -9 345.921875 -9 266.921875 -9 c 0,0,1
292.93359375 108 m 0,21,22
 341.93359375 108 341.93359375 108 373.168945312 148 c 128,-1,23
 404.403320312 188 404.403320312 188 423.795898438 272 c 256,24,25
 435.661589563 323.394294165 435.661589563 323.394294165 435.661589563 359.066127183 c 0,26,27
 435.661589563 381.697147082 435.661589563 381.697147082 430.885742188 398 c 0,28,29
 418.58203125 440 418.58203125 440 368.58203125 440 c 0,30,31
 316.58203125 440 316.58203125 440 283.80859375 395.5 c 128,-1,32
 251.03515625 351 251.03515625 351 232.795898438 272 c 256,33,34
 222.040328618 225.411727557 222.040328618 225.411727557 222.040328618 191.517262231 c 0,35,36
 222.040328618 167.936688876 222.040328618 167.936688876 227.24609375 150.5 c 0,37,38
 239.93359375 108 239.93359375 108 292.93359375 108 c 0,21,22
EndSplineSet
Validated: 524289
Substitution2: "'smcp' Lowercase to Small Capitals lookup 35 subtable" o.sc
Substitution2: "Single Substitution lookup 32 subtable" ordmasculine
AlternateSubs2: "'aalt' Access All Alternates lookup 1 subtable" ordmasculine o.sc
EndChar

StartChar: p
Encoding: 112 112 83
Width: 530
GlyphClass: 2
Flags: W
AnchorPoint: "Anchor-2" 636.054 546 basechar 0
AnchorPoint: "Anchor-1" 417.054 546 basechar 0
AnchorPoint: "Anchor-0" 235.592 -240 basechar 0
LayerCount: 2
Fore
SplineSet
-7.408203125 -240 m 1,0,-1
 174.053710938 546 l 1,1,-1
 276.053710938 546 l 1,2,-1
 282.431640625 474 l 1,3,-1
 289.431640625 474 l 1,4,5
 359.362304688 556 359.362304688 556 452.362304688 556 c 0,6,7
 513.362304688 556 513.362304688 556 543.3203125 519 c 128,-1,8
 573.278320312 482 573.278320312 482 576.349609375 419.5 c 0,9,10
 576.801806991 410.294959479 576.801806991 410.294959479 576.801806991 400.775390912 c 0,11,12
 576.801806991 345.659390078 576.801806991 345.659390078 561.643554688 280 c 0,13,14
 530.245117188 144 530.245117188 144 464.967773438 67 c 128,-1,15
 399.69140625 -10 399.69140625 -10 316.69140625 -10 c 0,16,17
 276.69140625 -10 276.69140625 -10 245.078125 9 c 128,-1,18
 213.463867188 28 213.463867188 28 193.852539062 60 c 1,19,-1
 186.852539062 60 l 1,20,21
 185.080078125 35 185.080078125 35 182.540039062 17.5 c 128,-1,22
 180 0 180 0 175.844726562 -18 c 2,23,-1
 124.591796875 -240 l 1,24,-1
 -7.408203125 -240 l 1,0,-1
295.93359375 108 m 0,25,26
 341.93359375 108 341.93359375 108 371.74609375 150.5 c 128,-1,27
 401.557617188 193 401.557617188 193 421.181640625 278 c 0,28,29
 433.510293987 331.402228198 433.510293987 331.402228198 433.510293987 366.414886111 c 0,30,31
 433.510293987 386.476021258 433.510293987 386.476021258 429.462890625 400.5 c 0,32,33
 418.3515625 439 418.3515625 439 373.3515625 439 c 0,34,35
 281.3515625 439 281.3515625 439 247.182617188 291 c 2,36,-1
 243.2578125 274 l 2,37,38
 231.900730609 224.807200894 231.900730609 224.807200894 231.900730609 190.192302293 c 0,39,40
 231.900730609 108 231.900730609 108 295.93359375 108 c 0,25,26
EndSplineSet
Validated: 1572865
Substitution2: "'smcp' Lowercase to Small Capitals lookup 35 subtable" p.sc
Substitution2: "'subs' Subscript lookup 22 subtable" uni209A
AlternateSubs2: "'aalt' Access All Alternates lookup 1 subtable" p.sc uni209A
EndChar

StartChar: q
Encoding: 113 113 84
Width: 530
GlyphClass: 2
Flags: W
AnchorPoint: "Anchor-2" 636.054 546 basechar 0
AnchorPoint: "Anchor-1" 371.054 546 basechar 0
AnchorPoint: "Anchor-0" 189.592 -240 basechar 0
LayerCount: 2
Fore
SplineSet
347.69140625 -10 m 2,0,1
 351.154296875 5 351.154296875 5 357.233398438 27 c 128,-1,2
 363.3125 49 363.3125 49 371.161132812 70 c 1,3,-1
 366.161132812 70 l 1,4,5
 336.618164062 33 336.618164062 33 292.655273438 11.5 c 128,-1,6
 248.69140625 -10 248.69140625 -10 202.69140625 -10 c 0,7,8
 141.69140625 -10 141.69140625 -10 112.233398438 27 c 128,-1,9
 82.775390625 64 82.775390625 64 80.05078125 128 c 0,10,11
 79.7007415323 136.225243076 79.7007415323 136.225243076 79.7007415323 144.714762026 c 0,12,13
 79.7007415323 202.281553845 79.7007415323 202.281553845 95.7958984375 272 c 0,14,15
 114.49609375 353 114.49609375 353 146.772460938 417 c 128,-1,16
 179.047851562 481 179.047851562 481 226.205078125 518.5 c 128,-1,17
 273.362304688 556 273.362304688 556 337.362304688 556 c 0,18,19
 381.362304688 556 381.362304688 556 415.245117188 536 c 128,-1,20
 449.127929688 516 449.127929688 516 466.662109375 475 c 1,21,-1
 469.662109375 475 l 1,22,-1
 500.053710938 546 l 1,23,-1
 608.053710938 546 l 1,24,-1
 426.591796875 -240 l 1,25,-1
 294.591796875 -240 l 1,26,-1
 347.69140625 -10 l 2,0,1
292.93359375 108 m 0,27,28
 345.93359375 108 345.93359375 108 374.668945312 148 c 128,-1,29
 403.403320312 188 403.403320312 188 418.640625 254 c 2,30,-1
 423.719726562 276 l 2,31,32
 434.854870456 324.232477446 434.854870456 324.232477446 434.854870456 357.793250147 c 0,33,34
 434.854870456 382.680748323 434.854870456 382.680748323 428.731445312 399.5 c 0,35,36
 414.3515625 439 414.3515625 439 369.3515625 439 c 0,37,38
 274.3515625 439 274.3515625 439 234.873046875 268 c 0,39,40
 224.123810377 221.440625288 224.123810377 221.440625288 224.123810377 188.429846662 c 0,41,42
 224.123810377 164.720312644 224.123810377 164.720312644 229.668945312 148 c 0,43,44
 242.93359375 108 242.93359375 108 292.93359375 108 c 0,27,28
EndSplineSet
Validated: 1572865
Substitution2: "'smcp' Lowercase to Small Capitals lookup 35 subtable" q.sc
Substitution2: "'aalt' Access All Alternates lookup 0 subtable" q.sc
EndChar

StartChar: r
Encoding: 114 114 85
Width: 530
GlyphClass: 2
Flags: W
AnchorPoint: "Anchor-2" 636.054 546 basechar 0
AnchorPoint: "Anchor-1" 413.054 546 basechar 0
AnchorPoint: "Anchor-0" 219 0 basechar 0
LayerCount: 2
Fore
SplineSet
31 0 m 1,0,-1
 52.701171875 94 l 1,1,-1
 175.625976562 111 l 1,2,-1
 250.658203125 436 l 1,3,-1
 147.428710938 448 l 1,4,-1
 170.053710938 546 l 1,5,-1
 375.053710938 546 l 1,6,-1
 376.583007812 453 l 1,7,-1
 382.583007812 453 l 1,8,9
 413.97265625 498 413.97265625 498 452.66796875 527 c 128,-1,10
 491.362304688 556 491.362304688 556 550.362304688 556 c 0,11,12
 575.362304688 556 575.362304688 556 599.439453125 552 c 128,-1,13
 623.515625 548 623.515625 548 646.20703125 538 c 1,14,-1
 580.65625 410 l 1,15,16
 567.272460938 417 567.272460938 417 549.6953125 421 c 128,-1,17
 532.119140625 425 532.119140625 425 512.119140625 425 c 0,18,19
 449.119140625 425 449.119140625 425 405.076171875 381.5 c 128,-1,20
 361.033203125 338 361.033203125 338 344.411132812 266 c 2,21,-1
 308.625976562 111 l 1,22,-1
 433.701171875 94 l 1,23,-1
 412 0 l 1,24,-1
 31 0 l 1,0,-1
EndSplineSet
Validated: 1572865
Substitution2: "'smcp' Lowercase to Small Capitals lookup 35 subtable" r.sc
Substitution2: "'aalt' Access All Alternates lookup 0 subtable" r.sc
EndChar

StartChar: s
Encoding: 115 115 86
Width: 530
GlyphClass: 2
Flags: W
AnchorPoint: "Anchor-2" 636.054 546 basechar 0
AnchorPoint: "Anchor-1" 397.054 546 basechar 0
AnchorPoint: "Anchor-0" 271 0 basechar 0
LayerCount: 2
Fore
SplineSet
233.69140625 -10 m 0,0,1
 189.69140625 -10 189.69140625 -10 149.922851562 -2.5 c 128,-1,2
 110.154296875 5 110.154296875 5 75.0791015625 22 c 1,3,-1
 103.70703125 146 l 1,4,5
 136.55078125 128 136.55078125 128 181.780273438 116 c 128,-1,6
 227.010742188 104 227.010742188 104 270.010742188 104 c 0,7,8
 352.010742188 104 352.010742188 104 362.861328125 151 c 0,9,10
 364.135481075 156.519173525 364.135481075 156.519173525 364.135481075 161.467198117 c 0,11,12
 364.135481075 174.449483453 364.135481075 174.449483453 355.364257812 183.5 c 0,13,14
 343.25 196 343.25 196 318.020507812 208 c 128,-1,15
 292.791015625 220 292.791015625 220 257.177734375 239 c 256,16,17
 221.564453125 258 221.564453125 258 195.681640625 278 c 128,-1,18
 169.798828125 298 169.798828125 298 159.262695312 326 c 0,19,20
 153.838495168 340.416264974 153.838495168 340.416264974 153.838495168 358.808844281 c 0,21,22
 153.838495168 376.139264067 153.838495168 376.139264067 158.654296875 397 c 0,23,24
 177.124023438 477 177.124023438 477 242.743164062 516.5 c 128,-1,25
 308.362304688 556 308.362304688 556 401.362304688 556 c 0,26,27
 449.362304688 556 449.362304688 556 491.938476562 545.5 c 128,-1,28
 534.514648438 535 534.514648438 535 573.666015625 514 c 1,29,-1
 508.65625 410 l 1,30,31
 445.274414062 443 445.274414062 443 375.274414062 443 c 0,32,33
 342.274414062 443 342.274414062 443 321.465820312 433 c 128,-1,34
 300.657226562 423 300.657226562 423 295.578125 401 c 0,35,36
 291.883789062 385 291.883789062 385 300.459960938 374.5 c 128,-1,37
 309.036132812 364 309.036132812 364 332.765625 352 c 128,-1,38
 356.495117188 340 356.495117188 340 397.108398438 321 c 0,39,40
 434.953125 303 434.953125 303 461.720703125 282.5 c 128,-1,41
 488.487304688 262 488.487304688 262 499.446289062 231.5 c 0,42,43
 505.011088377 216.011201122 505.011088377 216.011201122 505.011088377 196.525095278 c 0,44,45
 505.011088377 177.639844316 505.011088377 177.639844316 499.784179688 155 c 0,46,47
 481.315429688 75 481.315429688 75 414.002929688 32.5 c 128,-1,48
 346.69140625 -10 346.69140625 -10 233.69140625 -10 c 0,0,1
EndSplineSet
Validated: 1572865
Substitution2: "'smcp' Lowercase to Small Capitals lookup 35 subtable" s.sc
Substitution2: "'subs' Subscript lookup 22 subtable" uni209B
AlternateSubs2: "'aalt' Access All Alternates lookup 1 subtable" s.sc uni209B
EndChar

StartChar: t
Encoding: 116 116 87
Width: 530
GlyphClass: 2
Flags: W
AnchorPoint: "Anchor-3" 286.412 279 basechar 0
AnchorPoint: "Anchor-2" 616.547 860 basechar 0
AnchorPoint: "Anchor-1" 399.452 682 basechar 0
AnchorPoint: "Anchor-0" 325 0 basechar 0
LayerCount: 2
Fore
SplineSet
336.69140625 -10 m 0,0,1
 236.69140625 -10 236.69140625 -10 203.157226562 37.5 c 0,2,3
 183.215708622 65.7472896678 183.215708622 65.7472896678 183.215708622 112.207247586 c 0,4,5
 183.215708622 143.873298466 183.215708622 143.873298466 192.479492188 184 c 2,6,-1
 249.2734375 430 l 1,7,-1
 136.2734375 430 l 1,8,-1
 153.588867188 505 l 1,9,-1
 289.053710938 546 l 1,10,-1
 354.452148438 682 l 1,11,-1
 443.452148438 682 l 1,12,-1
 412.053710938 546 l 1,13,-1
 608.053710938 546 l 1,14,-1
 581.2734375 430 l 1,15,-1
 382.2734375 430 l 1,16,-1
 328.01953125 195 l 2,17,18
 323.578020459 175.762596016 323.578020459 175.762596016 323.578020459 161.336202289 c 0,19,20
 323.578020459 138.266908606 323.578020459 138.266908606 334.935546875 127.5 c 0,21,22
 353.395507812 110 353.395507812 110 395.395507812 110 c 0,23,24
 441.395507812 110 441.395507812 110 514.55078125 128 c 1,25,-1
 488.000976562 13 l 1,26,27
 410.69140625 -10 410.69140625 -10 336.69140625 -10 c 0,0,1
EndSplineSet
Validated: 524289
Substitution2: "'smcp' Lowercase to Small Capitals lookup 35 subtable" t.sc
Substitution2: "'subs' Subscript lookup 22 subtable" uni209C
AlternateSubs2: "'aalt' Access All Alternates lookup 1 subtable" t.sc uni209C
EndChar

StartChar: u
Encoding: 117 117 88
Width: 530
GlyphClass: 2
Flags: W
AnchorPoint: "Anchor-2" 636.054 546 basechar 0
AnchorPoint: "Anchor-1" 391.054 546 basechar 0
AnchorPoint: "Anchor-0" 265 0 basechar 0
LayerCount: 2
Fore
SplineSet
199.69140625 -10 m 0,0,1
 117.69140625 -10 117.69140625 -10 90.9658203125 41 c 0,2,3
 76.4927004876 68.6188186405 76.4927004876 68.6188186405 76.4927004876 110.021397268 c 0,4,5
 76.4927004876 145.071455427 76.4927004876 145.071455427 86.865234375 190 c 2,6,-1
 169.053710938 546 l 1,7,-1
 302.053710938 546 l 1,8,-1
 228.17578125 226 l 2,9,10
 220.519810165 192.83757178 220.519810165 192.83757178 220.519810165 168.645068492 c 0,11,12
 220.519810165 151.255191917 220.519810165 151.255191917 224.475585938 138.5 c 0,13,14
 233.93359375 108 233.93359375 108 280.93359375 108 c 0,15,16
 337.93359375 108 337.93359375 108 366.784179688 155 c 128,-1,17
 395.635742188 202 395.635742188 202 415.952148438 290 c 2,18,-1
 475.053710938 546 l 1,19,-1
 608.053710938 546 l 1,20,-1
 482 0 l 1,21,-1
 377 0 l 1,22,-1
 372.161132812 70 l 1,23,-1
 364.161132812 70 l 1,24,25
 334.157226562 31 334.157226562 31 292.923828125 10.5 c 128,-1,26
 251.69140625 -10 251.69140625 -10 199.69140625 -10 c 0,0,1
EndSplineSet
Validated: 1572865
Substitution2: "'smcp' Lowercase to Small Capitals lookup 35 subtable" u.sc
Substitution2: "'aalt' Access All Alternates lookup 0 subtable" u.sc
EndChar

StartChar: v
Encoding: 118 118 89
Width: 530
GlyphClass: 2
Flags: W
AnchorPoint: "Anchor-2" 636.054 546 basechar 0
AnchorPoint: "Anchor-1" 391.054 546 basechar 0
AnchorPoint: "Anchor-0" 265 0 basechar 0
LayerCount: 2
Fore
SplineSet
183 0 m 1,0,-1
 139.053710938 546 l 1,1,-1
 282.053710938 546 l 1,2,-1
 291.485351562 236 l 2,3,4
 291.790039062 207 291.790039062 207 292.017578125 175.5 c 0,5,6
 292.038616459 172.5875 292.038616459 172.5875 292.038616459 169.713470096 c 0,7,8
 292.038616459 141.503571429 292.038616459 141.503571429 290.01171875 117 c 1,9,-1
 293.01171875 117 l 1,10,11
 303.013671875 143 303.013671875 143 316.825195312 172.5 c 128,-1,12
 330.635742188 202 330.635742188 202 347.25390625 235 c 2,13,-1
 501.053710938 546 l 1,14,-1
 643.053710938 546 l 1,15,-1
 340 0 l 1,16,-1
 183 0 l 1,0,-1
EndSplineSet
Validated: 1572865
Substitution2: "'smcp' Lowercase to Small Capitals lookup 35 subtable" v.sc
Substitution2: "'aalt' Access All Alternates lookup 0 subtable" v.sc
EndChar

StartChar: w
Encoding: 119 119 90
Width: 530
GlyphClass: 2
Flags: W
AnchorPoint: "Anchor-2" 636.054 546 basechar 0
AnchorPoint: "Anchor-1" 392.054 546 basechar 0
AnchorPoint: "Anchor-0" 266 0 basechar 0
LayerCount: 2
Fore
SplineSet
72 0 m 1,0,-1
 128.053710938 546 l 1,1,-1
 244.053710938 546 l 1,2,-1
 202.641601562 267 l 2,3,4
 197.791992188 233 197.791992188 233 192.366210938 203 c 128,-1,5
 186.940429688 173 186.940429688 173 181.090820312 139 c 1,6,-1
 186.090820312 139 l 1,7,8
 197.940429688 173 197.940429688 173 209.596679688 204 c 128,-1,9
 221.25390625 235 221.25390625 235 235.333984375 270 c 2,10,-1
 314.891601562 463 l 1,11,-1
 430.891601562 463 l 1,12,-1
 419.103515625 269 l 2,13,14
 416.946289062 238 416.946289062 238 414.212890625 204.5 c 128,-1,15
 411.478515625 171 411.478515625 171 409.090820312 139 c 1,16,-1
 413.090820312 139 l 1,17,18
 423.478515625 171 423.478515625 171 432.366210938 203 c 128,-1,19
 441.25390625 235 441.25390625 235 451.641601562 267 c 2,20,-1
 541.053710938 546 l 1,21,-1
 656.053710938 546 l 1,22,-1
 455 0 l 1,23,-1
 315 0 l 1,24,-1
 330.021484375 221 l 2,25,26
 331.024414062 247 331.024414062 247 333.141601562 267 c 128,-1,27
 335.258789062 287 335.258789062 287 338.03125 312 c 1,28,-1
 333.03125 312 l 1,29,30
 324.028320312 286 324.028320312 286 316.911132812 266 c 128,-1,31
 309.793945312 246 309.793945312 246 300.252929688 222 c 2,32,-1
 213 0 l 1,33,-1
 72 0 l 1,0,-1
EndSplineSet
Validated: 1572865
Substitution2: "'smcp' Lowercase to Small Capitals lookup 35 subtable" w.sc
Substitution2: "'aalt' Access All Alternates lookup 0 subtable" w.sc
EndChar

StartChar: x
Encoding: 120 120 91
Width: 530
GlyphClass: 2
Flags: W
AnchorPoint: "Anchor-2" 636.054 546 basechar 0
AnchorPoint: "Anchor-1" 391.054 546 basechar 0
AnchorPoint: "Anchor-0" 265 0 basechar 0
LayerCount: 2
Fore
SplineSet
13 0 m 1,0,-1
 241.181640625 278 l 1,1,-1
 147.053710938 546 l 1,2,-1
 302.053710938 546 l 1,3,-1
 349.266601562 365 l 1,4,-1
 484.053710938 546 l 1,5,-1
 638.053710938 546 l 1,6,-1
 418.181640625 278 l 1,7,-1
 517 0 l 1,8,-1
 362 0 l 1,9,-1
 308.403320312 188 l 1,10,-1
 169 0 l 1,11,-1
 13 0 l 1,0,-1
EndSplineSet
Validated: 1572865
Substitution2: "'smcp' Lowercase to Small Capitals lookup 35 subtable" x.sc
Substitution2: "'aalt' Access All Alternates lookup 0 subtable" x.sc
EndChar

StartChar: y
Encoding: 121 121 92
Width: 530
GlyphClass: 2
Flags: W
AnchorPoint: "Anchor-2" 636.054 546 basechar 0
AnchorPoint: "Anchor-1" 391.054 546 basechar 0
AnchorPoint: "Anchor-0" 208.438 -245 basechar 0
LayerCount: 2
Fore
SplineSet
58.4375 -245 m 0,0,1
 39.4375 -245 39.4375 -245 22.3994140625 -243 c 128,-1,2
 5.3603515625 -241 5.3603515625 -241 -10.7158203125 -237 c 1,3,-1
 14.91015625 -126 l 1,4,5
 26.2177734375 -129 26.2177734375 -129 37.8720703125 -130.5 c 128,-1,6
 49.525390625 -132 49.525390625 -132 57.525390625 -132 c 0,7,8
 134.525390625 -132 134.525390625 -132 188.2265625 -38 c 2,9,-1
 208.307617188 -3 l 1,10,-1
 139.053710938 546 l 1,11,-1
 291.053710938 546 l 1,12,-1
 306.0234375 234 l 2,13,14
 306.955120351 217.006863418 306.955120351 217.006863418 306.955120351 197.394527826 c 0,15,16
 306.955120351 192.770075498 306.955120351 192.770075498 306.903320312 188 c 0,17,18
 306.631835938 163 306.631835938 163 303.936523438 134 c 1,19,-1
 306.936523438 134 l 1,20,21
 315.938476562 160 315.938476562 160 326.826171875 185.5 c 128,-1,22
 337.712890625 211 337.712890625 211 349.0234375 234 c 2,23,-1
 495.053710938 546 l 1,24,-1
 643.053710938 546 l 1,25,-1
 330.07421875 -30 l 2,26,27
 295.529296875 -93 295.529296875 -93 254.33203125 -141.5 c 128,-1,28
 213.134765625 -190 213.134765625 -190 164.786132812 -217.5 c 128,-1,29
 116.4375 -245 116.4375 -245 58.4375 -245 c 0,0,1
EndSplineSet
Validated: 1572865
Substitution2: "'smcp' Lowercase to Small Capitals lookup 35 subtable" y.sc
Substitution2: "'aalt' Access All Alternates lookup 0 subtable" y.sc
EndChar

StartChar: z
Encoding: 122 122 93
Width: 530
GlyphClass: 2
Flags: W
AnchorPoint: "Anchor-2" 636.054 546 basechar 0
AnchorPoint: "Anchor-1" 394.054 546 basechar 0
AnchorPoint: "Anchor-0" 268 0 basechar 0
LayerCount: 2
Fore
SplineSet
58 0 m 1,0,-1
 78.0859375 87 l 1,1,-1
 403.735351562 432 l 1,2,-1
 166.735351562 432 l 1,3,-1
 193.053710938 546 l 1,4,-1
 587.053710938 546 l 1,5,-1
 564.66015625 449 l 1,6,-1
 250.319335938 114 l 1,7,-1
 498.319335938 114 l 1,8,-1
 472 0 l 1,9,-1
 58 0 l 1,0,-1
EndSplineSet
Validated: 1572865
Substitution2: "'smcp' Lowercase to Small Capitals lookup 35 subtable" z.sc
Substitution2: "'aalt' Access All Alternates lookup 0 subtable" z.sc
EndChar

StartChar: braceleft
Encoding: 123 123 94
Width: 530
Flags: W
LayerCount: 2
Fore
SplineSet
383.368164062 -163 m 1,0,1
 306.368164062 -163 306.368164062 -163 264.215820312 -148.5 c 128,-1,2
 222.063476562 -134 222.063476562 -134 210.14453125 -99 c 0,3,4
 204.631285081 -82.8116710875 204.631285081 -82.8116710875 204.631285081 -61.2751382367 c 0,5,6
 204.631285081 -36.2485790072 204.631285081 -36.2485790072 212.076171875 -4 c 2,7,-1
 244.859375 138 l 2,8,9
 248.361716031 153.170301624 248.361716031 153.170301624 248.361716031 165.784834599 c 0,10,11
 248.361716031 189.757540603 248.361716031 189.757540603 235.712890625 204.5 c 0,12,13
 216.407226562 227 216.407226562 227 160.407226562 227 c 1,14,-1
 183.724609375 328 l 1,15,16
 237.724609375 328 237.724609375 328 268.073242188 349 c 128,-1,17
 298.420898438 370 298.420898438 370 309.502929688 418 c 2,18,-1
 342.516601562 561 l 2,19,20
 355.21484375 616 355.21484375 616 381.794921875 651 c 128,-1,21
 408.375976562 686 408.375976562 686 457.684570312 702.5 c 128,-1,22
 506.994140625 719 506.994140625 719 586.994140625 719 c 1,23,-1
 563.907226562 619 l 1,24,25
 520.676757812 618 520.676757812 618 494.444335938 604 c 128,-1,26
 468.211914062 590 468.211914062 590 458.28515625 547 c 2,27,-1
 425.040039062 403 l 2,28,29
 412.341796875 348 412.341796875 348 383.03125 318.5 c 128,-1,30
 353.720703125 289 353.720703125 289 302.874023438 281 c 1,31,-1
 301.48828125 275 l 1,32,33
 350.411132812 266 350.411132812 266 365.100585938 236.5 c 0,34,35
 373.254346368 220.125262925 373.254346368 220.125262925 373.254346368 197.12617847 c 0,36,37
 373.254346368 178.691132514 373.254346368 178.691132514 368.015625 156 c 2,38,-1
 334.30859375 10 l 2,39,40
 331.153410913 -3.66652730797 331.153410913 -3.66652730797 331.153410913 -14.5701260855 c 0,41,42
 331.153410913 -34.7819923226 331.153410913 -34.7819923226 341.995117188 -45.5 c 0,43,44
 358.686523438 -62 358.686523438 -62 406.455078125 -63 c 1,45,-1
 383.368164062 -163 l 1,0,1
EndSplineSet
Validated: 524289
Substitution2: "'smcp' Lowercase to Small Capitals lookup 35 subtable" braceleft.sc
Substitution2: "'c2sc' Capitals to Small Capitals lookup 34 subtable" braceleft.sc
Substitution2: "'aalt' Access All Alternates lookup 0 subtable" braceleft.sc
EndChar

StartChar: bar
Encoding: 124 124 95
Width: 530
Flags: W
LayerCount: 2
Fore
SplineSet
154.591796875 -240 m 1,0,-1
 385.459960938 760 l 1,1,-1
 494.459960938 760 l 1,2,-1
 263.591796875 -240 l 1,3,-1
 154.591796875 -240 l 1,0,-1
EndSplineSet
Validated: 524289
EndChar

StartChar: asciitilde
Encoding: 126 126 97
Width: 530
Flags: W
LayerCount: 2
Fore
SplineSet
123.02734375 273 m 1,0,1
 134.33984375 322 134.33984375 322 154.651367188 364.5 c 128,-1,2
 174.962890625 407 174.962890625 407 206.465820312 433 c 128,-1,3
 237.96875 459 237.96875 459 281.96875 459 c 0,4,5
 311.96875 459 311.96875 459 334.005859375 444 c 128,-1,6
 356.041992188 429 356.041992188 429 379.5 392 c 0,7,8
 397.266601562 365 397.266601562 365 407.727539062 354 c 128,-1,9
 418.1875 343 418.1875 343 434.1875 343 c 0,10,11
 457.1875 343 457.1875 343 476.037109375 370.5 c 128,-1,12
 494.885742188 398 494.885742188 398 509.96875 459 c 1,13,-1
 577.96875 459 l 1,14,15
 565.65625 410 565.65625 410 544.84375 367.5 c 128,-1,16
 524.032226562 325 524.032226562 325 493.529296875 299 c 128,-1,17
 463.02734375 273 463.02734375 273 420.02734375 273 c 0,18,19
 394.02734375 273 394.02734375 273 373.413085938 285.5 c 128,-1,20
 352.798828125 298 352.798828125 298 325.033203125 338 c 0,21,22
 303.959960938 368 303.959960938 368 293.614257812 379.5 c 128,-1,23
 283.26953125 391 283.26953125 391 268.26953125 391 c 0,24,25
 244.26953125 391 244.26953125 391 223.8046875 363 c 128,-1,26
 203.340820312 335 203.340820312 335 189.02734375 273 c 1,27,-1
 123.02734375 273 l 1,0,1
EndSplineSet
Validated: 524289
EndChar

StartChar: cent
Encoding: 162 162 100
Width: 530
Flags: W
LayerCount: 2
Fore
SplineSet
291.854492188 86 m 1,0,1
 192.163085938 96 192.163085938 96 159.670898438 167.5 c 0,2,3
 142.041713122 206.292367147 142.041713122 206.292367147 142.041713122 260.244333113 c 0,4,5
 142.041713122 305.733722504 142.041713122 305.733722504 154.57421875 362 c 0,6,7
 183.740234375 484 183.740234375 484 250.708984375 557.5 c 128,-1,8
 317.677734375 631 317.677734375 631 420.448242188 643 c 1,9,-1
 439.1484375 724 l 1,10,-1
 512.1484375 724 l 1,11,-1
 494.140625 646 l 1,12,13
 526.678710938 644 526.678710938 644 558.6015625 635 c 128,-1,14
 590.5234375 626 590.5234375 626 610.522460938 613 c 1,15,-1
 551.743164062 510 l 1,16,17
 531.974609375 524 531.974609375 524 504.090820312 531 c 128,-1,18
 476.20703125 538 476.20703125 538 453.20703125 538 c 0,19,20
 387.20703125 538 387.20703125 538 345.125976562 496.5 c 128,-1,21
 303.044921875 455 303.044921875 455 281.57421875 362 c 0,22,23
 271.489813611 318.320027372 271.489813611 318.320027372 271.489813611 286.181914057 c 0,24,25
 271.489813611 252.101345803 271.489813611 252.101345803 282.830078125 231 c 0,26,27
 304.865234375 190 304.865234375 190 371.865234375 190 c 0,28,29
 403.865234375 190 403.865234375 190 441.2890625 200.5 c 128,-1,30
 478.712890625 211 478.712890625 211 510.869140625 229 c 1,31,-1
 485.704101562 120 l 1,32,33
 461.703125 107 461.703125 107 429.009765625 97.5 c 128,-1,34
 396.31640625 88 396.31640625 88 364.392578125 84 c 1,35,-1
 342.69140625 -10 l 1,36,-1
 269.69140625 -10 l 1,37,-1
 291.854492188 86 l 1,0,1
EndSplineSet
Validated: 524289
EndChar

StartChar: sterling
Encoding: 163 163 101
Width: 530
Flags: W
LayerCount: 2
Fore
SplineSet
91.1650390625 109 m 1,0,1
 129.782226562 129 129.782226562 129 153.630859375 156.5 c 128,-1,2
 177.479492188 184 177.479492188 184 189.715820312 237 c 2,3,-1
 207.723632812 315 l 1,4,-1
 137.723632812 315 l 1,5,-1
 160.118164062 412 l 1,6,-1
 230.118164062 412 l 1,7,-1
 255.513671875 522 l 2,8,9
 278.831054688 623 278.831054688 623 340.10546875 674 c 128,-1,10
 401.379882812 725 401.379882812 725 490.379882812 725 c 0,11,12
 569.379882812 725 569.379882812 725 628.14453125 685 c 1,13,-1
 566.903320312 580 l 1,14,15
 542.366210938 595 542.366210938 595 520.59765625 602.5 c 128,-1,16
 498.830078125 610 498.830078125 610 473.830078125 610 c 0,17,18
 440.830078125 610 440.830078125 610 417.250976562 588 c 128,-1,19
 393.671875 566 393.671875 566 381.666015625 514 c 2,20,-1
 358.118164062 412 l 1,21,-1
 496.118164062 412 l 1,22,-1
 473.723632812 315 l 1,23,-1
 335.723632812 315 l 1,24,-1
 317.946289062 238 l 2,25,26
 307.788085938 194 307.788085938 194 284.362304688 164 c 128,-1,27
 260.936523438 134 260.936523438 134 225.549804688 115 c 1,28,-1
 497.549804688 115 l 1,29,-1
 471 0 l 1,30,-1
 66 0 l 1,31,-1
 91.1650390625 109 l 1,0,1
EndSplineSet
Validated: 524289
EndChar

StartChar: currency
Encoding: 164 164 102
Width: 530
Flags: W
LayerCount: 2
Fore
SplineSet
413.557617188 193 m 1,0,1
 357.400390625 162 357.400390625 162 302.400390625 162 c 0,2,3
 242.400390625 162 242.400390625 162 202.557617188 193 c 1,4,-1
 124.782226562 129 l 1,5,-1
 78.865234375 190 l 1,6,-1
 158.409179688 253 l 1,7,8
 144.803501774 282.796216396 144.803501774 282.796216396 144.803501774 316.445794386 c 0,9,10
 144.803501774 337.003761478 144.803501774 337.003761478 149.881835938 359 c 0,11,12
 162.579101562 414 162.579101562 414 206.891601562 463 c 1,13,-1
 156.12890625 529 l 1,14,-1
 230.981445312 589 l 1,15,-1
 279.974609375 524 l 1,16,17
 334.362304688 556 334.362304688 556 393.362304688 556 c 0,18,19
 450.362304688 556 450.362304688 556 489.974609375 524 c 1,20,-1
 569.981445312 589 l 1,21,-1
 618.360351562 530 l 1,22,-1
 538.123046875 464 l 1,23,24
 550.227948909 435.764419857 550.227948909 435.764419857 550.227948909 403.55884069 c 0,25,26
 550.227948909 382.15609259 550.227948909 382.15609259 544.881835938 359 c 0,27,28
 531.260742188 300 531.260742188 300 489.178710938 252 c 1,29,-1
 537.633789062 189 l 1,30,-1
 463.55078125 128 l 1,31,-1
 413.557617188 193 l 1,0,1
322.486328125 249 m 256,32,33
 369.486328125 249 369.486328125 249 409.374023438 281 c 128,-1,34
 449.26171875 313 449.26171875 313 459.881835938 359 c 0,35,36
 463.24926961 373.586252165 463.24926961 373.586252165 463.24926961 386.727786682 c 0,37,38
 463.24926961 415.931065304 463.24926961 415.931065304 446.620117188 438 c 0,39,40
 422.5078125 470 422.5078125 470 373.5078125 470 c 256,41,42
 324.5078125 470 324.5078125 470 286.620117188 438 c 128,-1,43
 248.732421875 406 248.732421875 406 237.881835938 359 c 256,44,45
 234.525464547 344.461664811 234.525464547 344.461664811 234.525464547 331.406412214 c 0,46,47
 234.525464547 302.25622216 234.525464547 302.25622216 251.258789062 280.5 c 0,48,49
 275.486328125 249 275.486328125 249 322.486328125 249 c 256,32,33
EndSplineSet
Validated: 524289
EndChar

StartChar: yen
Encoding: 165 165 103
Width: 530
Flags: W
LayerCount: 2
Fore
SplineSet
201 0 m 1,0,-1
 227.549804688 115 l 1,1,-1
 101.549804688 115 l 1,2,-1
 120.481445312 197 l 1,3,-1
 246.481445312 197 l 1,4,-1
 262.873046875 268 l 1,5,-1
 136.873046875 268 l 1,6,-1
 156.03515625 351 l 1,7,-1
 258.03515625 351 l 1,8,-1
 197.83984375 714 l 1,9,-1
 333.83984375 714 l 1,10,-1
 364.349609375 426 l 1,11,-1
 524.83984375 714 l 1,12,-1
 661.83984375 714 l 1,13,-1
 431.03515625 351 l 1,14,-1
 536.03515625 351 l 1,15,-1
 516.873046875 268 l 1,16,-1
 390.873046875 268 l 1,17,-1
 374.481445312 197 l 1,18,-1
 500.481445312 197 l 1,19,-1
 481.549804688 115 l 1,20,-1
 355.549804688 115 l 1,21,-1
 329 0 l 1,22,-1
 201 0 l 1,0,-1
EndSplineSet
Validated: 524289
EndChar

StartChar: brokenbar
Encoding: 166 166 104
Width: 530
Flags: W
LayerCount: 2
Fore
SplineSet
294.036132812 364 m 1,0,-1
 385.228515625 759 l 1,1,-1
 494.228515625 759 l 1,2,-1
 403.036132812 364 l 1,3,-1
 294.036132812 364 l 1,0,-1
156.208007812 -233 m 1,4,-1
 247.631835938 163 l 1,5,-1
 356.631835938 163 l 1,6,-1
 265.208007812 -233 l 1,7,-1
 156.208007812 -233 l 1,4,-1
EndSplineSet
Validated: 524289
EndChar

StartChar: section
Encoding: 167 167 105
Width: 530
Flags: W
LayerCount: 2
Fore
SplineSet
231.383789062 -7 m 0,0,1
 142.383789062 -7 142.383789062 -7 91.1572265625 31 c 1,2,-1
 114.012695312 130 l 1,3,4
 139.395507812 110 139.395507812 110 175.047851562 95.5 c 128,-1,5
 210.700195312 81 210.700195312 81 250.700195312 81 c 0,6,7
 339.700195312 81 339.700195312 81 354.013671875 143 c 0,8,9
 355.840441315 150.912448265 355.840441315 150.912448265 355.840441315 158.006019939 c 0,10,11
 355.840441315 176.911174785 355.840441315 176.911174785 342.865234375 190 c 0,12,13
 325.020507812 208 325.020507812 208 283.561523438 232 c 0,14,15
 243.87109375 255 243.87109375 255 217.334960938 276.5 c 128,-1,16
 190.798828125 298 190.798828125 298 180.301757812 324 c 0,17,18
 174.582998113 338.163372859 174.582998113 338.163372859 174.582998113 355.887712536 c 0,19,20
 174.582998113 370.700314179 174.582998113 370.700314179 178.577148438 388 c 0,21,22
 188.735351562 432 188.735351562 432 216.545898438 461.5 c 128,-1,23
 244.356445312 491 244.356445312 491 286.743164062 510 c 1,24,25
 245.394422048 546.809689158 245.394422048 546.809689158 245.394422048 597.145386982 c 0,26,27
 245.394422048 612.447665213 245.394422048 612.447665213 249.215820312 629 c 0,28,29
 263.991210938 693 263.991210938 693 323.41796875 729.5 c 128,-1,30
 382.844726562 766 382.844726562 766 462.844726562 766 c 0,31,32
 503.844726562 766 503.844726562 766 538.036132812 756 c 128,-1,33
 572.227539062 746 572.227539062 746 606.072265625 728 c 1,34,-1
 553.140625 646 l 1,35,36
 497.528320312 678 497.528320312 678 445.528320312 678 c 0,37,38
 373.528320312 678 373.528320312 678 362.215820312 629 c 0,39,40
 360.565046676 621.849857949 360.565046676 621.849857949 360.565046676 615.398802832 c 0,41,42
 360.565046676 595.685259107 360.565046676 595.685259107 375.98046875 582.5 c 0,43,44
 396.440429688 565 396.440429688 565 427.747070312 549 c 0,45,46
 468.66796875 527 468.66796875 527 496.204101562 505.5 c 128,-1,47
 523.740234375 484 523.740234375 484 534.506835938 457 c 0,48,49
 540.302538404 442.465797568 540.302538404 442.465797568 540.302538404 424.16457247 c 0,50,51
 540.302538404 408.46784825 540.302538404 408.46784825 536.0390625 390 c 0,52,53
 526.111328125 347 526.111328125 347 500.30078125 317.5 c 128,-1,54
 474.490234375 288 474.490234375 288 436.411132812 266 c 1,55,56
 471.181480815 230.427771522 471.181480815 230.427771522 471.181480815 182.223677118 c 0,57,58
 471.181480815 165.382745376 471.181480815 165.382745376 466.9375 147 c 256,59,60
 450.545898438 76 450.545898438 76 386.96484375 34.5 c 128,-1,61
 323.383789062 -7 323.383789062 -7 231.383789062 -7 c 0,0,1
375.876953125 307 m 1,62,63
 395.416015625 318 395.416015625 318 408.610351562 334 c 128,-1,64
 421.803710938 350 421.803710938 350 426.8828125 372 c 0,65,66
 428.854847663 380.541650556 428.854847663 380.541650556 428.854847663 388.432648964 c 0,67,68
 428.854847663 407.332602999 428.854847663 407.332602999 417.541992188 422.5 c 0,69,70
 401.505859375 444 401.505859375 444 347.5078125 470 c 1,71,72
 297.583007812 453 297.583007812 453 287.424804688 409 c 0,73,74
 285.479243386 400.572526341 285.479243386 400.572526341 285.479243386 393.052560005 c 0,75,76
 285.479243386 373.80305791 285.479243386 373.80305791 298.227539062 360.5 c 0,77,78
 315.95703125 342 315.95703125 342 350.33984375 322 c 2,79,-1
 375.876953125 307 l 1,62,63
EndSplineSet
Validated: 524289
EndChar

StartChar: dieresis
Encoding: 168 168 106
Width: 530
GlyphClass: 2
Flags: W
AnchorPoint: "Anchor-1" 416.449 656 basechar 0
LayerCount: 2
Fore
SplineSet
503.752929688 614 m 256,0,1
 475.752929688 614 475.752929688 614 462.677734375 631 c 0,2,3
 454.416501303 641.741022132 454.416501303 641.741022132 454.416501303 658.869286143 c 0,4,5
 454.416501303 668.850219433 454.416501303 668.850219433 457.221679688 681 c 256,6,7
 464.83984375 714 464.83984375 714 486.149414062 730.5 c 128,-1,8
 507.458984375 747 507.458984375 747 534.458984375 747 c 0,9,10
 562.458984375 747 562.458984375 747 576.534179688 730 c 0,11,12
 585.764582365 718.851533352 585.764582365 718.851533352 585.764582365 701.252116429 c 0,13,14
 585.764582365 692.014651015 585.764582365 692.014651015 583.221679688 681 c 256,15,16
 575.833007812 649 575.833007812 649 553.79296875 631.5 c 128,-1,17
 531.752929688 614 531.752929688 614 503.752929688 614 c 256,0,1
309.752929688 614 m 0,18,19
 281.752929688 614 281.752929688 614 268.5625 630.5 c 0,20,21
 260.293150555 640.844186586 260.293150555 640.844186586 260.293150555 658.066383943 c 0,22,23
 260.293150555 668.315293572 260.293150555 668.315293572 263.221679688 681 c 0,24,25
 270.83984375 714 270.83984375 714 291.649414062 730.5 c 128,-1,26
 312.458984375 747 312.458984375 747 340.458984375 747 c 0,27,28
 367.458984375 747 367.458984375 747 381.034179688 730 c 0,29,30
 389.825234846 718.991102208 389.825234846 718.991102208 389.825234846 701.691763382 c 0,31,32
 389.825234846 692.277368862 389.825234846 692.277368862 387.221679688 681 c 256,33,34
 379.833007812 649 379.833007812 649 358.29296875 631.5 c 128,-1,35
 336.752929688 614 336.752929688 614 309.752929688 614 c 0,18,19
EndSplineSet
Validated: 1572865
EndChar

StartChar: copyright
Encoding: 169 169 107
Width: 530
Flags: W
LayerCount: 2
Fore
SplineSet
287.010742188 104 m 0,0,1
 206.010742188 104 206.010742188 104 158.590820312 139 c 128,-1,2
 111.170898438 174 111.170898438 174 96.21484375 230.5 c 0,3,4
 88.862830348 258.273952817 88.862830348 258.273952817 88.862830348 288.585182093 c 0,5,6
 88.862830348 319.935483871 88.862830348 319.935483871 96.7275390625 354 c 0,7,8
 112.887695312 424 112.887695312 424 156.432617188 480.5 c 128,-1,9
 199.9765625 537 199.9765625 537 263.979492188 569.5 c 128,-1,10
 327.982421875 602 327.982421875 602 403.982421875 602 c 0,11,12
 480.982421875 602 480.982421875 602 529.249023438 568.5 c 128,-1,13
 577.514648438 535 577.514648438 535 594.85546875 478 c 0,14,15
 603.769115304 448.69882169 603.769115304 448.69882169 603.769115304 415.698096841 c 0,16,17
 603.769115304 384.502041053 603.769115304 384.502041053 595.803710938 350 c 0,18,19
 578.950195312 277 578.950195312 277 534.637695312 221.5 c 128,-1,20
 490.32421875 166 490.32421875 166 426.166992188 135 c 128,-1,21
 362.010742188 104 362.010742188 104 287.010742188 104 c 0,0,1
300.862304688 164 m 0,22,23
 356.862304688 164 356.862304688 164 403.903320312 188 c 128,-1,24
 450.944335938 212 450.944335938 212 484.487304688 255.5 c 128,-1,25
 518.029296875 299 518.029296875 299 531.189453125 356 c 256,26,27
 537.4948349 383.31224664 537.4948349 383.31224664 537.4948349 407.180546758 c 0,28,29
 537.4948349 433.124813313 537.4948349 433.124813313 530.044921875 455 c 0,30,31
 515.741210938 497 515.741210938 497 480.051757812 520 c 128,-1,32
 444.361328125 543 444.361328125 543 390.361328125 543 c 0,33,34
 331.361328125 543 331.361328125 543 284.358398438 517 c 128,-1,35
 237.356445312 491 237.356445312 491 206.313476562 447.5 c 128,-1,36
 175.270507812 404 175.270507812 404 163.49609375 353 c 0,37,38
 157.104735829 325.314488222 157.104735829 325.314488222 157.104735829 300.494095491 c 0,39,40
 157.104735829 277.799353763 157.104735829 277.799353763 162.448242188 257.5 c 0,41,42
 173.63671875 215 173.63671875 215 208.25 189.5 c 128,-1,43
 242.862304688 164 242.862304688 164 300.862304688 164 c 0,22,23
320.711914062 198 m 0,44,45
 251.711914062 198 251.711914062 198 224.79296875 239.5 c 0,46,47
 208.150508616 265.157100884 208.150508616 265.157100884 208.150508616 302.472061071 c 0,48,49
 208.150508616 325.513524425 208.150508616 325.513524425 214.49609375 353 c 256,50,51
 231.119140625 425 231.119140625 425 278.430664062 467.5 c 128,-1,52
 325.743164062 510 325.743164062 510 393.743164062 510 c 0,53,54
 437.743164062 510 437.743164062 510 475.89453125 489 c 1,55,-1
 440.735351562 432 l 1,56,57
 412.66015625 449 412.66015625 449 382.66015625 449 c 0,58,59
 347.66015625 449 347.66015625 449 322.887695312 424 c 128,-1,60
 298.116210938 399 298.116210938 399 286.803710938 350 c 0,61,62
 282.248464616 330.269234336 282.248464616 330.269234336 282.248464616 314.864058824 c 0,63,64
 282.248464616 260 282.248464616 260 340.025390625 260 c 0,65,66
 356.025390625 260 356.025390625 260 375.833984375 263.5 c 128,-1,67
 395.641601562 267 395.641601562 267 415.48828125 275 c 1,68,-1
 401.63671875 215 l 1,69,70
 381.790039062 207 381.790039062 207 362.750976562 202.5 c 128,-1,71
 343.711914062 198 343.711914062 198 320.711914062 198 c 0,44,45
EndSplineSet
Validated: 524321
EndChar

StartChar: ordfeminine
Encoding: 170 170 108
Width: 530
GlyphClass: 2
Flags: W
AnchorPoint: "Anchor-1" 430.687 722 basechar 0
AnchorPoint: "Anchor-0" 344.96 368 basechar 0
LayerCount: 2
Fore
SplineSet
309.190429688 369 m 0,0,1
 259.190429688 369 259.190429688 369 239.231445312 399.5 c 0,2,3
 226.205071856 419.407016479 226.205071856 419.407016479 226.205071856 445.917079698 c 0,4,5
 226.205071856 460.023696985 226.205071856 460.023696985 229.893554688 476 c 0,6,7
 243.052734375 533 243.052734375 533 288.59375 557 c 128,-1,8
 334.134765625 581 334.134765625 581 407.2890625 586 c 2,9,-1
 455.750976562 588 l 1,10,-1
 458.751953125 601 l 2,11,12
 460.681795255 609.359095193 460.681795255 609.359095193 460.681795255 616.292180745 c 0,13,14
 460.681795255 650 460.681795255 650 415.064453125 650 c 0,15,16
 392.064453125 650 392.064453125 650 369.448242188 643 c 128,-1,17
 346.83203125 636 346.83203125 636 322.061523438 624 c 1,18,-1
 308.836914062 688 l 1,19,20
 342.53125 704 342.53125 704 376.609375 713 c 128,-1,21
 410.686523438 722 410.686523438 722 445.686523438 722 c 0,22,23
 511.686523438 722 511.686523438 722 536.068359375 689 c 0,24,25
 551.430460558 668.207076698 551.430460558 668.207076698 551.430460558 635.900816275 c 0,26,27
 551.430460558 616.934507735 551.430460558 616.934507735 546.135742188 594 c 2,28,-1
 495.575195312 375 l 1,29,-1
 433.575195312 375 l 1,30,-1
 430.811523438 428 l 1,31,32
 380.190429688 369 380.190429688 369 309.190429688 369 c 0,0,1
355.3515625 439 m 0,33,34
 385.3515625 439 385.3515625 439 408.19921875 460 c 128,-1,35
 431.047851562 481 431.047851562 481 438.897460938 515 c 2,36,-1
 443.052734375 533 l 1,37,-1
 401.360351562 530 l 2,38,39
 362.66796875 527 362.66796875 527 344.166015625 514 c 128,-1,40
 325.665039062 501 325.665039062 501 320.5859375 479 c 0,41,42
 318.98408378 472.061344291 318.98408378 472.061344291 318.98408378 466.326312158 c 0,43,44
 318.98408378 439 318.98408378 439 355.3515625 439 c 0,33,34
EndSplineSet
Validated: 1572865
EndChar

StartChar: guillemotleft
Encoding: 171 171 109
Width: 530
Flags: W
LayerCount: 2
Fore
SplineSet
414.620117188 46 m 1,0,-1
 310.256835938 261 l 1,1,-1
 313.48828125 275 l 1,2,-1
 517.125 490 l 1,3,-1
 597.043945312 442 l 1,4,-1
 449.873046875 268 l 1,5,-1
 516.932617188 95 l 1,6,-1
 414.620117188 46 l 1,0,-1
200.620117188 46 m 1,7,-1
 95.2568359375 261 l 1,8,-1
 98.48828125 275 l 1,9,-1
 303.125 490 l 1,10,-1
 383.043945312 442 l 1,11,-1
 233.873046875 268 l 1,12,-1
 302.932617188 95 l 1,13,-1
 200.620117188 46 l 1,7,-1
EndSplineSet
Validated: 524289
EndChar

StartChar: logicalnot
Encoding: 172 172 110
Width: 530
Flags: W
LayerCount: 2
Fore
SplineSet
392.473632812 119 m 1,0,-1
 434.72265625 302 l 1,1,-1
 127.72265625 302 l 1,2,-1
 151.270507812 404 l 1,3,-1
 562.270507812 404 l 1,4,-1
 496.473632812 119 l 1,5,-1
 392.473632812 119 l 1,0,-1
EndSplineSet
Validated: 524289
EndChar

StartChar: registered
Encoding: 174 174 112
Width: 530
Flags: W
LayerCount: 2
Fore
SplineSet
287.241210938 105 m 0,0,1
 206.241210938 105 206.241210938 105 158.706054688 139.5 c 128,-1,2
 111.170898438 174 111.170898438 174 96.330078125 231 c 0,3,4
 89.0082084011 259.123380629 89.0082084011 259.123380629 89.0082084011 289.437687957 c 0,5,6
 89.0082084011 320.563914413 89.0082084011 320.563914413 96.7275390625 354 c 0,7,8
 112.887695312 424 112.887695312 424 156.932617188 480.5 c 128,-1,9
 200.9765625 537 200.9765625 537 264.479492188 569.5 c 128,-1,10
 327.982421875 602 327.982421875 602 403.982421875 602 c 0,11,12
 480.982421875 602 480.982421875 602 529.249023438 568.5 c 128,-1,13
 577.514648438 535 577.514648438 535 594.85546875 478 c 0,14,15
 603.830698042 448.496385261 603.830698042 448.496385261 603.830698042 415.509845723 c 0,16,17
 603.830698042 384.767490672 603.830698042 384.767490672 596.03515625 351 c 0,18,19
 578.950195312 277 578.950195312 277 534.137695312 221.5 c 128,-1,20
 489.32421875 166 489.32421875 166 425.782226562 135.5 c 128,-1,21
 362.241210938 105 362.241210938 105 287.241210938 105 c 0,0,1
300.862304688 164 m 0,22,23
 356.862304688 164 356.862304688 164 404.018554688 188.5 c 128,-1,24
 451.174804688 213 451.174804688 213 484.102539062 256 c 128,-1,25
 517.029296875 299 517.029296875 299 530.189453125 356 c 256,26,27
 536.611761937 383.8187251 536.611761937 383.8187251 536.611761937 408.064590245 c 0,28,29
 536.611761937 433.498007968 536.611761937 433.498007968 529.544921875 455 c 0,30,31
 515.741210938 497 515.741210938 497 480.051757812 520 c 128,-1,32
 444.361328125 543 444.361328125 543 390.361328125 543 c 0,33,34
 331.361328125 543 331.361328125 543 284.358398438 517 c 128,-1,35
 237.356445312 491 237.356445312 491 206.313476562 447.5 c 128,-1,36
 175.270507812 404 175.270507812 404 163.49609375 353 c 0,37,38
 157.104735829 325.314488222 157.104735829 325.314488222 157.104735829 300.494095491 c 0,39,40
 157.104735829 277.799353763 157.104735829 277.799353763 162.448242188 257.5 c 0,41,42
 173.63671875 215 173.63671875 215 208.25 189.5 c 128,-1,43
 242.862304688 164 242.862304688 164 300.862304688 164 c 0,22,23
215.174804688 213 m 1,44,-1
 281.665039062 501 l 1,45,-1
 371.665039062 501 l 2,46,47
 467.610562984 501 467.610562984 501 467.610562984 438.2791691 c 0,48,49
 467.610562984 427.130437335 467.610562984 427.130437335 464.579101562 414 c 0,50,51
 457.422851562 383 457.422851562 383 441.036132812 364 c 128,-1,52
 424.649414062 345 424.649414062 345 402.340820312 335 c 1,53,-1
 429.174804688 213 l 1,54,-1
 357.174804688 213 l 1,55,-1
 340.5703125 323 l 1,56,-1
 306.5703125 323 l 1,57,-1
 281.174804688 213 l 1,58,-1
 215.174804688 213 l 1,44,-1
338.420898438 370 m 2,59,60
 359.420898438 370 359.420898438 370 374.229492188 380 c 128,-1,61
 389.0390625 390 389.0390625 390 394.348632812 413 c 0,62,63
 398.965820312 433 398.965820312 433 390.3125 441 c 128,-1,64
 381.66015625 449 381.66015625 449 357.66015625 449 c 2,65,-1
 335.66015625 449 l 1,66,-1
 317.420898438 370 l 1,67,-1
 338.420898438 370 l 2,59,60
EndSplineSet
Validated: 524289
EndChar

StartChar: overscore
Encoding: 175 175 113
Width: 530
Flags: W
LayerCount: 2
Fore
SplineSet
267.907226562 619 m 1,0,-1
 289.147460938 711 l 1,1,-1
 569.147460938 711 l 1,2,-1
 547.907226562 619 l 1,3,-1
 267.907226562 619 l 1,0,-1
EndSplineSet
Validated: 524289
EndChar

StartChar: degree
Encoding: 176 176 114
Width: 530
Flags: W
LayerCount: 2
Fore
SplineSet
362.581054688 427 m 0,0,1
 297.581054688 427 297.581054688 427 265.77734375 469 c 0,2,3
 244.16947764 497.535361122 244.16947764 497.535361122 244.16947764 536.68758006 c 0,4,5
 244.16947764 555.161868402 244.16947764 555.161868402 248.98046875 576 c 0,6,7
 258.676757812 618 258.676757812 618 285.41015625 651.5 c 128,-1,8
 312.14453125 685 312.14453125 685 350.146484375 704.5 c 128,-1,9
 388.1484375 724 388.1484375 724 431.1484375 724 c 0,10,11
 475.1484375 724 475.1484375 724 504.146484375 704.5 c 128,-1,12
 533.14453125 685 533.14453125 685 544.794921875 651 c 0,13,14
 551.22305804 632.240403293 551.22305804 632.240403293 551.22305804 611.349788177 c 0,15,16
 551.22305804 594.378133383 551.22305804 594.378133383 546.98046875 576 c 0,17,18
 531.973632812 511 531.973632812 511 480.77734375 469 c 128,-1,19
 429.581054688 427 429.581054688 427 362.581054688 427 c 0,0,1
380.588867188 505 m 0,20,21
 414.588867188 505 414.588867188 505 437.436523438 526 c 128,-1,22
 460.28515625 547 460.28515625 547 466.98046875 576 c 0,23,24
 469.29843197 586.040585182 469.29843197 586.040585182 469.29843197 595.017029438 c 0,25,26
 469.29843197 612.861066541 469.29843197 612.861066541 460.138671875 626.5 c 0,27,28
 446.372070312 647 446.372070312 647 413.372070312 647 c 256,29,30
 380.372070312 647 380.372070312 647 357.5234375 626 c 128,-1,31
 334.674804688 605 334.674804688 605 327.98046875 576 c 0,32,33
 325.71665761 566.195364696 325.71665761 566.195364696 325.71665761 557.405444167 c 0,34,35
 325.71665761 539.300165876 325.71665761 539.300165876 335.321289062 525.5 c 0,36,37
 349.588867188 505 349.588867188 505 380.588867188 505 c 0,20,21
EndSplineSet
Validated: 524289
EndChar

StartChar: plusminus
Encoding: 177 177 115
Width: 530
Flags: W
LayerCount: 2
Fore
SplineSet
249.784179688 155 m 1,0,-1
 292.725585938 341 l 1,1,-1
 135.725585938 341 l 1,2,-1
 159.274414062 443 l 1,3,-1
 316.274414062 443 l 1,4,-1
 359.677734375 631 l 1,5,-1
 462.677734375 631 l 1,6,-1
 419.274414062 443 l 1,7,-1
 576.274414062 443 l 1,8,-1
 552.725585938 341 l 1,9,-1
 395.725585938 341 l 1,10,-1
 352.784179688 155 l 1,11,-1
 249.784179688 155 l 1,0,-1
56 0 m 1,12,-1
 79.548828125 102 l 1,13,-1
 497.548828125 102 l 1,14,-1
 474 0 l 1,15,-1
 56 0 l 1,12,-1
EndSplineSet
Validated: 524289
EndChar

StartChar: uni00B2
Encoding: 178 178 116
Width: 530
Flags: W
LayerCount: 2
Fore
SplineSet
225.810546875 415 m 1,0,-1
 244.510742188 496 l 1,1,-1
 356.59765625 596 l 2,2,3
 403.293945312 638 403.293945312 638 429.642578125 665.5 c 128,-1,4
 455.991210938 693 455.991210938 693 463.610351562 726 c 0,5,6
 465.567773633 734.478382455 465.567773633 734.478382455 465.567773633 741.39409167 c 0,7,8
 465.567773633 772 465.567773633 772 427.23046875 772 c 0,9,10
 388.23046875 772 388.23046875 772 340.534179688 730 c 1,11,-1
 309.078125 793 l 1,12,13
 336.850585938 818 336.850585938 818 376.505859375 836 c 128,-1,14
 416.161132812 854 416.161132812 854 460.161132812 854 c 0,15,16
 520.161132812 854 520.161132812 854 547.2734375 822 c 0,17,18
 565.845791001 800.079498631 565.845791001 800.079498631 565.845791001 767.835575029 c 0,19,20
 565.845791001 753.009153939 565.845791001 753.009153939 561.918945312 736 c 0,21,22
 552.915039062 697 552.915039062 697 531.719726562 668 c 128,-1,23
 510.524414062 639 510.524414062 639 475.13671875 607 c 128,-1,24
 439.749023438 575 439.749023438 575 386.66796875 527 c 2,25,-1
 352.741210938 497 l 1,26,-1
 520.741210938 497 l 1,27,-1
 501.810546875 415 l 1,28,-1
 225.810546875 415 l 1,0,-1
EndSplineSet
Validated: 524289
EndChar

StartChar: uni00B3
Encoding: 179 179 117
Width: 530
Flags: W
LayerCount: 2
Fore
SplineSet
342.962890625 407 m 256,0,1
 273.962890625 407 273.962890625 407 231.120117188 438 c 1,2,-1
 251.66796875 527 l 1,3,4
 293.356445312 491 293.356445312 491 361.356445312 491 c 0,5,6
 424.356445312 491 424.356445312 491 435.668945312 540 c 0,7,8
 437.591803304 548.328753581 437.591803304 548.328753581 437.591803304 555.418790444 c 0,9,10
 437.591803304 596 437.591803304 596 374.59765625 596 c 2,11,-1
 332.59765625 596 l 1,12,-1
 349.912109375 671 l 1,13,-1
 385.912109375 671 l 2,14,15
 421.912109375 671 421.912109375 671 442.375976562 686 c 128,-1,16
 462.838867188 701 462.838867188 701 468.610351562 726 c 0,17,18
 470.427910887 733.872712261 470.427910887 733.872712261 470.427910887 740.528882819 c 0,19,20
 470.427910887 752.473131966 470.427910887 752.473131966 464.575195312 760.5 c 0,21,22
 455.4609375 773 455.4609375 773 429.4609375 773 c 0,23,24
 387.4609375 773 387.4609375 773 339.149414062 737 c 1,25,-1
 311.463867188 799 l 1,26,27
 345.465820312 825 345.465820312 825 382.198242188 839 c 128,-1,28
 418.930664062 853 418.930664062 853 457.930664062 853 c 0,29,30
 515.930664062 853 515.930664062 853 545.850585938 824.5 c 0,31,32
 567.322068213 804.048166105 567.322068213 804.048166105 567.322068213 772.009697592 c 0,33,34
 567.322068213 759.40198145 567.322068213 759.40198145 563.997070312 745 c 0,35,36
 547.143554688 672 547.143554688 672 469.986328125 641 c 1,37,-1
 469.063476562 637 l 1,38,39
 529.536811199 619.476322207 529.536811199 619.476322207 529.536811199 562.616041993 c 0,40,41
 529.536811199 548.091412061 529.536811199 548.091412061 525.590820312 531 c 0,42,43
 512.200195312 473 512.200195312 473 462.08203125 440 c 128,-1,44
 411.962890625 407 411.962890625 407 342.962890625 407 c 256,0,1
EndSplineSet
Validated: 524289
EndChar

StartChar: acute
Encoding: 180 180 118
Width: 530
Flags: W
LayerCount: 2
Fore
SplineSet
332.907226562 619 m 1,0,1
 367.680664062 657 367.680664062 657 398.837890625 694.5 c 128,-1,2
 429.995117188 732 429.995117188 732 454.844726562 766 c 1,3,-1
 600.844726562 766 l 1,4,-1
 598.767578125 757 l 1,5,6
 580.380859375 738 580.380859375 738 548.532226562 710.5 c 128,-1,7
 516.682617188 683 516.682617188 683 481.71875 655 c 128,-1,8
 446.75390625 627 446.75390625 627 418.90625 606 c 1,9,-1
 329.90625 606 l 1,10,-1
 332.907226562 619 l 1,0,1
EndSplineSet
Validated: 524289
EndChar

StartChar: uni00B5
Encoding: 181 181 119
Width: 530
GlyphClass: 2
Flags: W
AnchorPoint: "Anchor-2" 636.054 546 basechar 0
AnchorPoint: "Anchor-1" 391.054 546 basechar 0
AnchorPoint: "Anchor-0" 265 0 basechar 0
LayerCount: 2
Fore
SplineSet
199.69140625 -10 m 0,0,1
 185.69140625 -10 185.69140625 -10 172.921875 -9 c 1,2,-1
 119.591796875 -240 l 1,3,-1
 -12.408203125 -240 l 1,4,-1
 169.053710938 546 l 1,5,-1
 302.053710938 546 l 1,6,-1
 228.17578125 226 l 2,7,8
 220.519810165 192.83757178 220.519810165 192.83757178 220.519810165 168.645068492 c 0,9,10
 220.519810165 151.255191917 220.519810165 151.255191917 224.475585938 138.5 c 0,11,12
 233.93359375 108 233.93359375 108 280.93359375 108 c 0,13,14
 337.93359375 108 337.93359375 108 366.784179688 155 c 128,-1,15
 395.635742188 202 395.635742188 202 415.952148438 290 c 2,16,-1
 475.053710938 546 l 1,17,-1
 608.053710938 546 l 1,18,-1
 482 0 l 1,19,-1
 377 0 l 1,20,-1
 372.161132812 70 l 1,21,-1
 364.161132812 70 l 1,22,23
 334.157226562 31 334.157226562 31 292.923828125 10.5 c 128,-1,24
 251.69140625 -10 251.69140625 -10 199.69140625 -10 c 0,0,1
EndSplineSet
Validated: 1572865
EndChar

StartChar: paragraph
Encoding: 182 182 120
Width: 530
Flags: W
LayerCount: 2
Fore
SplineSet
319.2578125 274 m 1,0,1
 296.1796875 265 296.1796875 265 268.1796875 265 c 0,2,3
 186.1796875 265 186.1796875 265 159.416992188 324.5 c 0,4,5
 146.539116046 353.129615324 146.539116046 353.129615324 146.539116046 396.924090254 c 0,6,7
 146.539116046 444.14625068 146.539116046 444.14625068 161.51171875 509 c 0,8,9
 190.83203125 636 190.83203125 636 249.146484375 698 c 128,-1,10
 307.459960938 760 307.459960938 760 397.459960938 760 c 2,11,-1
 642.459960938 760 l 1,12,-1
 437.6796875 -127 l 1,13,-1
 364.6796875 -127 l 1,14,-1
 552.606445312 687 l 1,15,-1
 487.606445312 687 l 1,16,-1
 299.6796875 -127 l 1,17,-1
 226.6796875 -127 l 1,18,-1
 319.2578125 274 l 1,0,1
EndSplineSet
Validated: 524289
EndChar

StartChar: cedilla
Encoding: 184 184 122
Width: 530
Flags: W
LayerCount: 2
Fore
SplineSet
179.591796875 -240 m 0,0,1
 140.591796875 -240 140.591796875 -240 112.438476562 -232 c 1,2,-1
 129.291992188 -159 l 1,3,4
 141.368164062 -163 141.368164062 -163 153.907226562 -165 c 128,-1,5
 166.4453125 -167 166.4453125 -167 176.4453125 -167 c 0,6,7
 228.4453125 -167 228.4453125 -167 237.44921875 -128 c 0,8,9
 238.567903469 -123.154059097 238.567903469 -123.154059097 238.567903469 -118.797059308 c 0,10,11
 238.567903469 -86.2908379166 238.567903469 -86.2908379166 176.299804688 -81 c 1,12,-1
 230.461914062 2 l 1,13,-1
 303.461914062 2 l 1,14,-1
 276.765625 -40 l 1,15,16
 338.208342515 -54.5822024263 338.208342515 -54.5822024263 338.208342515 -107.886000619 c 0,17,18
 338.208342515 -120.37942149 338.208342515 -120.37942149 334.833007812 -135 c 0,19,20
 323.750976562 -183 323.750976562 -183 285.170898438 -211.5 c 128,-1,21
 246.591796875 -240 246.591796875 -240 179.591796875 -240 c 0,0,1
EndSplineSet
Validated: 524289
EndChar

StartChar: uni00B9
Encoding: 185 185 123
Width: 530
Flags: W
LayerCount: 2
Fore
SplineSet
242.810546875 415 m 1,0,-1
 258.047851562 481 l 1,1,-1
 353.125 490 l 1,2,-1
 387.986328125 641 l 2,3,4
 393.52734375 665 393.52734375 665 400.260742188 692 c 128,-1,5
 406.994140625 719 406.994140625 719 414.303710938 742 c 1,6,7
 405.918945312 736 405.918945312 736 393.91796875 729.5 c 128,-1,8
 381.91796875 723 381.91796875 723 371.763671875 718 c 2,9,-1
 324.22265625 694 l 1,10,-1
 297.3828125 764 l 1,11,-1
 447.622070312 843 l 1,12,-1
 523.622070312 843 l 1,13,-1
 442.125 490 l 1,14,-1
 528.278320312 482 l 1,15,-1
 512.810546875 415 l 1,16,-1
 242.810546875 415 l 1,0,-1
EndSplineSet
Validated: 524289
EndChar

StartChar: ordmasculine
Encoding: 186 186 124
Width: 530
GlyphClass: 2
Flags: W
AnchorPoint: "Anchor-1" 431.687 722 basechar 0
AnchorPoint: "Anchor-0" 348.96 368 basechar 0
LayerCount: 2
Fore
SplineSet
350.190429688 369 m 0,0,1
 281.190429688 369 281.190429688 369 251.65625 416.5 c 0,2,3
 233.573135082 445.584144885 233.573135082 445.584144885 233.573135082 487.2277272 c 0,4,5
 233.573135082 513.596120751 233.573135082 513.596120751 240.823242188 545 c 0,6,7
 260.215820312 629 260.215820312 629 311.451171875 675.5 c 128,-1,8
 362.686523438 722 362.686523438 722 432.686523438 722 c 0,9,10
 499.686523438 722 499.686523438 722 530.067382812 676 c 0,11,12
 548.52468643 648.052691196 548.52468643 648.052691196 548.52468643 605.709810225 c 0,13,14
 548.52468643 578.358233732 548.52468643 578.358233732 540.823242188 545 c 0,15,16
 521.661132812 462 521.661132812 462 471.42578125 415.5 c 128,-1,17
 421.190429688 369 421.190429688 369 350.190429688 369 c 0,0,1
367.274414062 443 m 256,18,19
 426.274414062 443 426.274414062 443 449.823242188 545 c 0,20,21
 456.654116346 574.587924404 456.654116346 574.587924404 456.654116346 595.676380162 c 0,22,23
 456.654116346 648 456.654116346 648 414.602539062 648 c 256,24,25
 355.602539062 648 355.602539062 648 331.823242188 545 c 0,26,27
 325.105432636 515.902306873 325.105432636 515.902306873 325.105432636 495.105356348 c 0,28,29
 325.105432636 443 325.105432636 443 367.274414062 443 c 256,18,19
EndSplineSet
Validated: 1572865
EndChar

StartChar: onequarter
Encoding: 188 188 126
Width: 530
Flags: W
LayerCount: 2
Fore
SplineSet
116.268554688 378 m 1,0,-1
 130.3515625 439 l 1,1,-1
 199.736328125 445 l 1,2,-1
 221.899414062 541 l 2,3,4
 226.516601562 561 226.516601562 561 232.211914062 583.5 c 128,-1,5
 237.90625 606 237.90625 606 243.75390625 627 c 1,6,7
 236.369140625 621 236.369140625 621 227.868164062 614.5 c 128,-1,8
 219.368164062 608 219.368164062 608 212.213867188 603 c 2,9,-1
 177.827148438 584 l 1,10,-1
 158.833007812 649 l 1,11,-1
 275.83984375 714 l 1,12,-1
 334.83984375 714 l 1,13,-1
 272.736328125 445 l 1,14,-1
 336.3515625 439 l 1,15,-1
 322.268554688 378 l 1,16,-1
 116.268554688 378 l 1,0,-1
47.4677734375 67 m 1,17,-1
 547.29296875 625 l 1,18,-1
 651.29296875 625 l 1,19,-1
 152.467773438 67 l 1,20,-1
 47.4677734375 67 l 1,17,-1
390 0 m 1,21,-1
 404.544921875 63 l 1,22,-1
 278.544921875 63 l 1,23,-1
 292.858398438 125 l 1,24,-1
 461.802734375 337 l 1,25,-1
 542.802734375 337 l 1,26,-1
 494.782226562 129 l 1,27,-1
 539.782226562 129 l 1,28,-1
 524.544921875 63 l 1,29,-1
 479.544921875 63 l 1,30,-1
 465 0 l 1,31,-1
 390 0 l 1,21,-1
358.782226562 129 m 1,32,-1
 419.782226562 129 l 1,33,-1
 435.481445312 197 l 2,34,35
 439.174804688 213 439.174804688 213 442.560546875 225.5 c 128,-1,36
 445.946289062 238 445.946289062 238 450.409179688 253 c 1,37,38
 443.408203125 240 443.408203125 240 433.522460938 227.5 c 128,-1,39
 423.63671875 215 423.63671875 215 416.328125 205 c 2,40,-1
 358.782226562 129 l 1,32,-1
EndSplineSet
Validated: 524289
EndChar

StartChar: onehalf
Encoding: 189 189 127
Width: 530
Flags: W
LayerCount: 2
Fore
SplineSet
116.268554688 378 m 1,0,-1
 130.3515625 439 l 1,1,-1
 199.736328125 445 l 1,2,-1
 221.899414062 541 l 2,3,4
 226.516601562 561 226.516601562 561 232.211914062 583.5 c 128,-1,5
 237.90625 606 237.90625 606 243.75390625 627 c 1,6,7
 236.369140625 621 236.369140625 621 227.868164062 614.5 c 128,-1,8
 219.368164062 608 219.368164062 608 212.213867188 603 c 2,9,-1
 177.827148438 584 l 1,10,-1
 158.833007812 649 l 1,11,-1
 275.83984375 714 l 1,12,-1
 334.83984375 714 l 1,13,-1
 272.736328125 445 l 1,14,-1
 336.3515625 439 l 1,15,-1
 322.268554688 378 l 1,16,-1
 116.268554688 378 l 1,0,-1
47.4677734375 67 m 1,17,-1
 547.29296875 625 l 1,18,-1
 651.29296875 625 l 1,19,-1
 152.467773438 67 l 1,20,-1
 47.4677734375 67 l 1,17,-1
307 0 m 1,21,-1
 321.467773438 67 l 1,22,-1
 408.399414062 149 l 2,23,24
 447.7109375 185 447.7109375 185 462.635742188 202 c 128,-1,25
 477.560546875 219 477.560546875 219 482.177734375 239 c 0,26,27
 483.934646829 246.610672231 483.934646829 246.610672231 483.934646829 252.612390801 c 0,28,29
 483.934646829 275 483.934646829 275 459.48828125 275 c 0,30,31
 444.48828125 275 444.48828125 275 430.026367188 266.5 c 128,-1,32
 415.564453125 258 415.564453125 258 396.870117188 242 c 1,33,-1
 371.106445312 295 l 1,34,35
 393.185546875 317 393.185546875 317 423.916992188 331 c 128,-1,36
 454.649414062 345 454.649414062 345 489.649414062 345 c 0,37,38
 536.649414062 345 536.649414062 345 554.53125 318.5 c 0,39,40
 565.934945116 301.600285585 565.934945116 301.600285585 565.934945116 277.583438983 c 0,41,42
 565.934945116 263.94009682 565.934945116 263.94009682 562.254882812 248 c 0,43,44
 556.021484375 221 556.021484375 221 539.442382812 199 c 128,-1,45
 522.86328125 177 522.86328125 177 498.553710938 154 c 128,-1,46
 474.244140625 131 474.244140625 131 442.625 98 c 2,47,-1
 414.622070312 72 l 1,48,-1
 534.622070312 72 l 1,49,-1
 518 0 l 1,50,-1
 307 0 l 1,21,-1
EndSplineSet
Validated: 524289
EndChar

StartChar: threequarters
Encoding: 190 190 128
Width: 530
Flags: W
LayerCount: 2
Fore
SplineSet
212.114257812 373 m 0,0,1
 185.114257812 373 185.114257812 373 163.383789062 378.5 c 128,-1,2
 141.653320312 384 141.653320312 384 126.654296875 397 c 1,3,-1
 143.969726562 472 l 1,4,5
 159.506835938 457 159.506835938 457 180.275390625 449.5 c 128,-1,6
 201.043945312 442 201.043945312 442 223.043945312 442 c 0,7,8
 268.043945312 442 268.043945312 442 277.509765625 483 c 0,9,10
 281.665039062 501 281.665039062 501 273.243164062 510 c 128,-1,11
 264.8203125 519 264.8203125 519 237.8203125 519 c 2,12,-1
 203.8203125 519 l 1,13,-1
 218.365234375 582 l 1,14,-1
 246.365234375 582 l 2,15,16
 272.365234375 582 272.365234375 582 285.2890625 592.5 c 128,-1,17
 298.213867188 603 298.213867188 603 302.138671875 620 c 0,18,19
 303.851999892 627.421871215 303.851999892 627.421871215 303.851999892 633.313626531 c 0,20,21
 303.851999892 656 303.851999892 656 278.44921875 656 c 0,22,23
 249.44921875 656 249.44921875 656 210.75390625 627 c 1,24,-1
 188.221679688 681 l 1,25,26
 213.838867188 701 213.838867188 701 242.377929688 712 c 128,-1,27
 270.91796875 723 270.91796875 723 301.91796875 723 c 0,28,29
 347.91796875 723 347.91796875 723 368.4921875 699.5 c 0,30,31
 382.693156839 683.280334797 382.693156839 683.280334797 382.693156839 659.200498659 c 0,32,33
 382.693156839 648.392059228 382.693156839 648.392059228 379.83203125 636 c 0,34,35
 365.98046875 576 365.98046875 576 315.59375 557 c 1,36,-1
 314.901367188 554 l 1,37,38
 353.764583454 539.965383969 353.764583454 539.965383969 353.764583454 499.789628349 c 0,39,40
 353.764583454 488.438245673 353.764583454 488.438245673 350.662109375 475 c 0,41,42
 339.811523438 428 339.811523438 428 302.962890625 400.5 c 128,-1,43
 266.114257812 373 266.114257812 373 212.114257812 373 c 0,0,1
47.4677734375 67 m 1,44,-1
 547.29296875 625 l 1,45,-1
 651.29296875 625 l 1,46,-1
 151.467773438 67 l 1,47,-1
 47.4677734375 67 l 1,44,-1
390 0 m 1,48,-1
 404.544921875 63 l 1,49,-1
 278.544921875 63 l 1,50,-1
 292.858398438 125 l 1,51,-1
 461.802734375 337 l 1,52,-1
 542.802734375 337 l 1,53,-1
 494.782226562 129 l 1,54,-1
 539.782226562 129 l 1,55,-1
 524.544921875 63 l 1,56,-1
 479.544921875 63 l 1,57,-1
 465 0 l 1,58,-1
 390 0 l 1,48,-1
358.782226562 129 m 1,59,-1
 419.782226562 129 l 1,60,-1
 435.481445312 197 l 2,61,62
 439.174804688 213 439.174804688 213 442.560546875 225.5 c 128,-1,63
 445.946289062 238 445.946289062 238 450.409179688 253 c 1,64,65
 442.408203125 240 442.408203125 240 433.022460938 227.5 c 128,-1,66
 423.63671875 215 423.63671875 215 416.328125 205 c 2,67,-1
 358.782226562 129 l 1,59,-1
EndSplineSet
Validated: 524289
EndChar

StartChar: AE
Encoding: 198 198 136
Width: 530
GlyphClass: 2
Flags: W
AnchorPoint: "Anchor-1" 461.84 714 basechar 0
AnchorPoint: "Anchor-0" 265 0 basechar 0
LayerCount: 2
Fore
SplineSet
10 0 m 1,0,-1
 319.83984375 714 l 1,1,-1
 671.83984375 714 l 1,2,-1
 644.135742188 594 l 1,3,-1
 535.135742188 594 l 1,4,-1
 497.735351562 432 l 1,5,-1
 590.735351562 432 l 1,6,-1
 562.569335938 310 l 1,7,-1
 469.569335938 310 l 1,8,-1
 425.934570312 121 l 1,9,-1
 534.934570312 121 l 1,10,-1
 507 0 l 1,11,-1
 275 0 l 1,12,-1
 315.40234375 175 l 1,13,-1
 214.40234375 175 l 1,14,-1
 142 0 l 1,15,-1
 10 0 l 1,0,-1
388.290039062 599 m 1,16,-1
 263.567382812 297 l 1,17,-1
 343.567382812 297 l 1,18,-1
 413.290039062 599 l 1,19,-1
 388.290039062 599 l 1,16,-1
EndSplineSet
Validated: 1572865
Substitution2: "'c2sc' Capitals to Small Capitals lookup 34 subtable" ae.sc
Substitution2: "'aalt' Access All Alternates lookup 0 subtable" ae.sc
EndChar

StartChar: Eth
Encoding: 208 208 146
Width: 530
GlyphClass: 2
Flags: W
AnchorPoint: "Anchor-3" 358.42 357 basechar 0
AnchorPoint: "Anchor-2" 701.84 714 basechar 0
AnchorPoint: "Anchor-1" 429.84 714 basechar 0
AnchorPoint: "Anchor-0" 265 0 basechar 0
LayerCount: 2
Fore
SplineSet
45 0 m 1,0,-1
 117.03125 312 l 1,1,-1
 72.03125 312 l 1,2,-1
 96.041015625 416 l 1,3,-1
 141.041015625 416 l 1,4,-1
 209.83984375 714 l 1,5,-1
 404.83984375 714 l 2,6,7
 534.83984375 714 534.83984375 714 586.408203125 625.5 c 0,8,9
 615.765125743 575.118570705 615.765125743 575.118570705 615.765125743 498.648569462 c 0,10,11
 615.765125743 440.791394905 615.765125743 440.791394905 598.959960938 368 c 0,12,13
 557.865234375 190 557.865234375 190 461.432617188 95 c 128,-1,14
 365 0 365 0 230 0 c 2,15,-1
 45 0 l 1,0,-1
249.704101562 120 m 2,16,17
 329.704101562 120 329.704101562 120 380.940429688 179.5 c 128,-1,18
 432.177734375 239 432.177734375 239 460.8046875 363 c 0,19,20
 475.743823332 427.70735811 475.743823332 427.70735811 475.743823332 473.539995587 c 0,21,22
 475.743823332 513.412435504 475.743823332 513.412435504 464.4375 539 c 0,23,24
 440.135742188 594 440.135742188 594 367.135742188 594 c 2,25,-1
 315.135742188 594 l 1,26,-1
 274.041015625 416 l 1,27,-1
 363.041015625 416 l 1,28,-1
 339.03125 312 l 1,29,-1
 250.03125 312 l 1,30,-1
 205.704101562 120 l 1,31,-1
 249.704101562 120 l 2,16,17
EndSplineSet
Validated: 524289
Substitution2: "'c2sc' Capitals to Small Capitals lookup 34 subtable" eth.sc
Substitution2: "'aalt' Access All Alternates lookup 0 subtable" eth.sc
EndChar

StartChar: multiply
Encoding: 215 215 153
Width: 530
Flags: W
LayerCount: 2
Fore
SplineSet
163.168945312 148 m 1,0,-1
 111.021484375 221 l 1,1,-1
 272.49609375 353 l 1,2,-1
 171.970703125 485 l 1,3,-1
 257.82421875 558 l 1,4,-1
 362.349609375 426 l 1,5,-1
 526.82421875 558 l 1,6,-1
 582.432617188 487 l 1,7,-1
 416.49609375 353 l 1,8,-1
 517.791015625 220 l 1,9,-1
 431.168945312 148 l 1,10,-1
 328.874023438 281 l 1,11,-1
 163.168945312 148 l 1,0,-1
EndSplineSet
Validated: 524289
EndChar

StartChar: Oslash
Encoding: 216 216 154
Width: 530
GlyphClass: 2
Flags: W
AnchorPoint: "Anchor-3" 347.42 357 basechar 0
AnchorPoint: "Anchor-2" 694.84 714 basechar 0
AnchorPoint: "Anchor-1" 429.84 714 basechar 0
AnchorPoint: "Anchor-0" 265 0 basechar 0
LayerCount: 2
Fore
SplineSet
77.6875 -49 m 1,0,-1
 16.4609375 -11 l 1,1,-1
 100.39453125 97 l 1,2,3
 84.9170484485 139.417874396 84.9170484485 139.417874396 84.9170484485 197.718901047 c 0,4,5
 84.9170484485 204.016779731 84.9170484485 204.016779731 85.09765625 210.5 c 0,6,7
 86.9501953125 277 86.9501953125 277 105.881835938 359 c 0,8,9
 146.9765625 537 146.9765625 537 229.29296875 631.5 c 128,-1,10
 311.610351562 726 311.610351562 726 432.610351562 726 c 0,11,12
 512.610351562 726 512.610351562 726 556.682617188 683 c 1,13,-1
 612.07421875 754 l 1,14,-1
 671.532226562 717 l 1,15,-1
 595.907226562 619 l 1,16,17
 610.488077204 576.565025115 610.488077204 576.565025115 610.488077204 518.641677764 c 0,18,19
 610.488077204 512.410460799 610.488077204 512.410460799 610.319335938 506 c 0,20,21
 608.58203125 440 608.58203125 440 589.650390625 358 c 0,22,23
 563.5625 245 563.5625 245 518.631835938 163 c 128,-1,24
 473.700195312 81 473.700195312 81 409.311523438 36 c 128,-1,25
 344.921875 -9 344.921875 -9 262.921875 -9 c 0,26,27
 184.921875 -9 184.921875 -9 140.618164062 33 c 1,28,-1
 77.6875 -49 l 1,0,-1
242.650390625 358 m 0,29,30
 229.260742188 300 229.260742188 300 225.102539062 256 c 1,31,-1
 465.440429688 565 l 1,32,33
 449.90625 606 449.90625 606 404.90625 606 c 0,34,35
 349.90625 606 349.90625 606 310.24609375 542.5 c 128,-1,36
 270.5859375 479 270.5859375 479 242.650390625 358 c 0,29,30
290.857421875 112 m 0,37,38
 345.857421875 112 345.857421875 112 385.055664062 173.5 c 128,-1,39
 424.25390625 235 424.25390625 235 452.650390625 358 c 0,40,41
 465.810546875 415 465.810546875 415 470.737304688 458 c 1,42,-1
 231.629882812 150 l 1,43,44
 247.857421875 112 247.857421875 112 290.857421875 112 c 0,37,38
EndSplineSet
Validated: 524289
Substitution2: "'c2sc' Capitals to Small Capitals lookup 34 subtable" oslash.sc
Substitution2: "'aalt' Access All Alternates lookup 0 subtable" oslash.sc
EndChar

StartChar: Thorn
Encoding: 222 222 160
Width: 530
GlyphClass: 2
Flags: W
AnchorPoint: "Anchor-1" 429.84 714 basechar 0
AnchorPoint: "Anchor-0" 265 0 basechar 0
LayerCount: 2
Fore
SplineSet
63 0 m 1,0,-1
 227.83984375 714 l 1,1,-1
 358.83984375 714 l 1,2,-1
 331.135742188 594 l 1,3,-1
 409.135742188 594 l 2,4,5
 521.135742188 594 521.135742188 594 563.4765625 537 c 0,6,7
 590.215958366 501.002097566 590.215958366 501.002097566 590.215958366 445.061920899 c 0,8,9
 590.215958366 412.424990168 590.215958366 412.424990168 581.114257812 373 c 0,10,11
 556.1796875 265 556.1796875 265 485.173828125 200 c 128,-1,12
 414.166992188 135 414.166992188 135 296.166992188 135 c 2,13,-1
 225.166992188 135 l 1,14,-1
 194 0 l 1,15,-1
 63 0 l 1,0,-1
306.87109375 255 m 2,16,17
 359.87109375 255 359.87109375 255 395.989257812 281.5 c 128,-1,18
 432.107421875 308 432.107421875 308 446.420898438 370 c 0,19,20
 451.191472728 390.663769072 451.191472728 390.663769072 451.191472728 407.154268754 c 0,21,22
 451.191472728 433.757890951 451.191472728 433.757890951 438.775390625 449.5 c 0,23,24
 418.662109375 475 418.662109375 475 370.662109375 475 c 2,25,-1
 303.662109375 475 l 1,26,-1
 252.87109375 255 l 1,27,-1
 306.87109375 255 l 2,16,17
EndSplineSet
Validated: 1572865
Substitution2: "'c2sc' Capitals to Small Capitals lookup 34 subtable" thorn.sc
Substitution2: "'aalt' Access All Alternates lookup 0 subtable" thorn.sc
EndChar

StartChar: germandbls
Encoding: 223 223 161
Width: 530
GlyphClass: 2
Flags: W
AnchorPoint: "Anchor-1" 441.614 765 basechar 0
AnchorPoint: "Anchor-0" 265 0 basechar 0
LayerCount: 2
Fore
SplineSet
329.69140625 -10 m 0,0,1
 299.69140625 -10 299.69140625 -10 270.692382812 -3.5 c 128,-1,2
 241.692382812 3 241.692382812 3 218.38671875 19 c 1,3,-1
 245.62890625 137 l 1,4,5
 264.704101562 120 264.704101562 120 289.165039062 109 c 128,-1,6
 313.625 98 313.625 98 340.625 98 c 0,7,8
 399.625 98 399.625 98 412.784179688 155 c 0,9,10
 414.994734842 164.575031946 414.994734842 164.575031946 414.994734842 173.018196772 c 0,11,12
 414.994734842 188.383354631 414.994734842 188.383354631 407.673828125 200 c 0,13,14
 396.329101562 218 396.329101562 218 366.254882812 248 c 0,15,16
 339.2578125 274 339.2578125 274 321.876953125 307 c 0,17,18
 311.347759447 326.990028248 311.347759447 326.990028248 311.347759447 352.851148937 c 0,19,20
 311.347759447 369.682163156 311.347759447 369.682163156 315.807617188 389 c 0,21,22
 324.811523438 428 324.811523438 428 345.967773438 452.5 c 128,-1,23
 367.124023438 477 367.124023438 477 391.510742188 496 c 128,-1,24
 415.897460938 515 415.897460938 515 436.245117188 536 c 128,-1,25
 456.59375 557 456.59375 557 463.981445312 589 c 256,26,27
 466.479564168 599.820668693 466.479564168 599.820668693 466.479564168 608.983368998 c 0,28,29
 466.479564168 626.917553191 466.479564168 626.917553191 456.909179688 638.5 c 0,30,31
 442.44921875 656 442.44921875 656 409.44921875 656 c 0,32,33
 323.44921875 656 323.44921875 656 297.592773438 544 c 2,34,-1
 172 0 l 1,35,-1
 45 0 l 1,36,-1
 172.901367188 554 l 2,37,38
 195.98828125 654 195.98828125 654 265.30078125 709.5 c 128,-1,39
 334.614257812 765 334.614257812 765 433.614257812 765 c 0,40,41
 520.614257812 765 520.614257812 765 566.571289062 721.5 c 0,42,43
 599.590188156 690.246412214 599.590188156 690.246412214 599.590188156 641.183791341 c 0,44,45
 599.590188156 621.959083969 599.590188156 621.959083969 594.520507812 600 c 0,46,47
 584.59375 557 584.59375 557 562.513671875 528.5 c 128,-1,48
 540.434570312 500 540.434570312 500 515.81640625 480 c 128,-1,49
 491.19921875 460 491.19921875 460 471.659179688 442.5 c 128,-1,50
 452.119140625 425 452.119140625 425 447.040039062 403 c 0,51,52
 445.747851091 397.403381643 445.747851091 397.403381643 445.747851091 392.019839047 c 0,53,54
 445.747851091 377.202898551 445.747851091 377.202898551 455.536132812 364 c 0,55,56
 468.880859375 346 468.880859375 346 489.5703125 323 c 0,57,58
 513.567382812 297 513.567382812 297 528.873046875 274.5 c 128,-1,59
 544.178710938 252 544.178710938 252 548.060546875 225.5 c 0,60,61
 549.251340042 217.370851983 549.251340042 217.370851983 549.251340042 208.15953231 c 0,62,63
 549.251340042 187.343108504 549.251340042 187.343108504 543.169921875 161 c 0,64,65
 524.23828125 79 524.23828125 79 469.46484375 34.5 c 128,-1,66
 414.69140625 -10 414.69140625 -10 329.69140625 -10 c 0,0,1
EndSplineSet
Validated: 1572865
Substitution2: "'smcp' Lowercase to Small Capitals lookup 35 subtable" germandbls.sc
Substitution2: "'aalt' Access All Alternates lookup 0 subtable" germandbls.sc
EndChar

StartChar: ae
Encoding: 230 230 168
Width: 530
GlyphClass: 2
Flags: W
AnchorPoint: "Anchor-1" 391.054 546 basechar 0
AnchorPoint: "Anchor-0" 265 0 basechar 0
LayerCount: 2
Fore
SplineSet
129.69140625 -10 m 0,0,1
 75.69140625 -10 75.69140625 -10 51.6181640625 33 c 0,2,3
 38.3567639584 56.6886802995 38.3567639584 56.6886802995 38.3567639584 93.1239534177 c 0,4,5
 38.3567639584 122.826461057 38.3567639584 122.826461057 47.169921875 161 c 0,6,7
 65.8701171875 242 65.8701171875 242 110.797851562 285 c 128,-1,8
 155.724609375 328 155.724609375 328 232.416992188 331 c 2,9,-1
 294.110351562 334 l 1,10,-1
 301.959960938 368 l 2,11,12
 305.132110282 381.740298888 305.132110282 381.740298888 305.132110282 392.791395172 c 0,13,14
 305.132110282 411.498790014 305.132110282 411.498790014 296.041992188 422.5 c 0,15,16
 281.58203125 440 281.58203125 440 251.58203125 440 c 0,17,18
 219.58203125 440 219.58203125 440 176.502929688 418 c 1,19,-1
 154.897460938 515 l 1,20,21
 191.745117188 536 191.745117188 536 228.053710938 546 c 128,-1,22
 264.362304688 556 264.362304688 556 296.362304688 556 c 0,23,24
 333.362304688 556 333.362304688 556 356.9765625 543.5 c 128,-1,25
 380.590820312 531 380.590820312 531 397.588867188 505 c 1,26,27
 452.362304688 556 452.362304688 556 511.362304688 556 c 0,28,29
 563.362304688 556 563.362304688 556 585.359375 523.5 c 128,-1,30
 607.312587618 491.064798405 607.312587618 491.064798405 607.312587618 434.725203664 c 128,-1,31
 607.312587618 378.190721414 607.312587618 378.190721414 590.645507812 306 c 2,32,-1
 574.946289062 238 l 1,33,-1
 381.946289062 238 l 1,34,35
 375.859330738 209.811404879 375.859330738 209.811404879 375.859330738 187.287122664 c 0,36,37
 375.859330738 156.274614489 375.859330738 156.274614489 387.3984375 136 c 0,38,39
 407.317382812 101 407.317382812 101 450.317382812 101 c 0,40,41
 472.317382812 101 472.317382812 101 491.510742188 110.5 c 128,-1,42
 510.704101562 120 510.704101562 120 532.62890625 137 c 1,43,-1
 507.463867188 28 l 1,44,45
 459.69140625 -10 459.69140625 -10 397.69140625 -10 c 0,46,47
 308.69140625 -10 308.69140625 -10 279.392578125 84 c 1,48,49
 210.69140625 -10 210.69140625 -10 129.69140625 -10 c 0,0,1
490.416992188 331 m 1,50,51
 498.966011271 371.466235167 498.966011271 371.466235167 498.966011271 398.081891269 c 0,52,53
 498.966011271 405.010212154 498.966011271 405.010212154 498.38671875 411 c 0,54,55
 495.58203125 440 495.58203125 440 474.58203125 440 c 0,56,57
 452.58203125 440 452.58203125 440 435.65625 410 c 128,-1,58
 418.729492188 380 418.729492188 380 406.416992188 331 c 1,59,-1
 490.416992188 331 l 1,50,51
192.241210938 105 m 0,60,61
 216.241210938 105 216.241210938 105 235.321289062 133.5 c 128,-1,62
 254.400390625 162 254.400390625 162 265.020507812 208 c 2,63,-1
 275.178710938 252 l 1,64,-1
 247.178710938 252 l 2,65,66
 222.178710938 252 222.178710938 252 199.946289062 231.5 c 128,-1,67
 177.712890625 211 177.712890625 211 168.248046875 170 c 0,68,69
 164.318404309 152.980255039 164.318404309 152.980255039 164.318404309 140.689844258 c 0,70,71
 164.318404309 127.705823588 164.318404309 127.705823588 168.704101562 120 c 0,72,73
 177.241210938 105 177.241210938 105 192.241210938 105 c 0,60,61
EndSplineSet
Validated: 1572865
Substitution2: "'smcp' Lowercase to Small Capitals lookup 35 subtable" ae.sc
Substitution2: "'aalt' Access All Alternates lookup 0 subtable" ae.sc
EndChar

StartChar: eth
Encoding: 240 240 178
Width: 530
GlyphClass: 2
Flags: W
AnchorPoint: "Anchor-3" 328.027 273 basechar 0
AnchorPoint: "Anchor-2" 685.69 761 basechar 0
AnchorPoint: "Anchor-1" 441.614 765 basechar 0
AnchorPoint: "Anchor-0" 265 0 basechar 0
LayerCount: 2
Fore
SplineSet
258.69140625 -10 m 0,0,1
 187.69140625 -10 187.69140625 -10 143.348632812 21 c 128,-1,2
 99.0048828125 52 99.0048828125 52 85.048828125 108.5 c 0,3,4
 78.774179615 133.902425596 78.774179615 133.902425596 78.774179615 162.842311121 c 0,5,6
 78.774179615 198.270433524 78.774179615 198.270433524 88.177734375 239 c 0,7,8
 106.185546875 317 106.185546875 317 145.3828125 372 c 128,-1,9
 184.581054688 427 184.581054688 427 237.776367188 456 c 128,-1,10
 290.970703125 485 290.970703125 485 349.970703125 485 c 0,11,12
 415.970703125 485 415.970703125 485 442.12109375 451 c 1,13,-1
 445.583007812 453 l 1,14,15
 442.818359375 493 442.818359375 493 429.513671875 528.5 c 128,-1,16
 416.209960938 564 416.209960938 564 395.135742188 594 c 1,17,-1
 294.052734375 533 l 1,18,-1
 262.59765625 596 l 1,19,-1
 348.602539062 648 l 1,20,21
 336.603515625 661 336.603515625 661 323.143554688 672 c 128,-1,22
 309.682617188 683 309.682617188 683 295.991210938 693 c 1,23,-1
 363.614257812 765 l 1,24,25
 410.303710938 742 410.303710938 742 447.685546875 709 c 1,26,-1
 540.614257812 765 l 1,27,-1
 572.838867188 701 l 1,28,-1
 497.21875 655 l 1,29,30
 553.44140625 578 553.44140625 578 568.624023438 477 c 0,31,32
 574.505424479 437.874894105 574.505424479 437.874894105 574.505424479 398.299604724 c 0,33,34
 574.505424479 335.712762246 574.505424479 335.712762246 559.795898438 272 c 0,35,36
 528.62890625 137 528.62890625 137 448.66015625 63.5 c 128,-1,37
 368.69140625 -10 368.69140625 -10 258.69140625 -10 c 0,0,1
284.701171875 94 m 0,38,39
 387.701171875 94 387.701171875 94 421.870117188 242 c 0,40,41
 428.470482957 270.590026742 428.470482957 270.590026742 428.470482957 294.076684312 c 0,42,43
 428.470482957 321.522919616 428.470482957 321.522919616 419.45703125 342 c 0,44,45
 402.729492188 380 402.729492188 380 348.729492188 380 c 0,46,47
 297.729492188 380 297.729492188 380 266.534179688 344.5 c 128,-1,48
 235.337890625 309 235.337890625 309 218.946289062 238 c 0,49,50
 210.85773997 202.963749216 210.85773997 202.963749216 210.85773997 175.720961957 c 0,51,52
 210.85773997 150.867229027 210.85773997 150.867229027 217.58984375 132.5 c 0,53,54
 231.701171875 94 231.701171875 94 284.701171875 94 c 0,38,39
EndSplineSet
Validated: 524289
Substitution2: "'smcp' Lowercase to Small Capitals lookup 35 subtable" eth.sc
Substitution2: "'aalt' Access All Alternates lookup 0 subtable" eth.sc
EndChar

StartChar: divide
Encoding: 247 247 185
Width: 530
Flags: W
LayerCount: 2
Fore
SplineSet
373.123046875 464 m 0,0,1
 342.123046875 464 342.123046875 464 328.509765625 483 c 0,2,3
 320.056337504 494.797568145 320.056337504 494.797568145 320.056337504 513.14944222 c 0,4,5
 320.056337504 524.353287012 320.056337504 524.353287012 323.20703125 538 c 0,6,7
 340.522460938 613 340.522460938 613 407.522460938 613 c 0,8,9
 457.894204846 613 457.894204846 613 457.894204846 566.540418988 c 0,10,11
 457.894204846 553.970612608 457.894204846 553.970612608 454.20703125 538 c 0,12,13
 445.895507812 502 445.895507812 502 424.009765625 483 c 128,-1,14
 402.123046875 464 402.123046875 464 373.123046875 464 c 0,0,1
125.72265625 302 m 1,15,-1
 149.270507812 404 l 1,16,-1
 567.270507812 404 l 1,17,-1
 543.72265625 302 l 1,18,-1
 125.72265625 302 l 1,15,-1
287.240234375 92 m 0,19,20
 256.240234375 92 256.240234375 92 242.625976562 111 c 0,21,22
 234.26131219 122.674527262 234.26131219 122.674527262 234.26131219 141.144906498 c 0,23,24
 234.26131219 152.734605721 234.26131219 152.734605721 237.5546875 167 c 0,25,26
 254.639648438 241 254.639648438 241 321.639648438 241 c 0,27,28
 372.154564553 241 372.154564553 241 372.154564553 194.8989259 c 0,29,30
 372.154564553 182.592128241 372.154564553 182.592128241 368.5546875 167 c 0,31,32
 360.012695312 130 360.012695312 130 338.125976562 111 c 128,-1,33
 316.240234375 92 316.240234375 92 287.240234375 92 c 0,19,20
EndSplineSet
Validated: 524289
EndChar

StartChar: oslash
Encoding: 248 248 186
Width: 530
GlyphClass: 2
Flags: W
AnchorPoint: "Anchor-3" 328.027 273 basechar 0
AnchorPoint: "Anchor-2" 636.054 546 basechar 0
AnchorPoint: "Anchor-1" 391.054 546 basechar 0
AnchorPoint: "Anchor-0" 265 0 basechar 0
LayerCount: 2
Fore
SplineSet
119.6875 -49 m 1,0,-1
 61.9990234375 -13 l 1,1,-1
 117.390625 58 l 1,2,3
 90.1630859375 96 90.1630859375 96 85.70703125 152.5 c 0,4,5
 84.6987510983 165.284364772 84.6987510983 165.284364772 84.6987510983 178.55511997 c 0,6,7
 84.6987510983 223.93394823 84.6987510983 223.93394823 96.48828125 275 c 0,8,9
 114.958007812 355 114.958007812 355 155.618164062 418.5 c 128,-1,10
 196.278320312 482 196.278320312 482 256.435546875 519.5 c 128,-1,11
 316.59375 557 316.59375 557 394.59375 557 c 0,12,13
 449.59375 557 449.59375 557 489.745117188 536 c 1,14,-1
 533.905273438 593 l 1,15,-1
 591.362304688 556 l 1,16,-1
 540.356445312 491 l 1,17,18
 566.044921875 455 566.044921875 455 571.116210938 399 c 0,19,20
 572.289219004 386.046991225 572.289219004 386.046991225 572.289219004 372.184458402 c 0,21,22
 572.289219004 326.114827847 572.289219004 326.114827847 559.333984375 270 c 0,23,24
 540.633789062 189 540.633789062 189 502.08984375 126 c 128,-1,25
 463.544921875 63 463.544921875 63 404.733398438 27 c 128,-1,26
 345.921875 -9 345.921875 -9 266.921875 -9 c 0,27,28
 208.921875 -9 208.921875 -9 168.000976562 13 c 1,29,-1
 119.6875 -49 l 1,0,-1
232.795898438 272 m 0,30,31
 221.9453125 225 221.9453125 225 221.327148438 192 c 1,32,-1
 407.2734375 430 l 1,33,34
 392.58203125 440 392.58203125 440 368.58203125 440 c 0,35,36
 316.58203125 440 316.58203125 440 283.80859375 395.5 c 128,-1,37
 251.03515625 351 251.03515625 351 232.795898438 272 c 0,30,31
292.93359375 108 m 0,38,39
 341.93359375 108 341.93359375 108 373.168945312 148 c 128,-1,40
 404.403320312 188 404.403320312 188 423.795898438 272 c 0,41,42
 435.33984375 322 435.33984375 322 435.189453125 356 c 1,43,-1
 250.473632812 119 l 1,44,45
 266.93359375 108 266.93359375 108 292.93359375 108 c 0,38,39
EndSplineSet
Validated: 524321
Substitution2: "'smcp' Lowercase to Small Capitals lookup 35 subtable" oslash.sc
Substitution2: "'aalt' Access All Alternates lookup 0 subtable" oslash.sc
EndChar

StartChar: thorn
Encoding: 254 254 192
Width: 530
GlyphClass: 2
Flags: W
AnchorPoint: "Anchor-1" 463.46 760 basechar 0
AnchorPoint: "Anchor-0" 232.592 -240 basechar 0
LayerCount: 2
Fore
SplineSet
-7.408203125 -240 m 1,0,-1
 223.459960938 760 l 1,1,-1
 355.459960938 760 l 1,2,-1
 311.826171875 571 l 2,3,4
 308.131835938 555 308.131835938 555 301.322265625 532 c 128,-1,5
 294.51171875 509 294.51171875 509 282.431640625 474 c 1,6,-1
 289.431640625 474 l 1,7,8
 359.362304688 556 359.362304688 556 452.362304688 556 c 0,9,10
 513.362304688 556 513.362304688 556 543.3203125 519 c 128,-1,11
 573.278320312 482 573.278320312 482 576.349609375 419.5 c 0,12,13
 576.801806991 410.294959479 576.801806991 410.294959479 576.801806991 400.775390912 c 0,14,15
 576.801806991 345.659390078 576.801806991 345.659390078 561.643554688 280 c 0,16,17
 530.245117188 144 530.245117188 144 464.967773438 67 c 128,-1,18
 399.69140625 -10 399.69140625 -10 316.69140625 -10 c 0,19,20
 276.69140625 -10 276.69140625 -10 245.078125 9 c 128,-1,21
 213.463867188 28 213.463867188 28 193.852539062 60 c 1,22,-1
 186.852539062 60 l 1,23,24
 185.080078125 35 185.080078125 35 182.540039062 17.5 c 128,-1,25
 180 0 180 0 175.844726562 -18 c 2,26,-1
 124.591796875 -240 l 1,27,-1
 -7.408203125 -240 l 1,0,-1
295.93359375 108 m 0,28,29
 341.93359375 108 341.93359375 108 371.74609375 150.5 c 128,-1,30
 401.557617188 193 401.557617188 193 421.181640625 278 c 0,31,32
 433.510293987 331.402228198 433.510293987 331.402228198 433.510293987 366.414886111 c 0,33,34
 433.510293987 386.476021258 433.510293987 386.476021258 429.462890625 400.5 c 0,35,36
 418.3515625 439 418.3515625 439 373.3515625 439 c 0,37,38
 281.3515625 439 281.3515625 439 247.182617188 291 c 2,39,-1
 243.2578125 274 l 2,40,41
 231.900730609 224.807200894 231.900730609 224.807200894 231.900730609 190.192302293 c 0,42,43
 231.900730609 108 231.900730609 108 295.93359375 108 c 0,28,29
EndSplineSet
Validated: 1572865
Substitution2: "'smcp' Lowercase to Small Capitals lookup 35 subtable" thorn.sc
Substitution2: "'aalt' Access All Alternates lookup 0 subtable" thorn.sc
EndChar

StartChar: dcaron
Encoding: 271 271 209
Width: 530
GlyphClass: 2
Flags: W
AnchorPoint: "Anchor-3" 296.027 273 basechar 0
AnchorPoint: "Anchor-2" 653.69 761 basechar 0
AnchorPoint: "Anchor-1" 420.69 761 basechar 0
AnchorPoint: "Anchor-0" 233 0 basechar 0
LayerCount: 2
Fore
SplineSet
178.69140625 -10 m 0,0,1
 122.69140625 -10 122.69140625 -10 96.7333984375 27 c 128,-1,2
 70.775390625 64 70.775390625 64 69.05078125 128 c 0,3,4
 68.9036510128 133.463074914 68.9036510128 133.463074914 68.9036510128 139.042732592 c 0,5,6
 68.9036510128 198.828843643 68.9036510128 198.828843643 85.7958984375 272 c 0,7,8
 105.189453125 356 105.189453125 356 137.46484375 420 c 128,-1,9
 169.740234375 484 169.740234375 484 214.551757812 520 c 128,-1,10
 259.362304688 556 259.362304688 556 316.362304688 556 c 0,11,12
 357.362304688 556 357.362304688 556 384.129882812 535.5 c 128,-1,13
 410.897460938 515 410.897460938 515 423.893554688 476 c 1,14,-1
 427.893554688 476 l 1,15,16
 427.895507812 502 427.895507812 502 431.860351562 530 c 128,-1,17
 435.82421875 558 435.82421875 558 441.595703125 583 c 2,18,-1
 482.690429688 761 l 1,19,-1
 614.690429688 761 l 1,20,-1
 439 0 l 1,21,-1
 342 0 l 1,22,-1
 328.391601562 71 l 1,23,-1
 322.391601562 71 l 1,24,25
 289.387695312 32 289.387695312 32 254.0390625 11 c 128,-1,26
 218.69140625 -10 218.69140625 -10 178.69140625 -10 c 0,0,1
604.830078125 610 m 1,27,28
 612.29296875 625 612.29296875 625 623.872070312 653.5 c 128,-1,29
 635.452148438 682 635.452148438 682 646.262695312 711.5 c 128,-1,30
 657.073242188 741 657.073242188 741 662.459960938 760 c 1,31,-1
 786.459960938 760 l 1,32,-1
 784.381835938 751 l 1,33,34
 765.532226562 717 765.532226562 717 737.8359375 675 c 128,-1,35
 710.139648438 633 710.139648438 633 681.520507812 600 c 1,36,-1
 602.520507812 600 l 1,37,-1
 604.830078125 610 l 1,27,28
264.93359375 108 m 0,38,39
 305.93359375 108 305.93359375 108 332.591796875 145.5 c 128,-1,40
 359.249023438 183 359.249023438 183 376.794921875 259 c 2,41,-1
 380.48828125 275 l 2,42,43
 394.29131202 334.786076949 394.29131202 334.786076949 394.29131202 372.777184405 c 0,44,45
 394.29131202 386.893038475 394.29131202 386.893038475 392.385742188 398 c 0,46,47
 385.3515625 439 385.3515625 439 341.3515625 439 c 0,48,49
 308.3515625 439 308.3515625 439 286.002929688 418 c 128,-1,50
 263.654296875 397 263.654296875 397 248.84375 361 c 128,-1,51
 234.032226562 325 234.032226562 325 223.412109375 279 c 0,52,53
 209.890154297 220.430493959 209.890154297 220.430493959 209.890154297 182.824464261 c 0,54,55
 209.890154297 162.643722282 209.890154297 162.643722282 213.784179688 148.5 c 0,56,57
 224.93359375 108 224.93359375 108 264.93359375 108 c 0,38,39
EndSplineSet
Validated: 524289
Substitution2: "'smcp' Lowercase to Small Capitals lookup 35 subtable" dcaron.sc
Substitution2: "'aalt' Access All Alternates lookup 0 subtable" dcaron.sc
EndChar

StartChar: dcroat
Encoding: 273 273 211
Width: 530
GlyphClass: 2
Flags: W
AnchorPoint: "Anchor-3" 328.027 273 basechar 0
AnchorPoint: "Anchor-2" 685.69 761 basechar 0
AnchorPoint: "Anchor-1" 440.69 761 basechar 0
AnchorPoint: "Anchor-0" 265 0 basechar 0
LayerCount: 2
Fore
SplineSet
202.69140625 -10 m 0,0,1
 141.69140625 -10 141.69140625 -10 112.002929688 26 c 128,-1,2
 82.3134765625 62 82.3134765625 62 79.2431640625 124.5 c 0,3,4
 78.8005280025 133.507538264 78.8005280025 133.507538264 78.8005280025 142.857793918 c 0,5,6
 78.8005280025 198.385528366 78.8005280025 198.385528366 94.4111328125 266 c 0,7,8
 113.341796875 348 113.341796875 348 147.001953125 411.5 c 128,-1,9
 180.662109375 475 180.662109375 475 228.358398438 510.5 c 128,-1,10
 276.053710938 546 276.053710938 546 339.053710938 546 c 0,11,12
 433.053710938 546 433.053710938 546 464.584960938 466 c 1,13,-1
 468.584960938 466 l 1,14,15
 468.586914062 492 468.586914062 492 472.666992188 520.5 c 128,-1,16
 476.747070312 549 476.747070312 549 482.98046875 576 c 2,17,-1
 485.981445312 589 l 1,18,-1
 367.981445312 589 l 1,19,-1
 388.759765625 679 l 1,20,-1
 506.759765625 679 l 1,21,-1
 525.690429688 761 l 1,22,-1
 657.690429688 761 l 1,23,-1
 638.759765625 679 l 1,24,-1
 686.759765625 679 l 1,25,-1
 665.981445312 589 l 1,26,-1
 617.981445312 589 l 1,27,-1
 482 0 l 1,28,-1
 385 0 l 1,29,-1
 371.391601562 71 l 1,30,-1
 365.391601562 71 l 1,31,32
 291.69140625 -10 291.69140625 -10 202.69140625 -10 c 0,0,1
292.93359375 108 m 0,33,34
 342.93359375 108 342.93359375 108 373.245117188 144 c 128,-1,35
 403.556640625 180 403.556640625 180 418.5625 245 c 2,36,-1
 423.1796875 265 l 2,37,38
 434.61053728 314.512045589 434.61053728 314.512045589 434.61053728 351.373561414 c 0,39,40
 434.61053728 368.860247593 434.61053728 368.860247593 432.038085938 383.5 c 0,41,42
 424.041992188 429 424.041992188 429 368.041992188 429 c 0,43,44
 317.041992188 429 317.041992188 429 284.4609375 387.5 c 128,-1,45
 251.880859375 346 251.880859375 346 233.411132812 266 c 0,46,47
 222.6193652 219.257229321 222.6193652 219.257229321 222.6193652 187.067983402 c 0,48,49
 222.6193652 161.410922439 222.6193652 161.410922439 229.475585938 145 c 0,50,51
 244.93359375 108 244.93359375 108 292.93359375 108 c 0,33,34
EndSplineSet
Validated: 524289
Substitution2: "'smcp' Lowercase to Small Capitals lookup 35 subtable" dcroat.sc
Substitution2: "'aalt' Access All Alternates lookup 0 subtable" dcroat.sc
EndChar

